<svg width="17" height="31" viewBox="0 0 17 31" fill="none" xmlns="http://www.w3.org/2000/svg">
<path d="M1.14001 30.41C0.916578 30.4124 0.6975 30.3485 0.510376 30.2264C0.323252 30.1043 0.176508 29.9294 0.0887451 29.7239C0.000982352 29.5184 -0.0238963 29.2915 0.0172729 29.0719C0.0584422 28.8522 0.163838 28.6497 0.320068 28.49L13.3201 14.94L0.320068 1.94C0.213338 1.83486 0.128531 1.70955 0.0706787 1.57135C0.0128266 1.43315 -0.0169678 1.28483 -0.0169678 1.13501C-0.0169678 0.98519 0.0128266 0.836869 0.0706787 0.698669C0.128531 0.56047 0.213338 0.435158 0.320068 0.330017C0.42435 0.223586 0.548788 0.139022 0.686157 0.0812988C0.823526 0.0235758 0.971052 -0.00616455 1.12006 -0.00616455C1.26906 -0.00616455 1.41652 0.0235758 1.55389 0.0812988C1.69126 0.139022 1.81576 0.223586 1.92004 0.330017L16.47 14.87L1.94006 30.03C1.84033 30.1453 1.71767 30.2387 1.57996 30.3041C1.44224 30.3695 1.29242 30.4056 1.14001 30.41Z" fill="#EA0029"/>
</svg>
