<svg width="40" height="40" viewBox="0 0 40 40" fill="none" xmlns="http://www.w3.org/2000/svg">
<g clip-path="url(#clip0_39_499)">
<path d="M26.4299 14.6801C26.2125 14.6801 26.0039 14.7665 25.8501 14.9203C25.6963 15.0741 25.6099 15.2826 25.6099 15.5001V18.9401H23.5699V14.0101C23.5827 13.8955 23.5711 13.7795 23.5359 13.6697C23.5007 13.5599 23.4428 13.4586 23.3659 13.3727C23.289 13.2868 23.1948 13.2181 23.0896 13.171C22.9843 13.124 22.8703 13.0996 22.7549 13.0996C22.6396 13.0996 22.5256 13.124 22.4203 13.171C22.3151 13.2181 22.2209 13.2868 22.144 13.3727C22.0671 13.4586 22.0091 13.5599 21.974 13.6697C21.9388 13.7795 21.9272 13.8955 21.9399 14.0101V18.9401H19.8799V12.2401C19.8799 12.1324 19.8587 12.0258 19.8175 11.9263C19.7763 11.8268 19.7159 11.7364 19.6398 11.6603C19.5636 11.5841 19.4732 11.5238 19.3737 11.4825C19.2743 11.4413 19.1676 11.42 19.06 11.42C18.9523 11.42 18.8456 11.4413 18.7461 11.4825C18.6467 11.5238 18.5563 11.5841 18.4801 11.6603C18.404 11.7364 18.3436 11.8268 18.3024 11.9263C18.2612 12.0258 18.2399 12.1324 18.2399 12.2401V18.9401H16.17V6.87012C16.17 6.76243 16.1487 6.65576 16.1075 6.55627C16.0663 6.45679 16.0059 6.36643 15.9298 6.29028C15.8536 6.21414 15.7632 6.15376 15.6637 6.11255C15.5643 6.07134 15.4576 6.05005 15.3499 6.05005C15.2423 6.05005 15.1356 6.07134 15.0361 6.11255C14.9367 6.15376 14.8463 6.21414 14.7701 6.29028C14.694 6.36643 14.6336 6.45679 14.5924 6.55627C14.5512 6.65576 14.53 6.76243 14.53 6.87012V24.5701L11.5999 21.8501C11.246 21.5306 10.7868 21.3526 10.31 21.3501C10.0522 21.3497 9.79712 21.4019 9.56033 21.5037C9.32355 21.6054 9.11009 21.7547 8.93307 21.942C8.75605 22.1293 8.61922 22.3509 8.53098 22.593C8.44273 22.8352 8.40495 23.0928 8.41995 23.3501C8.42836 23.5973 8.48572 23.8403 8.58871 24.0652C8.69171 24.29 8.83827 24.4922 9.01994 24.66L15.3699 30.54C16.173 31.5404 17.2486 32.2867 18.4668 32.6887C19.6849 33.0908 20.9935 33.1313 22.2342 32.8055C23.4749 32.4798 24.5947 31.8015 25.4582 30.8529C26.3217 29.9043 26.8919 28.7259 27.0999 27.4601V27.3701V27.28C27.1433 27.1822 27.1671 27.077 27.17 26.9701V15.4601C27.1612 15.2627 27.0816 15.0752 26.9456 14.9319C26.8097 14.7886 26.6266 14.6991 26.4299 14.6801Z" fill="white"/>
<path d="M19.57 2.56007e-06C15.705 -0.00197547 11.9261 1.14233 8.71147 3.28821C5.49681 5.43409 2.99076 8.48513 1.51029 12.0554C0.0298237 15.6257 -0.35856 19.5549 0.394266 23.3459C1.14709 27.137 3.00731 30.6196 5.73963 33.3533C8.47195 36.087 11.9536 37.949 15.7443 38.7037C19.5349 39.4585 23.4643 39.0722 27.0353 37.5935C30.6064 36.1149 33.6587 33.6104 35.8063 30.3969C37.9538 27.1833 39.1 23.405 39.1 19.5399C39.1 14.3593 37.0427 9.39086 33.3804 5.72669C29.7181 2.06251 24.7506 0.00265384 19.57 2.56007e-06ZM28.98 27C28.9798 27.2932 28.9291 27.5841 28.83 27.86C28.552 29.4329 27.8286 30.893 26.7457 32.0671C25.6629 33.2413 24.2659 34.0803 22.7206 34.4845C21.1754 34.8887 19.5466 34.8412 18.0275 34.3477C16.5083 33.8541 15.1627 32.9352 14.15 31.7L7.89004 25.8999C7.22364 25.2433 6.83899 24.3531 6.81759 23.4178C6.79619 22.4826 7.13971 21.5758 7.77538 20.8894C8.41106 20.203 9.28896 19.791 10.2231 19.7407C11.1573 19.6904 12.0744 20.0058 12.78 20.62L12.86 20.6899V6.89002C12.8151 6.53517 12.8461 6.17479 12.9512 5.83289C13.0563 5.49098 13.2329 5.17534 13.4694 4.90698C13.7059 4.63863 13.9968 4.42372 14.3228 4.27649C14.6488 4.12927 15.0023 4.0531 15.36 4.0531C15.7177 4.0531 16.0713 4.12927 16.3973 4.27649C16.7233 4.42372 17.0142 4.63863 17.2507 4.90698C17.4871 5.17534 17.6638 5.49098 17.7689 5.83289C17.8739 6.17479 17.905 6.53517 17.86 6.89002V10.02C18.2214 9.83161 18.6225 9.73215 19.03 9.72998C19.6245 9.73032 20.1998 9.93998 20.6551 10.3221C21.1104 10.7043 21.4166 11.2346 21.52 11.8199C21.887 11.6159 22.3001 11.5092 22.72 11.51C23.2674 11.5097 23.8002 11.6869 24.2384 12.015C24.6765 12.3432 24.9964 12.8045 25.15 13.33C25.5371 13.1093 25.9745 12.9922 26.42 12.99C26.7518 12.99 27.0803 13.0555 27.3867 13.1827C27.6931 13.31 27.9713 13.4965 28.2055 13.7316C28.4396 13.9666 28.625 14.2456 28.7511 14.5525C28.8771 14.8594 28.9413 15.1883 28.94 15.52L28.98 27Z" fill="white"/>
</g>
<defs>
<clipPath id="clip0_39_499">
<rect width="39.07" height="39.07" fill="white"/>
</clipPath>
</defs>
</svg>
