<svg width="121" height="122" viewBox="0 0 121 122" fill="none" xmlns="http://www.w3.org/2000/svg">
<g clip-path="url(#clip0_4_76)">
<path d="M60.5472 0.858459C48.652 0.858459 37.0239 4.38581 27.1333 10.9944C17.2428 17.6031 9.53409 26.9962 4.98198 37.986C0.429868 48.9757 -0.761172 61.0686 1.55947 72.7352C3.88012 84.4019 9.60822 95.1184 18.0194 103.53C26.4306 111.941 37.1471 117.669 48.8138 119.99C60.4805 122.31 72.5733 121.119 83.5631 116.567C94.5528 112.015 103.946 104.306 110.555 94.4157C117.163 84.5252 120.691 72.8971 120.691 61.0018C120.675 45.0557 114.333 29.7672 103.057 18.4916C91.7818 7.21596 76.4933 0.874339 60.5472 0.858459ZM60.5472 118.826C49.1087 118.826 37.9271 115.434 28.4164 109.079C18.9056 102.724 11.4929 93.6917 7.11555 83.124C2.73823 72.5562 1.59292 60.9277 3.82446 49.709C6.056 38.4903 11.5642 28.1852 19.6524 20.097C27.7406 12.0088 38.0457 6.50063 49.2644 4.26909C60.4831 2.03755 72.1115 3.18285 82.6793 7.56017C93.2471 11.9375 102.28 19.3502 108.634 28.861C114.989 38.3717 118.381 49.5534 118.381 60.9918C118.363 76.3247 112.264 91.0242 101.422 101.866C90.5796 112.708 75.8801 118.807 60.5472 118.826ZM117.332 55.8433C115.978 40.8196 108.723 26.9455 97.1564 17.2625C85.59 7.57949 70.6561 2.87759 55.6286 4.18754C66.0889 3.2713 76.5979 5.28325 85.9801 9.99835C95.3623 14.7134 103.248 21.9458 108.754 30.8864C114.261 39.827 117.172 50.1233 117.161 60.6236C117.151 71.124 114.219 81.4144 108.694 90.3437C114.137 81.4455 117.003 71.2112 116.974 60.7803C116.945 50.3495 114.022 40.1313 108.529 31.2636C103.037 22.3958 95.191 15.2265 85.8652 10.5537C76.5394 5.881 66.0998 3.88826 55.7085 4.79737C64.902 3.99446 74.1513 5.47664 82.6335 9.11201C91.1158 12.7474 98.5678 18.4232 104.326 25.6344C110.085 32.8456 113.972 41.3686 115.641 50.4448C117.31 59.5211 116.709 68.8692 113.892 77.6572C112.506 81.9938 110.592 86.1437 108.194 90.0138C113.572 81.2098 116.402 71.0862 116.368 60.7697C116.335 50.4531 113.44 40.3481 108.005 31.579C102.57 22.8099 94.8092 15.7207 85.5852 11.1001C76.3611 6.4795 66.036 4.50878 55.7585 5.4072C65.9922 4.50985 76.2738 6.47748 85.453 11.09C94.6323 15.7024 102.347 22.7779 107.735 31.5247C113.122 40.2716 115.97 50.345 115.959 60.6179C115.949 70.8909 113.08 80.9583 107.674 89.6939C112.992 80.986 115.79 70.9733 115.756 60.7699C115.723 50.5665 112.859 40.5725 107.483 31.8999C102.108 23.2273 94.4312 16.2162 85.3082 11.6466C76.1852 7.07707 65.9732 5.12826 55.8085 6.01703C64.7992 5.23976 73.8427 6.69505 82.1357 10.2536C90.4286 13.8122 97.7143 19.3639 103.346 26.4156C108.977 33.4672 112.779 41.8005 114.415 50.6752C116.051 59.55 115.47 68.6913 112.723 77.2873C111.366 81.5297 109.492 85.589 107.144 89.374C112.406 80.765 115.176 70.8647 115.145 60.775C115.113 50.6853 112.283 40.8022 106.968 32.2259C101.653 23.6497 94.0617 16.7167 85.04 12.1989C76.0182 7.68105 65.9197 5.75559 55.8685 6.63686C64.7573 5.86714 73.6986 7.30507 81.8978 10.8229C90.0971 14.3407 97.3004 19.8295 102.868 26.8014C108.435 33.7734 112.194 42.0126 113.81 50.787C115.427 59.5614 114.85 68.5993 112.133 77.0974C110.798 81.308 108.948 85.3375 106.624 89.0941C111.827 80.5812 114.564 70.7917 114.533 60.8152C114.501 50.8386 111.702 41.0666 106.446 32.5868C101.19 24.1071 93.6837 17.2522 84.7629 12.7854C75.8422 8.31861 65.8569 6.41507 55.9185 7.28668C65.8108 6.42375 75.7481 8.3291 84.6197 12.7897C93.4912 17.2504 100.947 24.0905 106.155 32.5455C111.362 41.0004 114.115 50.7371 114.106 60.6669C114.097 70.5967 111.327 80.3284 106.105 88.7742C111.26 80.3552 113.975 70.67 113.948 60.7982C113.921 50.9265 111.153 41.2562 105.952 32.8655C100.751 24.4749 93.3219 17.6936 84.4929 13.2778C75.6638 8.86196 65.7817 6.98512 55.9485 7.85653C65.7272 7.0053 75.5499 8.89023 84.3189 13.3007C93.088 17.7111 100.458 24.4732 105.604 32.8314C110.751 41.1895 113.472 50.8142 113.464 60.6299C113.455 70.4455 110.717 80.0654 105.555 88.4143C110.644 80.0946 113.325 70.5254 113.297 60.7724C113.27 51.0194 110.536 41.4654 105.4 33.1744C100.263 24.8834 92.9266 18.1809 84.2062 13.8132C75.4858 9.4455 65.7242 7.58413 56.0085 8.43637C65.6724 7.59493 75.3799 9.45854 84.0453 13.8188C92.7107 18.179 99.9922 24.8639 105.076 33.1259C110.159 41.3878 112.843 50.901 112.829 60.6015C112.815 70.3021 110.102 79.8074 104.995 88.0544C110.01 79.8318 112.646 70.3795 112.61 60.7484C112.574 51.1173 109.867 41.6849 104.79 33.5003C99.7136 25.3157 92.4663 18.6995 83.8543 14.3877C75.2423 10.0758 65.603 8.23712 56.0085 9.07619C65.5618 8.2358 75.1606 10.071 83.7301 14.3763C92.2996 18.6816 99.5017 25.2872 104.53 33.4534C109.559 41.6197 112.215 51.0244 112.202 60.6146C112.188 70.2048 109.506 79.6021 104.455 87.7544C106.646 84.1701 108.385 80.3287 109.634 76.3176C112.166 68.2517 112.671 59.6858 111.103 51.3783C109.536 43.0707 105.944 35.2778 100.647 28.6893C95.3491 22.1007 88.509 16.9199 80.7317 13.6052C72.9545 10.2906 64.48 8.94449 56.0584 9.68602C65.5047 8.84518 74.9985 10.6509 83.4764 14.9009C91.9544 19.1509 99.0816 25.6774 104.06 33.7493C109.038 41.8212 111.671 51.1197 111.663 60.6033C111.655 70.0868 109.007 79.3809 104.015 87.4445C108.919 79.416 111.498 70.1842 111.467 60.7767C111.435 51.3692 108.794 42.155 103.836 34.1595C98.8791 26.164 91.8004 19.701 83.3881 15.4896C74.9759 11.2782 65.56 9.48372 56.1884 10.3058C65.515 9.4886 74.8851 11.2824 83.2504 15.4867C91.6157 19.6909 98.6463 26.1397 103.556 34.1117C108.465 42.0837 111.059 51.2644 111.049 60.6267C111.038 69.9891 108.423 79.1638 103.495 87.1246C108.334 79.1923 110.879 70.0732 110.845 60.7814C110.812 51.4896 108.202 42.3891 103.306 34.4918C98.4099 26.5945 91.4195 20.2098 83.1119 16.0477C74.8044 11.8855 65.5052 10.109 56.2484 10.9157C64.4345 10.212 72.6676 11.5416 80.2161 14.7863C87.7646 18.0309 94.3946 23.0901 99.5169 29.5143C104.639 35.9384 108.095 43.5284 109.577 51.6099C111.06 59.6913 110.523 68.0138 108.014 75.8377C105.772 82.8455 101.97 89.2533 96.8923 94.5783C91.8149 99.9032 85.5954 104.007 78.7022 106.579C72.9913 108.579 66.9529 109.478 60.9071 109.229C72.3182 109.188 83.3466 105.109 92.0379 97.7149C100.729 90.3206 106.522 80.0882 108.391 68.8309C110.259 57.5737 108.082 46.0186 102.245 36.2132C96.4079 26.4077 87.2883 18.9852 76.502 15.2608C65.7157 11.5365 53.9591 11.7508 43.3157 15.8658C32.6723 19.9808 23.8293 27.7309 18.3537 37.7425C12.8781 47.7542 11.1235 59.381 13.4009 70.5627C15.6782 81.7443 21.8404 91.7588 30.7954 98.8314L30.4555 99.6812C28.1945 98.3181 26.1066 96.6868 24.2372 94.8225C16.5623 86.7178 11.849 76.2589 10.8609 65.1407C10.2719 58.6034 10.9787 52.0141 12.941 45.7505C14.9032 39.4869 18.0822 33.6721 22.2958 28.6394C26.5094 23.6066 31.6748 19.4549 37.4959 16.4221C43.317 13.3893 49.6794 11.5351 56.2184 10.9657C48.0021 11.681 40.088 14.4071 33.1741 18.9035C26.2602 23.3999 20.5589 29.5284 16.5729 36.7486C12.5869 43.9688 10.4387 52.0589 10.3178 60.3054C10.1969 68.5519 12.107 76.7015 15.8796 84.0355C17.6426 87.4507 19.7892 90.6538 22.2778 93.5828C16.2212 86.5396 12.2248 77.9623 10.7283 68.7945C9.23176 59.6267 10.2931 50.2237 13.7955 41.6201C17.2979 33.0165 23.1056 25.5458 30.5798 20.0298C38.0539 14.5138 46.9047 11.1664 56.1584 10.3558C46.8614 11.1613 37.9655 14.5102 30.4454 20.0357C22.9253 25.5612 17.0712 33.0501 13.5246 41.6817C9.97798 50.3133 8.87572 59.7546 10.3386 68.9711C11.8014 78.1875 15.7729 86.8235 21.8179 93.9327C19.2646 90.9898 17.0637 87.7588 15.2597 84.3054C11.3551 76.8494 9.35271 68.5443 9.43057 60.1281C9.50842 51.7119 11.6641 43.4452 15.706 36.0627C19.748 28.6802 25.551 22.4105 32.5994 17.8107C39.6478 13.2108 47.7234 10.4234 56.1084 9.69602C46.6905 10.5057 37.6776 13.8941 30.0588 19.4893C22.4399 25.0844 16.5095 32.6702 12.9184 41.4142C9.3272 50.1581 8.21406 59.7223 9.70109 69.0573C11.1881 78.3923 15.2178 87.1372 21.348 94.3326C15.1395 87.1219 11.0411 78.3378 9.50408 68.9475C7.96708 59.5572 9.0511 49.9248 12.6368 41.111C16.2225 32.2972 22.1707 24.6437 29.8267 18.9933C37.4826 13.3429 46.5493 9.91474 56.0285 9.08618C46.5013 9.9117 37.3855 13.3446 29.6804 19.0085C21.9753 24.6724 15.9786 32.3486 12.3478 41.1953C8.71703 50.0421 7.59232 59.7178 9.09703 69.1615C10.6017 78.6052 14.6778 87.4522 20.8782 94.7325C14.5978 87.4305 10.4542 78.5371 8.90362 69.0314C7.35303 59.5258 8.45557 49.7766 12.0899 40.8573C15.7241 31.938 21.7492 24.1945 29.5017 18.4795C37.2541 12.7645 46.4333 9.29964 56.0285 8.46636C46.386 9.29811 37.1589 12.7693 29.3592 18.4992C21.5595 24.2292 15.4884 31.9964 11.8119 40.9492C8.13537 49.9019 6.99544 59.6942 8.51713 69.252C10.0388 78.8099 14.1633 87.764 20.4383 95.1324C17.7925 92.0747 15.5111 88.7198 13.6402 85.1352C9.61183 77.4104 7.55042 68.8114 7.6385 60.0998C7.72657 51.3882 9.96141 42.8326 14.1451 35.1909C18.3288 27.5491 24.3323 21.0568 31.6239 16.289C38.9156 11.5211 47.2703 8.62482 55.9485 7.85653C47.2273 8.61259 38.8264 11.504 31.4873 16.2756C24.1483 21.0473 18.0967 27.5522 13.867 35.2164C9.6372 42.8806 7.35929 51.4682 7.2343 60.2212C7.10931 68.9741 9.14111 77.6233 13.1503 85.4051C15.0258 89.0272 17.3064 92.4247 19.9484 95.5323C14.0139 88.638 9.93186 80.3466 8.08668 71.4391C6.2415 62.5315 6.69393 53.3008 9.40135 44.6164C12.5779 34.482 18.6933 25.5196 26.9716 18.8663C35.2499 12.213 45.318 8.1688 55.8985 7.24669C46.0334 8.10178 36.5942 11.6562 28.6152 17.5202C20.6363 23.3843 14.4257 31.3317 10.6642 40.4915C6.90257 49.6512 5.73519 59.6698 7.28998 69.449C8.84476 79.2282 13.0617 88.3907 19.4786 95.9322C11.1002 86.2071 6.44939 73.8216 6.35601 60.9855C6.26262 48.1493 10.7327 35.6975 18.9687 25.8516C23.5522 20.3829 29.1684 15.8712 35.4965 12.5742C41.8246 9.27722 48.7403 7.25967 55.8485 6.63686C48.7275 7.23712 41.7949 9.23621 35.4476 12.5196C29.1003 15.8031 23.4631 20.3063 18.8587 25.7716C10.5255 35.6481 5.96949 48.1625 6.00244 61.0848C6.0354 74.0072 10.6552 86.4982 19.0387 96.3321C12.4653 88.6883 8.12805 79.3793 6.50435 69.4294C4.88065 59.4796 6.03342 49.2746 9.83578 39.9377C13.6381 30.6007 19.9427 22.4938 28.0556 16.5091C36.1685 10.5243 45.7752 6.89379 55.8185 6.01703C45.7202 6.87714 36.0544 10.504 27.883 16.4992C19.7115 22.4944 13.3506 30.626 9.49918 40.0005C5.64772 49.375 4.4547 59.6297 6.0512 69.638C7.64769 79.6463 11.9719 89.021 18.5488 96.732C15.7852 93.5385 13.4 90.0362 11.4408 86.2949C7.21231 78.2099 5.04557 69.2059 5.13294 60.0824C5.22031 50.9589 7.55908 41.9981 11.9416 33.9956C16.3241 25.9931 22.6148 19.1965 30.2551 14.2093C37.8954 9.22211 46.649 6.19859 55.7385 5.4072C45.5312 6.28337 35.7623 9.95403 27.5037 16.0165C19.2451 22.0789 12.8159 30.2989 8.92125 39.7747C5.02664 49.2504 3.81718 59.6158 5.42555 69.7336C7.03392 79.8515 11.398 89.3309 18.039 97.1319C9.37471 87.0749 4.56589 74.2665 4.47067 60.9923C4.37545 47.7182 9.00003 34.8421 17.5191 24.6619C22.2554 19.0053 28.0614 14.3389 34.6044 10.9301C41.1474 7.5214 48.2987 5.43734 55.6486 4.79737C46.4308 5.60079 37.5523 8.65951 29.7956 13.7039C22.0389 18.7483 15.6423 25.6234 11.1696 33.7232C6.69693 41.823 4.28555 50.8988 4.14804 60.1505C4.01052 69.4021 6.1511 78.5455 10.3811 86.7747C12.3629 90.6081 14.7744 94.2036 17.5691 97.4918C10.7729 89.5943 6.28745 79.9747 4.60652 69.692C2.9256 59.4094 4.11436 48.8623 8.04197 39.2117C11.9696 29.5612 18.4837 21.1814 26.8673 14.9949C35.251 8.80828 45.179 5.05479 55.5586 4.14755C40.5697 5.45991 26.715 12.6695 17.0392 24.192C10.9843 31.3624 6.79413 39.9172 4.84083 49.0966C2.88754 58.276 3.23163 67.7957 5.84253 76.81C8.45343 85.8244 13.2503 94.0544 19.8071 100.769C26.3639 107.483 34.4775 112.475 43.4273 115.299C52.377 118.124 61.8859 118.694 71.1091 116.959C80.3323 115.225 88.9843 111.239 96.2966 105.356C103.609 99.4737 109.355 91.8761 113.025 83.2383C116.694 74.6006 118.174 65.1903 117.332 55.8433ZM14.7499 60.9718C14.7499 51.5581 17.6434 42.3718 23.0384 34.6573C28.4334 26.9427 36.0691 21.0728 44.9113 17.8426C53.7536 14.6124 63.375 14.178 72.4723 16.5983C81.5697 19.0185 89.7033 24.1765 95.7715 31.3734C101.84 38.5704 105.549 47.4586 106.398 56.834C107.246 66.2095 105.192 75.6192 100.514 83.7886C95.8368 91.9579 88.7611 98.4921 80.246 102.506C71.7309 106.52 62.1878 107.82 52.9093 106.229L52.6494 102.42C52.0896 94.4226 49.1504 85.3751 43.4219 75.5578C44.8615 78.387 47.2509 70.1493 49.1504 67.4401C51.7496 65.9405 55.1487 71.5989 56.9382 73.0085C57.578 73.5284 58.7677 72.3787 57.4481 68.6897C60.7871 75.8977 62.2467 73.9982 61.7369 67.8399C63.1365 71.8388 64.3762 72.7286 64.986 71.8388C65.4559 71.149 65.036 67.72 65.3659 67.4501C66.5356 70.5992 67.2753 74.1982 68.365 73.1285C68.625 72.8386 68.8449 70.5392 69.4847 67.0702C69.3948 71.0691 72.4839 67.9999 72.3439 62.3115C76.7327 64.041 80.9916 62.4514 77.1226 59.7422C82.8511 58.0427 85.9002 56.3931 81.6014 55.2634C86.3401 53.6039 76.3928 54.5336 84.3606 52.2642C85.4703 48.4553 82.2912 50.4747 80.7216 50.7747C81.3215 49.3451 87.8197 47.5256 87.4098 46.2459C90.409 42.9368 84.7805 44.8763 83.5109 44.1465C88.2795 42.407 89.9191 38.808 90.239 37.2984C90.6389 35.4489 89.0793 36.7385 80.2418 39.8677C85.6403 35.7188 91.5486 33.6794 92.4984 32.2998C93.938 30.1504 88.6894 30.6102 82.7411 32.6797C78.3223 34.1992 72.5339 37.8582 66.8855 41.1973C64.1835 45.4216 62.0648 49.9917 60.5872 54.7836C56.5883 56.3431 56.8282 53.9938 51.2498 57.2129C47.6908 56.5531 47.7907 55.3134 45.3814 57.0729C43.8218 57.2029 43.9518 55.4734 43.7718 52.5842C46.4111 50.2548 44.0218 48.1454 43.232 48.0254C42.0542 47.7196 40.8089 47.8038 39.683 48.2654C38.9032 48.7052 39.0232 49.2651 38.5333 49.8049C37.8435 50.5447 38.0534 50.1048 38.3833 50.9446C38.7132 51.7844 38.6133 52.6441 39.0531 52.9441C39.3192 53.0747 39.6116 53.1426 39.9079 53.1426C40.2043 53.1426 40.4967 53.0747 40.7627 52.9441L40.4228 56.3231C30.4255 61.6117 38.0234 77.4673 31.6752 96.552C26.389 92.257 22.1269 86.8374 19.199 80.6877C16.2712 74.538 14.7513 67.8129 14.7499 61.0018M82.0213 35.139C79.8019 36.2087 77.4925 37.4883 75.4331 38.688C77.3506 37.6892 79.3271 36.8079 81.3515 36.0487C78.1326 37.6413 75.0023 39.4067 71.9741 41.3373C73.5015 40.4718 75.0923 39.7232 76.7327 39.0979C74.319 40.3134 71.9819 41.6756 69.7347 43.1768C68.9249 44.1765 66.2256 49.3251 66.2256 49.3251C66.9401 47.5556 67.7648 45.8327 68.695 44.1665C66.8555 47.1057 63.6364 53.274 63.6364 53.274C64.9278 50.0279 66.4479 46.8776 68.1851 43.8466C66.1857 46.9657 62.4567 54.1337 62.4567 54.1337C63.7764 50.8288 65.3023 47.6101 67.0254 44.4964C65.0512 47.7846 63.246 51.1714 61.6169 54.6436C63.2211 50.1517 65.3343 45.8583 67.9152 41.8471C72.4691 38.7626 77.3634 36.2131 82.5011 34.2492C79.7219 35.5789 76.8027 37.2484 74.3534 38.688C76.8275 37.3356 79.3892 36.15 82.0213 35.139ZM31.6852 99.8311C35.5641 90.0738 35.6841 76.9374 35.6841 76.9374C35.8533 84.3735 34.9818 91.7967 33.0948 98.9913C36.1739 90.1938 36.2739 79.2568 36.2739 79.2568C36.4336 85.9361 35.6801 92.6059 34.0345 99.0813C36.8538 91.1335 36.8438 81.4762 36.8438 81.4762C37.054 87.5002 36.3803 93.5225 34.8443 99.3512C36.3704 94.656 37.2286 89.7695 37.3936 84.8353C37.4885 89.7343 36.8859 94.6219 35.6041 99.3512C36.5517 96.8288 37.2221 94.2108 37.6035 91.5434C37.8406 95.1846 37.1527 98.8265 35.6041 102.13C34.2094 101.622 32.8558 101.007 31.5552 100.291L31.6852 99.8311Z" fill="#EA0029"/>
</g>
<defs>
<clipPath id="clip0_4_76">
<rect width="120.287" height="120.287" fill="white" transform="translate(0.414062 0.827942)"/>
</clipPath>
</defs>
</svg>
