<svg width="149" height="65" viewBox="0 0 149 65" fill="none" xmlns="http://www.w3.org/2000/svg">
<g clip-path="url(#clip0_32_432)">
<path d="M120.715 44.5994C126.969 44.5994 133.096 40.495 135.367 34.6371H126.28C125.518 35.8529 124.405 36.8058 123.089 37.3683C121.797 37.9032 120.372 38.0285 119.008 37.7273C117.643 37.4261 116.402 36.7128 115.452 35.6832C114.297 34.4516 113.674 32.8102 113.721 31.1185H136.359C136.77 28.4196 136.49 25.66 135.545 23.1C134.772 21.1358 133.647 19.3307 132.225 17.7746C130.061 15.5006 127.29 13.9017 124.245 13.1697C121.199 12.4377 118.008 12.6036 115.054 13.6474C110.681 15.0625 106.573 19.2239 105.21 23.6174C104.282 26.383 104.134 29.3525 104.782 32.1975C105.429 35.0425 106.847 37.6522 108.879 39.7381C110.417 41.3165 112.261 42.562 114.297 43.398C116.332 44.234 118.516 44.6429 120.715 44.5994ZM117.076 19.1136C119.121 17.9002 122.259 18.0105 124.221 19.3228C125.192 19.9146 126.004 20.7376 126.583 21.7192C127.195 22.8194 127.518 24.0576 127.522 25.3177H113.438C113.432 24.0503 113.767 22.8049 114.408 21.713C115.048 20.621 115.97 19.723 117.076 19.1136Z" fill="#00915A"/>
<path d="M39.1176 25.3367H55.7127V43.0778H63.9667V0.94635H55.796V17.7784H39.2047V1.00721H30.9772V43.1006H39.1176V25.3367Z" fill="#00915A"/>
<path d="M148.271 1.07947H140.91V43.3136H148.271V1.07947Z" fill="#00915A"/>
<path d="M84.204 44.5994C90.4627 44.5994 96.585 40.495 98.8643 34.6371H89.7774C89.0149 35.8512 87.9031 36.8037 86.5894 37.3683C85.2955 37.9036 83.8697 38.029 82.5028 37.7279C81.136 37.4267 79.8934 36.7133 78.9412 35.6832C77.7901 34.4492 77.1698 32.8091 77.2147 31.1185H99.8525C100.265 28.4199 99.9859 25.6603 99.0423 23.1C98.2676 21.1365 97.1422 19.3317 95.7218 17.7746C93.5579 15.5006 90.7871 13.9017 87.7417 13.1697C84.6962 12.4377 81.5052 12.6036 78.5512 13.6474C74.1819 15.0625 70.0663 19.2239 68.707 23.6174C67.7807 26.3832 67.6331 29.3523 68.2805 32.1971C68.9279 35.0418 70.3452 37.6515 72.3759 39.7381C73.9139 41.315 75.7564 42.5596 77.7904 43.3956C79.8244 44.2315 82.0069 44.6411 84.204 44.5994ZM80.573 19.1136C82.6138 17.9002 85.7564 18.0105 87.7139 19.3228C88.6873 19.9133 89.5002 20.7366 90.0803 21.7192C90.6917 22.8194 91.0148 24.0576 91.0193 25.3177H76.9421C76.9374 24.05 77.2733 22.8045 77.9143 21.7126C78.5554 20.6207 79.4778 19.7228 80.5844 19.1136H80.573Z" fill="#00915A"/>
<path d="M97.1 58.0574H97.0773C96.8956 57.7762 96.6408 57.5502 96.3405 57.404C96.0401 57.2579 95.7057 57.197 95.3735 57.2282C93.8817 57.2282 93.1547 58.453 93.1547 59.8414C93.1547 61.2298 93.806 62.6411 95.3621 62.6411C95.7014 62.6562 96.0393 62.587 96.3457 62.4397C96.6521 62.2924 96.9177 62.0715 97.1189 61.7966H97.1416V62.5193H98.0503V54.9116H97.0962L97.1 58.0574ZM95.5855 61.8613C94.5594 61.8613 94.1354 60.7201 94.1581 59.8985C94.1354 58.9589 94.5367 57.9965 95.5741 57.9965C96.6115 57.9965 97.0886 58.9817 97.0886 59.9479C97.1 60.8076 96.657 61.8765 95.5968 61.8765L95.5855 61.8613Z" fill="#0096D2"/>
<path d="M130.737 60.9559V58.1259H132.092V57.3651H130.737V55.8436L129.779 56.144V57.3461H128.62V58.1068H129.779V61.1499C129.779 62.1846 130.389 62.6486 131.369 62.6486C131.644 62.6416 131.916 62.5929 132.176 62.5041V61.6977C131.984 61.8241 131.758 61.8891 131.528 61.884C131.413 61.8819 131.3 61.8553 131.196 61.8061C131.092 61.7568 131 61.6861 130.925 61.5984C130.85 61.5108 130.795 61.4082 130.763 61.2974C130.73 61.1867 130.721 61.0703 130.737 60.9559Z" fill="#0096D2"/>
<path d="M23.7114 60.9559V58.1259H25.0707V57.3651H23.7114V55.8436L22.7686 56.144V57.3461H21.5949V58.1068H22.7686V61.1499C22.7686 62.1846 23.3669 62.6486 24.3513 62.6486C24.6234 62.6419 24.8929 62.5932 25.1502 62.5041V61.6977C24.9609 61.8242 24.7376 61.8892 24.5103 61.884C24.395 61.8823 24.2813 61.8562 24.1768 61.8072C24.0722 61.7582 23.9792 61.6876 23.9037 61.6C23.8283 61.5123 23.7721 61.4096 23.739 61.2986C23.7058 61.1876 23.6964 61.0708 23.7114 60.9559Z" fill="#0096D2"/>
<path d="M49.295 57.2281C47.8411 57.2281 46.8794 58.316 46.8794 59.8414C46.8794 61.5303 47.7199 62.6411 49.5487 62.6411C50.1074 62.6481 50.6612 62.5353 51.173 62.3101V61.3554C50.7053 61.6763 50.1564 61.857 49.5903 61.8765C49.3649 61.8781 49.1414 61.8342 48.9332 61.7474C48.7249 61.6607 48.5361 61.5328 48.378 61.3714C48.2198 61.21 48.0955 61.0184 48.0124 60.8079C47.9292 60.5973 47.889 60.3722 47.8941 60.1457H51.5743C51.5743 58.4834 51.014 57.2281 49.295 57.2281ZM47.8941 59.4382C47.9623 58.7725 48.3485 57.9965 49.2799 57.9965C50.0977 57.9965 50.5596 58.647 50.5596 59.4382H47.8941Z" fill="#0096D2"/>
<path d="M59.5557 58.0574C59.3749 57.7762 59.1208 57.5501 58.8211 57.4039C58.5213 57.2577 58.1874 57.1969 57.8556 57.2282C56.3411 57.2282 55.6293 58.453 55.6293 59.8414C55.6293 61.2298 56.2806 62.6411 57.8405 62.6411C58.1798 62.6558 58.5175 62.5865 58.8239 62.4392C59.1302 62.292 59.3958 62.0713 59.5973 61.7966H59.5935V62.5193H60.4984V54.9116H59.5557V58.0574ZM58.0412 61.8613C57.0189 61.8613 56.5948 60.7201 56.6175 59.8985C56.5948 58.9589 56.9962 57.9965 58.0336 57.9965C59.071 57.9965 59.5481 58.9817 59.5481 59.9479C59.5557 60.8076 59.1202 61.8765 58.045 61.8765L58.0412 61.8613Z" fill="#0096D2"/>
<path d="M64.349 57.2281C62.8913 57.2281 61.9334 58.316 61.9334 59.8414C61.9334 61.5303 62.7702 62.6411 64.6027 62.6411C65.1613 62.6466 65.7147 62.5339 66.227 62.3101V61.3554C65.7572 61.6749 65.2075 61.8555 64.6406 61.8765C64.415 61.8781 64.1913 61.8342 63.9829 61.7475C63.7744 61.6607 63.5854 61.533 63.4269 61.3716C63.2684 61.2103 63.1438 61.0187 63.0602 60.8081C62.9767 60.5976 62.936 60.3723 62.9405 60.1457H66.6246C66.6246 58.4834 66.068 57.2281 64.349 57.2281ZM62.9405 59.4382C63.0125 58.7725 63.3987 57.9965 64.3301 57.9965C65.1479 57.9965 65.6098 58.647 65.6098 59.4382H62.9405Z" fill="#0096D2"/>
<path d="M127.602 59.3659C127.602 57.9547 127.011 57.2281 125.531 57.2281C124.93 57.2304 124.342 57.3989 123.831 57.7151L123.88 58.5215C124.312 58.1812 124.845 57.9963 125.394 57.9965C126.333 57.9965 126.663 58.453 126.663 59.3431C126.284 59.3431 126.023 59.3431 125.652 59.3431C124.671 59.3431 123.255 59.7463 123.255 61.0472C123.255 62.1884 124.031 62.6601 125.148 62.6601C125.458 62.6698 125.765 62.6031 126.043 62.4658C126.321 62.3286 126.561 62.1249 126.742 61.8727H126.761V62.5384H127.655C127.62 62.2035 127.607 61.8669 127.613 61.5303L127.602 59.3659ZM126.651 60.5071C126.66 60.6956 126.628 60.8838 126.558 61.0588C126.487 61.2339 126.38 61.3916 126.244 61.5212C126.107 61.6508 125.944 61.7493 125.766 61.81C125.588 61.8707 125.4 61.892 125.213 61.8727C124.974 61.8862 124.741 61.8047 124.562 61.6458C124.383 61.4869 124.274 61.2636 124.259 61.0244C124.259 60.1115 125.531 60.0354 126.042 60.0354C126.25 60.0354 126.447 60.0544 126.651 60.0544V60.5071Z" fill="#0096D2"/>
<path d="M89.8039 57.2281C88.3499 57.2281 87.392 58.316 87.392 59.8414C87.392 61.5303 88.225 62.6411 90.0424 62.6411C90.6023 62.6475 91.1571 62.5347 91.6705 62.3101V61.3554C91.2025 61.6757 90.6538 61.8564 90.0878 61.8765C89.8621 61.8786 89.6382 61.835 89.4295 61.7485C89.2208 61.662 89.0316 61.5342 88.873 61.3728C88.7144 61.2113 88.5897 61.0195 88.5064 60.8087C88.423 60.598 88.3827 60.3725 88.3878 60.1457H92.0604C92.0718 58.4834 91.5152 57.2281 89.8039 57.2281ZM88.3992 59.4382C88.4635 58.7725 88.8497 57.9965 89.7849 57.9965C90.6027 57.9965 91.0685 58.647 91.0685 59.4382H88.3992Z" fill="#0096D2"/>
<path d="M110.814 61.6254L109.424 57.3499H108.387L110.136 62.1769C110.215 62.3542 110.276 62.539 110.318 62.7285C110.318 62.8274 110.038 64.0028 109.182 64.0028C109.032 64.0011 108.883 63.9728 108.743 63.9191L108.678 64.7065C108.89 64.7511 109.106 64.7741 109.322 64.775C110.583 64.775 110.958 63.6338 111.302 62.6334L113.195 57.3499H112.222L110.814 61.6254Z" fill="#0096D2"/>
<path d="M105.464 57.2282C104.563 57.2282 104.044 57.5819 103.76 58.0574H103.726V54.9116H102.787V62.5193H103.688V61.7966H103.714C103.916 62.0713 104.182 62.292 104.488 62.4392C104.794 62.5865 105.132 62.6558 105.471 62.6411C107.027 62.6411 107.682 61.2602 107.682 59.8414C107.682 58.4226 106.959 57.2282 105.464 57.2282ZM105.244 61.8765C104.18 61.8765 103.73 60.8076 103.73 59.9479C103.73 58.9817 104.233 57.9965 105.244 57.9965C106.255 57.9965 106.687 58.9817 106.664 59.8985C106.694 60.7239 106.266 61.8765 105.244 61.8765Z" fill="#0096D2"/>
<path d="M73.1937 57.3499H72.2433V62.5193H73.1937V57.3499Z" fill="#0096D2"/>
<path d="M84.0299 57.2281C83.6908 57.2139 83.3544 57.2945 83.0582 57.4611C82.7621 57.6277 82.5178 57.8736 82.3526 58.1715H82.3298V57.3499H81.4098V62.5193H82.3639V60.1304C82.3639 58.8714 82.8448 57.9965 83.9239 57.9965C84.753 58.0459 85.0143 58.6393 85.0143 59.8414V62.504H85.9646V59.4344C85.9646 58.0574 85.3702 57.2281 84.0299 57.2281Z" fill="#0096D2"/>
<path d="M78.7632 58.1183H78.7443C78.4603 57.5553 77.9568 57.2281 77.0443 57.2281C75.4919 57.2281 74.7422 58.647 74.7422 59.9784C74.7422 61.3097 75.4692 62.5193 76.942 62.5193C77.2724 62.5303 77.6008 62.4639 77.9011 62.3252C78.2015 62.1866 78.4655 61.9795 78.6724 61.7205H78.6913V62.2264C78.6913 63.3257 78.0931 64.0028 77.0897 64.0028C76.4452 64.0033 75.8105 63.8439 75.242 63.5388L75.136 64.4174C75.7246 64.6505 76.3511 64.7717 76.9837 64.775C78.8352 64.775 79.6341 63.8697 79.6341 62.3063V57.3613H78.7556L78.7632 58.1183ZM77.1844 61.7547C76.2946 61.7547 75.7532 60.8989 75.7532 59.9289C75.7532 59.0426 76.2227 57.9965 77.1844 57.9965C78.1461 57.9965 78.6989 58.9209 78.6989 59.9936C78.6913 60.9559 78.0741 61.7547 77.1844 61.7547Z" fill="#0096D2"/>
<path d="M73.258 55.1094H72.1865V56.1897H73.258V55.1094Z" fill="#0096D2"/>
<path d="M119.889 57.2282C119.549 57.2151 119.212 57.2962 118.915 57.4626C118.618 57.629 118.372 57.8742 118.204 58.1716H118.185V57.3499H117.269V62.5193H118.212V60.1305C118.212 58.8714 118.704 57.9966 119.779 57.9966C120.605 58.046 120.874 58.6394 120.874 59.8414V62.5041H121.828V59.4344C121.828 58.0574 121.226 57.2282 119.889 57.2282Z" fill="#0096D2"/>
<path d="M68.5897 58.628C68.5897 58.1982 69.0213 57.9965 69.5021 57.9965C69.8485 58.0202 70.1868 58.112 70.4979 58.2666L70.5812 57.426C70.2012 57.2996 69.804 57.2329 69.4037 57.2281C68.3814 57.2281 67.5825 57.7417 67.5825 58.8182C67.5825 60.2713 69.8164 60.1838 69.8164 61.1347C69.8164 61.6901 69.2787 61.8955 68.8471 61.8955C68.4256 61.8695 68.0171 61.7388 67.6582 61.5151L67.609 62.3634C68.0519 62.5736 68.5397 62.6703 69.0289 62.6448C69.9413 62.6448 70.8197 62.1389 70.8197 61.032C70.8197 59.3735 68.5897 59.6817 68.5897 58.628Z" fill="#0096D2"/>
<path d="M29.0462 57.2282C28.7187 57.2134 28.3931 57.2855 28.1021 57.4371C27.811 57.5886 27.5647 57.8143 27.3879 58.0916H27.3651V54.9116H26.4186V62.5193H27.3651V60.1305C27.3651 58.8714 27.8498 57.9965 28.9364 57.9965C29.7618 58.046 30.0231 58.6394 30.0231 59.8414V62.5041H30.9734V59.4344C30.9734 58.0574 30.3752 57.2282 29.0462 57.2282Z" fill="#0096D2"/>
<path d="M44.07 58.1525H44.0511V57.3499H43.1651V62.5193H44.1117V60.1686C44.1117 58.8714 44.6644 58.0574 45.5088 58.0574C45.6901 58.0519 45.8706 58.0843 46.0388 58.1525V57.2966C45.8326 57.2499 45.6217 57.2269 45.4103 57.2281C45.1245 57.2456 44.8488 57.3408 44.6127 57.5037C44.3765 57.6665 44.189 57.8908 44.07 58.1525Z" fill="#0096D2"/>
<path d="M137.048 59.7387C137.048 60.994 136.556 61.8765 135.473 61.8765C134.652 61.827 134.391 61.2336 134.391 60.0278V57.3651H133.425V60.4386C133.425 61.827 134.023 62.6562 135.352 62.6562C135.693 62.6712 136.03 62.5915 136.328 62.4256C136.626 62.2598 136.873 62.0145 137.041 61.7167H137.06V62.5345H137.98V57.3651H137.033L137.048 59.7387Z" fill="#0096D2"/>
<path d="M35.0436 61.8765C33.8207 61.8765 33.3247 60.857 33.3247 59.9403C33.3247 58.9475 33.9229 57.9965 34.983 57.9965C35.3382 58.0014 35.6886 58.079 36.0129 58.2248L36.0924 57.426C35.7276 57.2963 35.3435 57.2294 34.9565 57.2281C33.3815 57.2281 32.3327 58.3693 32.3327 59.9403C32.3198 60.293 32.3784 60.6446 32.5049 60.9738C32.6314 61.3031 32.8231 61.603 33.0685 61.8556C33.3138 62.1081 33.6077 62.308 33.9323 62.443C34.2568 62.578 34.6053 62.6454 34.9565 62.6411C35.3655 62.6561 35.7731 62.5849 36.153 62.4318L36.0735 61.5798C35.7638 61.7717 35.4075 61.8743 35.0436 61.8765Z" fill="#0096D2"/>
<path d="M9.91439 57.2281C8.45291 57.2281 7.49878 58.316 7.49878 59.8414C7.49878 61.5303 8.33932 62.6411 10.1681 62.6411C10.7279 62.6475 11.2828 62.5347 11.7961 62.3101V61.3554C11.3242 61.6763 10.7717 61.8569 10.2021 61.8765C9.97735 61.8771 9.75471 61.8324 9.54734 61.7452C9.33997 61.658 9.15207 61.53 8.99471 61.3687C8.83735 61.2074 8.7137 61.0161 8.63106 60.8061C8.54841 60.596 8.50843 60.3715 8.51349 60.1457H12.1899C12.1899 58.4834 11.6296 57.2281 9.91439 57.2281ZM8.51349 59.4382C8.58542 58.7725 8.96405 57.9965 9.89546 57.9965C10.7095 57.9965 11.1752 58.647 11.1752 59.4382H8.51349Z" fill="#0096D2"/>
<path d="M4.92792 58.4035H1.54303V55.4442H0.535889V62.5193H1.54303V59.2975H4.92792V62.5193H5.93505V55.4442H4.92792V58.4035Z" fill="#0096D2"/>
<path d="M145.92 57.2281C144.466 57.2281 143.512 58.316 143.512 59.8414C143.512 61.5303 144.345 62.6411 146.162 62.6411C146.723 62.6469 147.279 62.5342 147.794 62.3101V61.3554C147.322 61.6745 146.772 61.855 146.204 61.8765C145.978 61.8776 145.755 61.8333 145.548 61.7463C145.34 61.6593 145.151 61.5314 144.994 61.37C144.836 61.2087 144.712 61.0172 144.629 60.8069C144.546 60.5967 144.506 60.3718 144.511 60.1457H148.191C148.191 58.4834 147.631 57.2281 145.92 57.2281ZM144.523 59.4382C144.591 58.7725 144.977 57.9965 145.901 57.9965C146.719 57.9965 147.177 58.647 147.177 59.4382H144.523Z" fill="#0096D2"/>
<path d="M20.4515 54.9116H19.5049V62.5193H20.4515V54.9116Z" fill="#0096D2"/>
<path d="M17.6231 59.3659C17.6231 57.9547 17.0249 57.2281 15.5445 57.2281C14.9464 57.2305 14.3607 57.399 13.8521 57.7151L13.9013 58.5215C14.3329 58.1801 14.8665 57.9951 15.4158 57.9965C16.3623 57.9965 16.6917 58.453 16.6917 59.3431C16.3131 59.3431 16.0519 59.3431 15.677 59.3431C14.7002 59.3431 13.2803 59.7463 13.2803 61.0472C13.2803 62.1884 14.0679 62.6601 15.1735 62.6601C15.4836 62.6704 15.7916 62.6041 16.0702 62.4668C16.3488 62.3295 16.5896 62.1254 16.7712 61.8727H16.7977V62.5384H17.6799C17.6498 62.2032 17.6372 61.8668 17.6421 61.5303L17.6231 59.3659ZM16.6728 60.5071C16.682 60.6954 16.6505 60.8836 16.5806 61.0586C16.5106 61.2336 16.4039 61.3914 16.2676 61.5211C16.1313 61.6508 15.9687 61.7494 15.791 61.81C15.6132 61.8707 15.4245 61.8921 15.2378 61.8727C14.9986 61.8873 14.7632 61.8064 14.5831 61.6475C14.403 61.4886 14.2927 61.2647 14.2761 61.0244C14.2761 60.1115 15.5445 60.0354 16.0594 60.0354C16.2639 60.0354 16.4683 60.0544 16.6728 60.0544V60.5071Z" fill="#0096D2"/>
<path d="M41.3856 59.3659C41.3856 57.9547 40.7949 57.2282 39.3221 57.2282C38.7225 57.2277 38.1348 57.3965 37.6259 57.7151L37.6713 58.5215C38.1026 58.1796 38.6364 57.9945 39.1858 57.9965C40.1361 57.9965 40.4617 58.453 40.4617 59.3431C40.0831 59.3431 39.8181 59.3431 39.447 59.3431C38.4702 59.3431 37.0579 59.7463 37.0579 61.0472C37.0579 62.1884 37.8152 62.6601 38.951 62.6601C39.2612 62.6704 39.5692 62.6041 39.8478 62.4668C40.1264 62.3295 40.3671 62.1254 40.5488 61.8727V62.5384H41.4197C41.3853 62.2035 41.3714 61.8669 41.378 61.5303L41.3856 59.3659ZM40.4428 60.5071C40.4514 60.6956 40.4195 60.8838 40.3491 61.0588C40.2787 61.2339 40.1716 61.3916 40.035 61.5212C39.8984 61.6508 39.7356 61.7493 39.5577 61.81C39.3798 61.8707 39.1909 61.892 39.004 61.8727C38.7654 61.8863 38.5311 61.8049 38.3518 61.6461C38.1725 61.4873 38.0627 61.264 38.0461 61.0244C38.0461 60.1115 39.3221 60.0354 39.837 60.0354C40.0377 60.0354 40.2384 60.0544 40.4428 60.0544V60.5071Z" fill="#0096D2"/>
<path d="M140.672 58.1525H140.653V57.3499H139.763V62.5193H140.71V60.1686C140.71 58.8715 141.263 58.0574 142.118 58.0574C142.299 58.0542 142.479 58.0865 142.648 58.1525V57.2966C142.439 57.2509 142.226 57.2279 142.012 57.2282C141.726 57.2431 141.449 57.3374 141.212 57.5005C140.976 57.6637 140.789 57.8893 140.672 58.1525Z" fill="#0096D2"/>
<path d="M23.2495 17.7632H3.01968L0.270874 25.3519L20.4666 25.3633L23.2495 17.7632Z" fill="#00915A"/>
</g>
<defs>
<clipPath id="clip0_32_432">
<rect width="148" height="63.8286" fill="white" transform="translate(0.270874 0.94635)"/>
</clipPath>
</defs>
</svg>
