<svg width="40" height="40" viewBox="0 0 40 40" fill="none" xmlns="http://www.w3.org/2000/svg">
<g clip-path="url(#clip0_39_502)">
<path d="M19.5201 11.96C19.0885 11.958 18.666 12.0842 18.3062 12.3225C17.9464 12.5609 17.6654 12.9006 17.4989 13.2987C17.3324 13.6969 17.2878 14.1356 17.3708 14.5591C17.4537 14.9826 17.6605 15.372 17.965 15.6779C18.2695 15.9838 18.6579 16.1924 19.0811 16.2774C19.5042 16.3623 19.9431 16.3196 20.342 16.1549C20.7409 15.9902 21.082 15.7109 21.322 15.3522C21.5619 14.9935 21.6901 14.5716 21.6901 14.14C21.6901 13.5636 21.4618 13.0106 21.0551 12.6021C20.6484 12.1935 20.0965 11.9626 19.5201 11.96Z" fill="white"/>
<path d="M19.53 2.56221e-06C15.6653 2.56221e-06 11.8875 1.14601 8.67414 3.29309C5.4608 5.44018 2.95633 8.49191 1.47739 12.0624C-0.00154328 15.6328 -0.388501 19.5617 0.365455 23.3521C1.11941 27.1424 2.98039 30.6241 5.71311 33.3568C8.44583 36.0895 11.9275 37.9505 15.7179 38.7045C19.5083 39.4584 23.4371 39.0715 27.0076 37.5925C30.5781 36.1136 33.6298 33.6091 35.7769 30.3958C37.924 27.1824 39.07 23.4046 39.07 19.5399C39.0713 16.9735 38.5668 14.4321 37.5853 12.0608C36.6038 9.6895 35.1645 7.53494 33.3498 5.72022C31.5351 3.9055 29.3805 2.46613 27.0092 1.48462C24.6379 0.50311 22.0964 -0.00131186 19.53 2.56221e-06ZM25.53 20.24C24.76 21.62 23.66 22.73 22.94 24.12C22.1396 25.7118 21.5224 27.3891 21.1 29.12C20.55 31.36 20.15 32.52 19.53 32.52C18.91 32.52 18.53 31.36 17.96 29.12C17.5455 27.3538 16.9175 25.6444 16.09 24.0299C15.22 22.3799 13.81 21.09 13.03 19.39C11.86 16.83 11.16 13.39 12.34 10.74C13.72 7.59999 16.47 6.46997 19.53 6.46997C22.59 6.46997 25.33 7.59999 26.72 10.74C28.11 13.88 27.09 17.46 25.52 20.24H25.53Z" fill="white"/>
</g>
<defs>
<clipPath id="clip0_39_502">
<rect width="39.07" height="39.07" fill="white"/>
</clipPath>
</defs>
</svg>
