<svg width="207" height="208" viewBox="0 0 207 208" fill="none" xmlns="http://www.w3.org/2000/svg">
<g clip-path="url(#clip0_32_3)">
<path d="M7.77545 0.976807H0.66748V8.11532H7.77545V0.976807Z" fill="#EA0029"/>
<path d="M14.8834 0.976807H7.77539V8.11532H14.8834V0.976807Z" fill="#EA0029"/>
<path d="M21.9913 0.976807H14.8833V8.11532H21.9913V0.976807Z" fill="#EA0029"/>
<path d="M29.0992 0.976807H21.9912V8.11532H29.0992V0.976807Z" fill="#EA0029"/>
<path d="M36.2076 0.976807H29.0996V8.11532H36.2076V0.976807Z" fill="#EA0029"/>
<path d="M43.3155 0.976807H36.2075V8.11532H43.3155V0.976807Z" fill="#EA0029"/>
<path d="M50.4234 0.976807H43.3154V8.11532H50.4234V0.976807Z" fill="#EA0029"/>
<path d="M64.6392 0.976807H57.5312V8.11532H64.6392V0.976807Z" fill="#EA0029"/>
<path d="M71.7471 0.976807H64.6392V8.11532H71.7471V0.976807Z" fill="#EA0029"/>
<path d="M100.179 0.976807H93.0713V8.11532H100.179V0.976807Z" fill="#EA0029"/>
<path d="M121.503 0.976807H114.395V8.11532H121.503V0.976807Z" fill="#EA0029"/>
<path d="M135.719 0.976807H128.611V8.11532H135.719V0.976807Z" fill="#EA0029"/>
<path d="M142.827 0.976807H135.719V8.11532H142.827V0.976807Z" fill="#EA0029"/>
<path d="M149.935 0.976807H142.827V8.11532H149.935V0.976807Z" fill="#EA0029"/>
<path d="M164.151 0.976807H157.043V8.11532H164.151V0.976807Z" fill="#EA0029"/>
<path d="M171.259 0.976807H164.151V8.11532H171.259V0.976807Z" fill="#EA0029"/>
<path d="M178.367 0.976807H171.259V8.11532H178.367V0.976807Z" fill="#EA0029"/>
<path d="M185.475 0.976807H178.367V8.11532H185.475V0.976807Z" fill="#EA0029"/>
<path d="M192.583 0.976807H185.475V8.11532H192.583V0.976807Z" fill="#EA0029"/>
<path d="M199.69 0.976807H192.583V8.11532H199.69V0.976807Z" fill="#EA0029"/>
<path d="M206.799 0.976807H199.691V8.11532H206.799V0.976807Z" fill="#EA0029"/>
<path d="M7.77545 8.11523H0.66748V15.2537H7.77545V8.11523Z" fill="#EA0029"/>
<path d="M50.4234 8.11523H43.3154V15.2537H50.4234V8.11523Z" fill="#EA0029"/>
<path d="M100.179 8.11523H93.0713V15.2537H100.179V8.11523Z" fill="#EA0029"/>
<path d="M149.935 8.11523H142.827V15.2537H149.935V8.11523Z" fill="#EA0029"/>
<path d="M164.151 8.11523H157.043V15.2537H164.151V8.11523Z" fill="#EA0029"/>
<path d="M206.799 8.11523H199.691V15.2537H206.799V8.11523Z" fill="#EA0029"/>
<path d="M7.77545 15.2539H0.66748V22.3924H7.77545V15.2539Z" fill="#EA0029"/>
<path d="M21.9913 15.2539H14.8833V22.3924H21.9913V15.2539Z" fill="#EA0029"/>
<path d="M29.0992 15.2539H21.9912V22.3924H29.0992V15.2539Z" fill="#EA0029"/>
<path d="M36.2076 15.2539H29.0996V22.3924H36.2076V15.2539Z" fill="#EA0029"/>
<path d="M50.4234 15.2539H43.3154V22.3924H50.4234V15.2539Z" fill="#EA0029"/>
<path d="M64.6392 15.2539H57.5312V22.3924H64.6392V15.2539Z" fill="#EA0029"/>
<path d="M85.963 15.2539H78.855V22.3924H85.963V15.2539Z" fill="#EA0029"/>
<path d="M93.0709 15.2539H85.9629V22.3924H93.0709V15.2539Z" fill="#EA0029"/>
<path d="M100.179 15.2539H93.0713V22.3924H100.179V15.2539Z" fill="#EA0029"/>
<path d="M107.287 15.2539H100.179V22.3924H107.287V15.2539Z" fill="#EA0029"/>
<path d="M114.395 15.2539H107.287V22.3924H114.395V15.2539Z" fill="#EA0029"/>
<path d="M135.719 15.2539H128.611V22.3924H135.719V15.2539Z" fill="#EA0029"/>
<path d="M149.935 15.2539H142.827V22.3924H149.935V15.2539Z" fill="#EA0029"/>
<path d="M164.151 15.2539H157.043V22.3924H164.151V15.2539Z" fill="#EA0029"/>
<path d="M178.367 15.2539H171.259V22.3924H178.367V15.2539Z" fill="#EA0029"/>
<path d="M185.475 15.2539H178.367V22.3924H185.475V15.2539Z" fill="#EA0029"/>
<path d="M192.583 15.2539H185.475V22.3924H192.583V15.2539Z" fill="#EA0029"/>
<path d="M206.799 15.2539H199.691V22.3924H206.799V15.2539Z" fill="#EA0029"/>
<path d="M7.77545 22.3923H0.66748V29.5308H7.77545V22.3923Z" fill="#EA0029"/>
<path d="M21.9913 22.3923H14.8833V29.5308H21.9913V22.3923Z" fill="#EA0029"/>
<path d="M29.0992 22.3923H21.9912V29.5308H29.0992V22.3923Z" fill="#EA0029"/>
<path d="M36.2076 22.3923H29.0996V29.5308H36.2076V22.3923Z" fill="#EA0029"/>
<path d="M50.4234 22.3923H43.3154V29.5308H50.4234V22.3923Z" fill="#EA0029"/>
<path d="M64.6392 22.3923H57.5312V29.5308H64.6392V22.3923Z" fill="#EA0029"/>
<path d="M71.7471 22.3923H64.6392V29.5308H71.7471V22.3923Z" fill="#EA0029"/>
<path d="M85.963 22.3923H78.855V29.5308H85.963V22.3923Z" fill="#EA0029"/>
<path d="M107.287 22.3923H100.179V29.5308H107.287V22.3923Z" fill="#EA0029"/>
<path d="M128.611 22.3923H121.503V29.5308H128.611V22.3923Z" fill="#EA0029"/>
<path d="M142.827 22.3923H135.719V29.5308H142.827V22.3923Z" fill="#EA0029"/>
<path d="M164.151 22.3923H157.043V29.5308H164.151V22.3923Z" fill="#EA0029"/>
<path d="M178.367 22.3923H171.259V29.5308H178.367V22.3923Z" fill="#EA0029"/>
<path d="M185.475 22.3923H178.367V29.5308H185.475V22.3923Z" fill="#EA0029"/>
<path d="M192.583 22.3923H185.475V29.5308H192.583V22.3923Z" fill="#EA0029"/>
<path d="M206.799 22.3923H199.691V29.5308H206.799V22.3923Z" fill="#EA0029"/>
<path d="M7.77545 29.5308H0.66748V36.6693H7.77545V29.5308Z" fill="#EA0029"/>
<path d="M21.9913 29.5308H14.8833V36.6693H21.9913V29.5308Z" fill="#EA0029"/>
<path d="M29.0992 29.5308H21.9912V36.6693H29.0992V29.5308Z" fill="#EA0029"/>
<path d="M36.2076 29.5308H29.0996V36.6693H36.2076V29.5308Z" fill="#EA0029"/>
<path d="M50.4234 29.5308H43.3154V36.6693H50.4234V29.5308Z" fill="#EA0029"/>
<path d="M64.6392 29.5308H57.5312V36.6693H64.6392V29.5308Z" fill="#EA0029"/>
<path d="M71.7471 29.5308H64.6392V36.6693H71.7471V29.5308Z" fill="#EA0029"/>
<path d="M78.855 29.5308H71.7471V36.6693H78.855V29.5308Z" fill="#EA0029"/>
<path d="M85.963 29.5308H78.855V36.6693H85.963V29.5308Z" fill="#EA0029"/>
<path d="M100.179 29.5308H93.0713V36.6693H100.179V29.5308Z" fill="#EA0029"/>
<path d="M114.395 29.5308H107.287V36.6693H114.395V29.5308Z" fill="#EA0029"/>
<path d="M121.503 29.5308H114.395V36.6693H121.503V29.5308Z" fill="#EA0029"/>
<path d="M142.827 29.5308H135.719V36.6693H142.827V29.5308Z" fill="#EA0029"/>
<path d="M149.935 29.5308H142.827V36.6693H149.935V29.5308Z" fill="#EA0029"/>
<path d="M164.151 29.5308H157.043V36.6693H164.151V29.5308Z" fill="#EA0029"/>
<path d="M178.367 29.5308H171.259V36.6693H178.367V29.5308Z" fill="#EA0029"/>
<path d="M185.475 29.5308H178.367V36.6693H185.475V29.5308Z" fill="#EA0029"/>
<path d="M192.583 29.5308H185.475V36.6693H192.583V29.5308Z" fill="#EA0029"/>
<path d="M206.799 29.5308H199.691V36.6693H206.799V29.5308Z" fill="#EA0029"/>
<path d="M7.77545 36.6694H0.66748V43.8079H7.77545V36.6694Z" fill="#EA0029"/>
<path d="M50.4234 36.6694H43.3154V43.8079H50.4234V36.6694Z" fill="#EA0029"/>
<path d="M71.7471 36.6694H64.6392V43.8079H71.7471V36.6694Z" fill="#EA0029"/>
<path d="M93.0709 36.6694H85.9629V43.8079H93.0709V36.6694Z" fill="#EA0029"/>
<path d="M107.287 36.6694H100.179V43.8079H107.287V36.6694Z" fill="#EA0029"/>
<path d="M128.611 36.6694H121.503V43.8079H128.611V36.6694Z" fill="#EA0029"/>
<path d="M135.719 36.6694H128.611V43.8079H135.719V36.6694Z" fill="#EA0029"/>
<path d="M142.827 36.6694H135.719V43.8079H142.827V36.6694Z" fill="#EA0029"/>
<path d="M149.935 36.6694H142.827V43.8079H149.935V36.6694Z" fill="#EA0029"/>
<path d="M164.151 36.6694H157.043V43.8079H164.151V36.6694Z" fill="#EA0029"/>
<path d="M206.799 36.6694H199.691V43.8079H206.799V36.6694Z" fill="#EA0029"/>
<path d="M7.77545 43.8079H0.66748V50.9464H7.77545V43.8079Z" fill="#EA0029"/>
<path d="M14.8834 43.8079H7.77539V50.9464H14.8834V43.8079Z" fill="#EA0029"/>
<path d="M21.9913 43.8079H14.8833V50.9464H21.9913V43.8079Z" fill="#EA0029"/>
<path d="M29.0992 43.8079H21.9912V50.9464H29.0992V43.8079Z" fill="#EA0029"/>
<path d="M36.2076 43.8079H29.0996V50.9464H36.2076V43.8079Z" fill="#EA0029"/>
<path d="M43.3155 43.8079H36.2075V50.9464H43.3155V43.8079Z" fill="#EA0029"/>
<path d="M50.4234 43.8079H43.3154V50.9464H50.4234V43.8079Z" fill="#EA0029"/>
<path d="M64.6392 43.8079H57.5312V50.9464H64.6392V43.8079Z" fill="#EA0029"/>
<path d="M78.855 43.8079H71.7471V50.9464H78.855V43.8079Z" fill="#EA0029"/>
<path d="M93.0709 43.8079H85.9629V50.9464H93.0709V43.8079Z" fill="#EA0029"/>
<path d="M107.287 43.8079H100.179V50.9464H107.287V43.8079Z" fill="#EA0029"/>
<path d="M121.503 43.8079H114.395V50.9464H121.503V43.8079Z" fill="#EA0029"/>
<path d="M135.719 43.8079H128.611V50.9464H135.719V43.8079Z" fill="#EA0029"/>
<path d="M149.935 43.8079H142.827V50.9464H149.935V43.8079Z" fill="#EA0029"/>
<path d="M164.151 43.8079H157.043V50.9464H164.151V43.8079Z" fill="#EA0029"/>
<path d="M171.259 43.8079H164.151V50.9464H171.259V43.8079Z" fill="#EA0029"/>
<path d="M178.367 43.8079H171.259V50.9464H178.367V43.8079Z" fill="#EA0029"/>
<path d="M185.475 43.8079H178.367V50.9464H185.475V43.8079Z" fill="#EA0029"/>
<path d="M192.583 43.8079H185.475V50.9464H192.583V43.8079Z" fill="#EA0029"/>
<path d="M199.69 43.8079H192.583V50.9464H199.69V43.8079Z" fill="#EA0029"/>
<path d="M206.799 43.8079H199.691V50.9464H206.799V43.8079Z" fill="#EA0029"/>
<path d="M71.7471 50.9463H64.6392V58.0848H71.7471V50.9463Z" fill="#EA0029"/>
<path d="M85.963 50.9463H78.855V58.0848H85.963V50.9463Z" fill="#EA0029"/>
<path d="M121.503 50.9463H114.395V58.0848H121.503V50.9463Z" fill="#EA0029"/>
<path d="M128.611 50.9463H121.503V58.0848H128.611V50.9463Z" fill="#EA0029"/>
<path d="M135.719 50.9463H128.611V58.0848H135.719V50.9463Z" fill="#EA0029"/>
<path d="M7.77545 58.085H0.66748V65.2235H7.77545V58.085Z" fill="#EA0029"/>
<path d="M14.8834 58.085H7.77539V65.2235H14.8834V58.085Z" fill="#EA0029"/>
<path d="M21.9913 58.085H14.8833V65.2235H21.9913V58.085Z" fill="#EA0029"/>
<path d="M29.0992 58.085H21.9912V65.2235H29.0992V58.085Z" fill="#EA0029"/>
<path d="M50.4234 58.085H43.3154V65.2235H50.4234V58.085Z" fill="#EA0029"/>
<path d="M64.6392 58.085H57.5312V65.2235H64.6392V58.085Z" fill="#EA0029"/>
<path d="M121.503 58.085H114.395V65.2235H121.503V58.085Z" fill="#EA0029"/>
<path d="M128.611 58.085H121.503V65.2235H128.611V58.085Z" fill="#EA0029"/>
<path d="M135.719 58.085H128.611V65.2235H135.719V58.085Z" fill="#EA0029"/>
<path d="M157.043 58.085H149.935V65.2235H157.043V58.085Z" fill="#EA0029"/>
<path d="M178.367 58.085H171.259V65.2235H178.367V58.085Z" fill="#EA0029"/>
<path d="M185.475 58.085H178.367V65.2235H185.475V58.085Z" fill="#EA0029"/>
<path d="M192.583 58.085H185.475V65.2235H192.583V58.085Z" fill="#EA0029"/>
<path d="M206.799 58.085H199.691V65.2235H206.799V58.085Z" fill="#EA0029"/>
<path d="M21.9913 65.2234H14.8833V72.3619H21.9913V65.2234Z" fill="#EA0029"/>
<path d="M36.2076 65.2234H29.0996V72.3619H36.2076V65.2234Z" fill="#EA0029"/>
<path d="M57.5313 65.2234H50.4233V72.3619H57.5313V65.2234Z" fill="#EA0029"/>
<path d="M71.7471 65.2234H64.6392V72.3619H71.7471V65.2234Z" fill="#EA0029"/>
<path d="M100.179 65.2234H93.0713V72.3619H100.179V65.2234Z" fill="#EA0029"/>
<path d="M121.503 65.2234H114.395V72.3619H121.503V65.2234Z" fill="#EA0029"/>
<path d="M128.611 65.2234H121.503V72.3619H128.611V65.2234Z" fill="#EA0029"/>
<path d="M135.719 65.2234H128.611V72.3619H135.719V65.2234Z" fill="#EA0029"/>
<path d="M142.827 65.2234H135.719V72.3619H142.827V65.2234Z" fill="#EA0029"/>
<path d="M149.935 65.2234H142.827V72.3619H149.935V65.2234Z" fill="#EA0029"/>
<path d="M157.043 65.2234H149.935V72.3619H157.043V65.2234Z" fill="#EA0029"/>
<path d="M164.151 65.2234H157.043V72.3619H164.151V65.2234Z" fill="#EA0029"/>
<path d="M171.259 65.2234H164.151V72.3619H171.259V65.2234Z" fill="#EA0029"/>
<path d="M178.367 65.2234H171.259V72.3619H178.367V65.2234Z" fill="#EA0029"/>
<path d="M206.799 65.2234H199.691V72.3619H206.799V65.2234Z" fill="#EA0029"/>
<path d="M14.8834 72.3618H7.77539V79.5003H14.8834V72.3618Z" fill="#EA0029"/>
<path d="M21.9913 72.3618H14.8833V79.5003H21.9913V72.3618Z" fill="#EA0029"/>
<path d="M50.4234 72.3618H43.3154V79.5003H50.4234V72.3618Z" fill="#EA0029"/>
<path d="M100.179 72.3618H93.0713V79.5003H100.179V72.3618Z" fill="#EA0029"/>
<path d="M121.503 72.3618H114.395V79.5003H121.503V72.3618Z" fill="#EA0029"/>
<path d="M128.611 72.3618H121.503V79.5003H128.611V72.3618Z" fill="#EA0029"/>
<path d="M135.719 72.3618H128.611V79.5003H135.719V72.3618Z" fill="#EA0029"/>
<path d="M164.151 72.3618H157.043V79.5003H164.151V72.3618Z" fill="#EA0029"/>
<path d="M171.259 72.3618H164.151V79.5003H171.259V72.3618Z" fill="#EA0029"/>
<path d="M178.367 72.3618H171.259V79.5003H178.367V72.3618Z" fill="#EA0029"/>
<path d="M192.583 72.3618H185.475V79.5003H192.583V72.3618Z" fill="#EA0029"/>
<path d="M199.69 72.3618H192.583V79.5003H199.69V72.3618Z" fill="#EA0029"/>
<path d="M7.77545 79.5005H0.66748V86.639H7.77545V79.5005Z" fill="#EA0029"/>
<path d="M14.8834 79.5005H7.77539V86.639H14.8834V79.5005Z" fill="#EA0029"/>
<path d="M29.0992 79.5005H21.9912V86.639H29.0992V79.5005Z" fill="#EA0029"/>
<path d="M36.2076 79.5005H29.0996V86.639H36.2076V79.5005Z" fill="#EA0029"/>
<path d="M57.5313 79.5005H50.4233V86.639H57.5313V79.5005Z" fill="#EA0029"/>
<path d="M85.963 79.5005H78.855V86.639H85.963V79.5005Z" fill="#EA0029"/>
<path d="M93.0709 79.5005H85.9629V86.639H93.0709V79.5005Z" fill="#EA0029"/>
<path d="M100.179 79.5005H93.0713V86.639H100.179V79.5005Z" fill="#EA0029"/>
<path d="M107.287 79.5005H100.179V86.639H107.287V79.5005Z" fill="#EA0029"/>
<path d="M114.395 79.5005H107.287V86.639H114.395V79.5005Z" fill="#EA0029"/>
<path d="M121.503 79.5005H114.395V86.639H121.503V79.5005Z" fill="#EA0029"/>
<path d="M135.719 79.5005H128.611V86.639H135.719V79.5005Z" fill="#EA0029"/>
<path d="M142.827 79.5005H135.719V86.639H142.827V79.5005Z" fill="#EA0029"/>
<path d="M157.043 79.5005H149.935V86.639H157.043V79.5005Z" fill="#EA0029"/>
<path d="M164.151 79.5005H157.043V86.639H164.151V79.5005Z" fill="#EA0029"/>
<path d="M171.259 79.5005H164.151V86.639H171.259V79.5005Z" fill="#EA0029"/>
<path d="M178.367 79.5005H171.259V86.639H178.367V79.5005Z" fill="#EA0029"/>
<path d="M206.799 79.5005H199.691V86.639H206.799V79.5005Z" fill="#EA0029"/>
<path d="M14.8834 86.6389H7.77539V93.7774H14.8834V86.6389Z" fill="#EA0029"/>
<path d="M21.9913 86.6389H14.8833V93.7774H21.9913V86.6389Z" fill="#EA0029"/>
<path d="M50.4234 86.6389H43.3154V93.7774H50.4234V86.6389Z" fill="#EA0029"/>
<path d="M57.5313 86.6389H50.4233V93.7774H57.5313V86.6389Z" fill="#EA0029"/>
<path d="M64.6392 86.6389H57.5312V93.7774H64.6392V86.6389Z" fill="#EA0029"/>
<path d="M71.7471 86.6389H64.6392V93.7774H71.7471V86.6389Z" fill="#EA0029"/>
<path d="M85.963 86.6389H78.855V93.7774H85.963V86.6389Z" fill="#EA0029"/>
<path d="M114.395 86.6389H107.287V93.7774H114.395V86.6389Z" fill="#EA0029"/>
<path d="M121.503 86.6389H114.395V93.7774H121.503V86.6389Z" fill="#EA0029"/>
<path d="M128.611 86.6389H121.503V93.7774H128.611V86.6389Z" fill="#EA0029"/>
<path d="M135.719 86.6389H128.611V93.7774H135.719V86.6389Z" fill="#EA0029"/>
<path d="M185.475 86.6389H178.367V93.7774H185.475V86.6389Z" fill="#EA0029"/>
<path d="M192.583 86.6389H185.475V93.7774H192.583V86.6389Z" fill="#EA0029"/>
<path d="M7.77545 93.7776H0.66748V100.916H7.77545V93.7776Z" fill="#EA0029"/>
<path d="M14.8834 93.7776H7.77539V100.916H14.8834V93.7776Z" fill="#EA0029"/>
<path d="M29.0992 93.7776H21.9912V100.916H29.0992V93.7776Z" fill="#EA0029"/>
<path d="M57.5313 93.7776H50.4233V100.916H57.5313V93.7776Z" fill="#EA0029"/>
<path d="M64.6392 93.7776H57.5312V100.916H64.6392V93.7776Z" fill="#EA0029"/>
<path d="M71.7471 93.7776H64.6392V100.916H71.7471V93.7776Z" fill="#EA0029"/>
<path d="M78.855 93.7776H71.7471V100.916H78.855V93.7776Z" fill="#EA0029"/>
<path d="M85.963 93.7776H78.855V100.916H85.963V93.7776Z" fill="#EA0029"/>
<path d="M100.179 93.7776H93.0713V100.916H100.179V93.7776Z" fill="#EA0029"/>
<path d="M107.287 93.7776H100.179V100.916H107.287V93.7776Z" fill="#EA0029"/>
<path d="M114.395 93.7776H107.287V100.916H114.395V93.7776Z" fill="#EA0029"/>
<path d="M121.503 93.7776H114.395V100.916H121.503V93.7776Z" fill="#EA0029"/>
<path d="M142.827 93.7776H135.719V100.916H142.827V93.7776Z" fill="#EA0029"/>
<path d="M164.151 93.7776H157.043V100.916H164.151V93.7776Z" fill="#EA0029"/>
<path d="M171.259 93.7776H164.151V100.916H171.259V93.7776Z" fill="#EA0029"/>
<path d="M192.583 93.7776H185.475V100.916H192.583V93.7776Z" fill="#EA0029"/>
<path d="M199.69 93.7776H192.583V100.916H199.69V93.7776Z" fill="#EA0029"/>
<path d="M206.799 93.7776H199.691V100.916H206.799V93.7776Z" fill="#EA0029"/>
<path d="M7.77545 100.916H0.66748V108.055H7.77545V100.916Z" fill="#EA0029"/>
<path d="M14.8834 100.916H7.77539V108.055H14.8834V100.916Z" fill="#EA0029"/>
<path d="M21.9913 100.916H14.8833V108.055H21.9913V100.916Z" fill="#EA0029"/>
<path d="M29.0992 100.916H21.9912V108.055H29.0992V100.916Z" fill="#EA0029"/>
<path d="M43.3155 100.916H36.2075V108.055H43.3155V100.916Z" fill="#EA0029"/>
<path d="M50.4234 100.916H43.3154V108.055H50.4234V100.916Z" fill="#EA0029"/>
<path d="M71.7471 100.916H64.6392V108.055H71.7471V100.916Z" fill="#EA0029"/>
<path d="M93.0709 100.916H85.9629V108.055H93.0709V100.916Z" fill="#EA0029"/>
<path d="M107.287 100.916H100.179V108.055H107.287V100.916Z" fill="#EA0029"/>
<path d="M128.611 100.916H121.503V108.055H128.611V100.916Z" fill="#EA0029"/>
<path d="M135.719 100.916H128.611V108.055H135.719V100.916Z" fill="#EA0029"/>
<path d="M142.827 100.916H135.719V108.055H142.827V100.916Z" fill="#EA0029"/>
<path d="M157.043 100.916H149.935V108.055H157.043V100.916Z" fill="#EA0029"/>
<path d="M171.259 100.916H164.151V108.055H171.259V100.916Z" fill="#EA0029"/>
<path d="M178.367 100.916H171.259V108.055H178.367V100.916Z" fill="#EA0029"/>
<path d="M192.583 100.916H185.475V108.055H192.583V100.916Z" fill="#EA0029"/>
<path d="M199.69 100.916H192.583V108.055H199.69V100.916Z" fill="#EA0029"/>
<path d="M206.799 100.916H199.691V108.055H206.799V100.916Z" fill="#EA0029"/>
<path d="M29.0992 108.054H21.9912V115.193H29.0992V108.054Z" fill="#EA0029"/>
<path d="M36.2076 108.054H29.0996V115.193H36.2076V108.054Z" fill="#EA0029"/>
<path d="M64.6392 108.054H57.5312V115.193H64.6392V108.054Z" fill="#EA0029"/>
<path d="M71.7471 108.054H64.6392V115.193H71.7471V108.054Z" fill="#EA0029"/>
<path d="M78.855 108.054H71.7471V115.193H78.855V108.054Z" fill="#EA0029"/>
<path d="M93.0709 108.054H85.9629V115.193H93.0709V108.054Z" fill="#EA0029"/>
<path d="M100.179 108.054H93.0713V115.193H100.179V108.054Z" fill="#EA0029"/>
<path d="M114.395 108.054H107.287V115.193H114.395V108.054Z" fill="#EA0029"/>
<path d="M142.827 108.054H135.719V115.193H142.827V108.054Z" fill="#EA0029"/>
<path d="M157.043 108.054H149.935V115.193H157.043V108.054Z" fill="#EA0029"/>
<path d="M164.151 108.054H157.043V115.193H164.151V108.054Z" fill="#EA0029"/>
<path d="M171.259 108.054H164.151V115.193H171.259V108.054Z" fill="#EA0029"/>
<path d="M178.367 108.054H171.259V115.193H178.367V108.054Z" fill="#EA0029"/>
<path d="M199.69 108.054H192.583V115.193H199.69V108.054Z" fill="#EA0029"/>
<path d="M14.8834 115.193H7.77539V122.332H14.8834V115.193Z" fill="#EA0029"/>
<path d="M21.9913 115.193H14.8833V122.332H21.9913V115.193Z" fill="#EA0029"/>
<path d="M29.0992 115.193H21.9912V122.332H29.0992V115.193Z" fill="#EA0029"/>
<path d="M36.2076 115.193H29.0996V122.332H36.2076V115.193Z" fill="#EA0029"/>
<path d="M50.4234 115.193H43.3154V122.332H50.4234V115.193Z" fill="#EA0029"/>
<path d="M57.5313 115.193H50.4233V122.332H57.5313V115.193Z" fill="#EA0029"/>
<path d="M64.6392 115.193H57.5312V122.332H64.6392V115.193Z" fill="#EA0029"/>
<path d="M85.963 115.193H78.855V122.332H85.963V115.193Z" fill="#EA0029"/>
<path d="M114.395 115.193H107.287V122.332H114.395V115.193Z" fill="#EA0029"/>
<path d="M135.719 115.193H128.611V122.332H135.719V115.193Z" fill="#EA0029"/>
<path d="M157.043 115.193H149.935V122.332H157.043V115.193Z" fill="#EA0029"/>
<path d="M178.367 115.193H171.259V122.332H178.367V115.193Z" fill="#EA0029"/>
<path d="M185.475 115.193H178.367V122.332H185.475V115.193Z" fill="#EA0029"/>
<path d="M199.69 115.193H192.583V122.332H199.69V115.193Z" fill="#EA0029"/>
<path d="M14.8834 122.332H7.77539V129.47H14.8834V122.332Z" fill="#EA0029"/>
<path d="M43.3155 122.332H36.2075V129.47H43.3155V122.332Z" fill="#EA0029"/>
<path d="M64.6392 122.332H57.5312V129.47H64.6392V122.332Z" fill="#EA0029"/>
<path d="M71.7471 122.332H64.6392V129.47H71.7471V122.332Z" fill="#EA0029"/>
<path d="M78.855 122.332H71.7471V129.47H78.855V122.332Z" fill="#EA0029"/>
<path d="M93.0709 122.332H85.9629V129.47H93.0709V122.332Z" fill="#EA0029"/>
<path d="M100.179 122.332H93.0713V129.47H100.179V122.332Z" fill="#EA0029"/>
<path d="M114.395 122.332H107.287V129.47H114.395V122.332Z" fill="#EA0029"/>
<path d="M128.611 122.332H121.503V129.47H128.611V122.332Z" fill="#EA0029"/>
<path d="M149.935 122.332H142.827V129.47H149.935V122.332Z" fill="#EA0029"/>
<path d="M157.043 122.332H149.935V129.47H157.043V122.332Z" fill="#EA0029"/>
<path d="M171.259 122.332H164.151V129.47H171.259V122.332Z" fill="#EA0029"/>
<path d="M185.475 122.332H178.367V129.47H185.475V122.332Z" fill="#EA0029"/>
<path d="M192.583 122.332H185.475V129.47H192.583V122.332Z" fill="#EA0029"/>
<path d="M199.69 122.332H192.583V129.47H199.69V122.332Z" fill="#EA0029"/>
<path d="M7.77545 129.47H0.66748V136.608H7.77545V129.47Z" fill="#EA0029"/>
<path d="M29.0992 129.47H21.9912V136.608H29.0992V129.47Z" fill="#EA0029"/>
<path d="M50.4234 129.47H43.3154V136.608H50.4234V129.47Z" fill="#EA0029"/>
<path d="M64.6392 129.47H57.5312V136.608H64.6392V129.47Z" fill="#EA0029"/>
<path d="M71.7471 129.47H64.6392V136.608H71.7471V129.47Z" fill="#EA0029"/>
<path d="M78.855 129.47H71.7471V136.608H78.855V129.47Z" fill="#EA0029"/>
<path d="M85.963 129.47H78.855V136.608H85.963V129.47Z" fill="#EA0029"/>
<path d="M93.0709 129.47H85.9629V136.608H93.0709V129.47Z" fill="#EA0029"/>
<path d="M114.395 129.47H107.287V136.608H114.395V129.47Z" fill="#EA0029"/>
<path d="M135.719 129.47H128.611V136.608H135.719V129.47Z" fill="#EA0029"/>
<path d="M149.935 129.47H142.827V136.608H149.935V129.47Z" fill="#EA0029"/>
<path d="M157.043 129.47H149.935V136.608H157.043V129.47Z" fill="#EA0029"/>
<path d="M171.259 129.47H164.151V136.608H171.259V129.47Z" fill="#EA0029"/>
<path d="M192.583 129.47H185.475V136.608H192.583V129.47Z" fill="#EA0029"/>
<path d="M29.0992 136.609H21.9912V143.747H29.0992V136.609Z" fill="#EA0029"/>
<path d="M57.5313 136.609H50.4233V143.747H57.5313V136.609Z" fill="#EA0029"/>
<path d="M71.7471 136.609H64.6392V143.747H71.7471V136.609Z" fill="#EA0029"/>
<path d="M78.855 136.609H71.7471V143.747H78.855V136.609Z" fill="#EA0029"/>
<path d="M93.0709 136.609H85.9629V143.747H93.0709V136.609Z" fill="#EA0029"/>
<path d="M121.503 136.609H114.395V143.747H121.503V136.609Z" fill="#EA0029"/>
<path d="M128.611 136.609H121.503V143.747H128.611V136.609Z" fill="#EA0029"/>
<path d="M135.719 136.609H128.611V143.747H135.719V136.609Z" fill="#EA0029"/>
<path d="M142.827 136.609H135.719V143.747H142.827V136.609Z" fill="#EA0029"/>
<path d="M157.043 136.609H149.935V143.747H157.043V136.609Z" fill="#EA0029"/>
<path d="M164.151 136.609H157.043V143.747H164.151V136.609Z" fill="#EA0029"/>
<path d="M192.583 136.609H185.475V143.747H192.583V136.609Z" fill="#EA0029"/>
<path d="M14.8834 143.747H7.77539V150.886H14.8834V143.747Z" fill="#EA0029"/>
<path d="M36.2076 143.747H29.0996V150.886H36.2076V143.747Z" fill="#EA0029"/>
<path d="M50.4234 143.747H43.3154V150.886H50.4234V143.747Z" fill="#EA0029"/>
<path d="M78.855 143.747H71.7471V150.886H78.855V143.747Z" fill="#EA0029"/>
<path d="M85.963 143.747H78.855V150.886H85.963V143.747Z" fill="#EA0029"/>
<path d="M93.0709 143.747H85.9629V150.886H93.0709V143.747Z" fill="#EA0029"/>
<path d="M100.179 143.747H93.0713V150.886H100.179V143.747Z" fill="#EA0029"/>
<path d="M121.503 143.747H114.395V150.886H121.503V143.747Z" fill="#EA0029"/>
<path d="M128.611 143.747H121.503V150.886H128.611V143.747Z" fill="#EA0029"/>
<path d="M135.719 143.747H128.611V150.886H135.719V143.747Z" fill="#EA0029"/>
<path d="M142.827 143.747H135.719V150.886H142.827V143.747Z" fill="#EA0029"/>
<path d="M149.935 143.747H142.827V150.886H149.935V143.747Z" fill="#EA0029"/>
<path d="M157.043 143.747H149.935V150.886H157.043V143.747Z" fill="#EA0029"/>
<path d="M164.151 143.747H157.043V150.886H164.151V143.747Z" fill="#EA0029"/>
<path d="M171.259 143.747H164.151V150.886H171.259V143.747Z" fill="#EA0029"/>
<path d="M178.367 143.747H171.259V150.886H178.367V143.747Z" fill="#EA0029"/>
<path d="M185.475 143.747H178.367V150.886H185.475V143.747Z" fill="#EA0029"/>
<path d="M192.583 143.747H185.475V150.886H192.583V143.747Z" fill="#EA0029"/>
<path d="M64.6392 150.885H57.5312V158.024H64.6392V150.885Z" fill="#EA0029"/>
<path d="M93.0709 150.885H85.9629V158.024H93.0709V150.885Z" fill="#EA0029"/>
<path d="M100.179 150.885H93.0713V158.024H100.179V150.885Z" fill="#EA0029"/>
<path d="M107.287 150.885H100.179V158.024H107.287V150.885Z" fill="#EA0029"/>
<path d="M121.503 150.885H114.395V158.024H121.503V150.885Z" fill="#EA0029"/>
<path d="M135.719 150.885H128.611V158.024H135.719V150.885Z" fill="#EA0029"/>
<path d="M149.935 150.885H142.827V158.024H149.935V150.885Z" fill="#EA0029"/>
<path d="M178.367 150.885H171.259V158.024H178.367V150.885Z" fill="#EA0029"/>
<path d="M185.475 150.885H178.367V158.024H185.475V150.885Z" fill="#EA0029"/>
<path d="M192.583 150.885H185.475V158.024H192.583V150.885Z" fill="#EA0029"/>
<path d="M199.69 150.885H192.583V158.024H199.69V150.885Z" fill="#EA0029"/>
<path d="M206.799 150.885H199.691V158.024H206.799V150.885Z" fill="#EA0029"/>
<path d="M7.77545 158.024H0.66748V165.163H7.77545V158.024Z" fill="#EA0029"/>
<path d="M14.8834 158.024H7.77539V165.163H14.8834V158.024Z" fill="#EA0029"/>
<path d="M21.9913 158.024H14.8833V165.163H21.9913V158.024Z" fill="#EA0029"/>
<path d="M29.0992 158.024H21.9912V165.163H29.0992V158.024Z" fill="#EA0029"/>
<path d="M36.2076 158.024H29.0996V165.163H36.2076V158.024Z" fill="#EA0029"/>
<path d="M43.3155 158.024H36.2075V165.163H43.3155V158.024Z" fill="#EA0029"/>
<path d="M50.4234 158.024H43.3154V165.163H50.4234V158.024Z" fill="#EA0029"/>
<path d="M71.7471 158.024H64.6392V165.163H71.7471V158.024Z" fill="#EA0029"/>
<path d="M85.963 158.024H78.855V165.163H85.963V158.024Z" fill="#EA0029"/>
<path d="M93.0709 158.024H85.9629V165.163H93.0709V158.024Z" fill="#EA0029"/>
<path d="M100.179 158.024H93.0713V165.163H100.179V158.024Z" fill="#EA0029"/>
<path d="M121.503 158.024H114.395V165.163H121.503V158.024Z" fill="#EA0029"/>
<path d="M142.827 158.024H135.719V165.163H142.827V158.024Z" fill="#EA0029"/>
<path d="M149.935 158.024H142.827V165.163H149.935V158.024Z" fill="#EA0029"/>
<path d="M164.151 158.024H157.043V165.163H164.151V158.024Z" fill="#EA0029"/>
<path d="M178.367 158.024H171.259V165.163H178.367V158.024Z" fill="#EA0029"/>
<path d="M185.475 158.024H178.367V165.163H185.475V158.024Z" fill="#EA0029"/>
<path d="M199.69 158.024H192.583V165.163H199.69V158.024Z" fill="#EA0029"/>
<path d="M7.77545 165.163H0.66748V172.301H7.77545V165.163Z" fill="#EA0029"/>
<path d="M50.4234 165.163H43.3154V172.301H50.4234V165.163Z" fill="#EA0029"/>
<path d="M71.7471 165.163H64.6392V172.301H71.7471V165.163Z" fill="#EA0029"/>
<path d="M114.395 165.163H107.287V172.301H114.395V165.163Z" fill="#EA0029"/>
<path d="M135.719 165.163H128.611V172.301H135.719V165.163Z" fill="#EA0029"/>
<path d="M149.935 165.163H142.827V172.301H149.935V165.163Z" fill="#EA0029"/>
<path d="M178.367 165.163H171.259V172.301H178.367V165.163Z" fill="#EA0029"/>
<path d="M185.475 165.163H178.367V172.301H185.475V165.163Z" fill="#EA0029"/>
<path d="M199.69 165.163H192.583V172.301H199.69V165.163Z" fill="#EA0029"/>
<path d="M7.77545 172.301H0.66748V179.44H7.77545V172.301Z" fill="#EA0029"/>
<path d="M21.9913 172.301H14.8833V179.44H21.9913V172.301Z" fill="#EA0029"/>
<path d="M29.0992 172.301H21.9912V179.44H29.0992V172.301Z" fill="#EA0029"/>
<path d="M36.2076 172.301H29.0996V179.44H36.2076V172.301Z" fill="#EA0029"/>
<path d="M50.4234 172.301H43.3154V179.44H50.4234V172.301Z" fill="#EA0029"/>
<path d="M71.7471 172.301H64.6392V179.44H71.7471V172.301Z" fill="#EA0029"/>
<path d="M78.855 172.301H71.7471V179.44H78.855V172.301Z" fill="#EA0029"/>
<path d="M93.0709 172.301H85.9629V179.44H93.0709V172.301Z" fill="#EA0029"/>
<path d="M107.287 172.301H100.179V179.44H107.287V172.301Z" fill="#EA0029"/>
<path d="M128.611 172.301H121.503V179.44H128.611V172.301Z" fill="#EA0029"/>
<path d="M149.935 172.301H142.827V179.44H149.935V172.301Z" fill="#EA0029"/>
<path d="M157.043 172.301H149.935V179.44H157.043V172.301Z" fill="#EA0029"/>
<path d="M164.151 172.301H157.043V179.44H164.151V172.301Z" fill="#EA0029"/>
<path d="M171.259 172.301H164.151V179.44H171.259V172.301Z" fill="#EA0029"/>
<path d="M178.367 172.301H171.259V179.44H178.367V172.301Z" fill="#EA0029"/>
<path d="M192.583 172.301H185.475V179.44H192.583V172.301Z" fill="#EA0029"/>
<path d="M7.77545 179.44H0.66748V186.578H7.77545V179.44Z" fill="#EA0029"/>
<path d="M21.9913 179.44H14.8833V186.578H21.9913V179.44Z" fill="#EA0029"/>
<path d="M29.0992 179.44H21.9912V186.578H29.0992V179.44Z" fill="#EA0029"/>
<path d="M36.2076 179.44H29.0996V186.578H36.2076V179.44Z" fill="#EA0029"/>
<path d="M50.4234 179.44H43.3154V186.578H50.4234V179.44Z" fill="#EA0029"/>
<path d="M64.6392 179.44H57.5312V186.578H64.6392V179.44Z" fill="#EA0029"/>
<path d="M71.7471 179.44H64.6392V186.578H71.7471V179.44Z" fill="#EA0029"/>
<path d="M78.855 179.44H71.7471V186.578H78.855V179.44Z" fill="#EA0029"/>
<path d="M85.963 179.44H78.855V186.578H85.963V179.44Z" fill="#EA0029"/>
<path d="M93.0709 179.44H85.9629V186.578H93.0709V179.44Z" fill="#EA0029"/>
<path d="M107.287 179.44H100.179V186.578H107.287V179.44Z" fill="#EA0029"/>
<path d="M114.395 179.44H107.287V186.578H114.395V179.44Z" fill="#EA0029"/>
<path d="M121.503 179.44H114.395V186.578H121.503V179.44Z" fill="#EA0029"/>
<path d="M128.611 179.44H121.503V186.578H128.611V179.44Z" fill="#EA0029"/>
<path d="M142.827 179.44H135.719V186.578H142.827V179.44Z" fill="#EA0029"/>
<path d="M149.935 179.44H142.827V186.578H149.935V179.44Z" fill="#EA0029"/>
<path d="M157.043 179.44H149.935V186.578H157.043V179.44Z" fill="#EA0029"/>
<path d="M178.367 179.44H171.259V186.578H178.367V179.44Z" fill="#EA0029"/>
<path d="M185.475 179.44H178.367V186.578H185.475V179.44Z" fill="#EA0029"/>
<path d="M206.799 179.44H199.691V186.578H206.799V179.44Z" fill="#EA0029"/>
<path d="M7.77545 186.578H0.66748V193.717H7.77545V186.578Z" fill="#EA0029"/>
<path d="M21.9913 186.578H14.8833V193.717H21.9913V186.578Z" fill="#EA0029"/>
<path d="M29.0992 186.578H21.9912V193.717H29.0992V186.578Z" fill="#EA0029"/>
<path d="M36.2076 186.578H29.0996V193.717H36.2076V186.578Z" fill="#EA0029"/>
<path d="M50.4234 186.578H43.3154V193.717H50.4234V186.578Z" fill="#EA0029"/>
<path d="M64.6392 186.578H57.5312V193.717H64.6392V186.578Z" fill="#EA0029"/>
<path d="M85.963 186.578H78.855V193.717H85.963V186.578Z" fill="#EA0029"/>
<path d="M100.179 186.578H93.0713V193.717H100.179V186.578Z" fill="#EA0029"/>
<path d="M121.503 186.578H114.395V193.717H121.503V186.578Z" fill="#EA0029"/>
<path d="M142.827 186.578H135.719V193.717H142.827V186.578Z" fill="#EA0029"/>
<path d="M157.043 186.578H149.935V193.717H157.043V186.578Z" fill="#EA0029"/>
<path d="M171.259 186.578H164.151V193.717H171.259V186.578Z" fill="#EA0029"/>
<path d="M192.583 186.578H185.475V193.717H192.583V186.578Z" fill="#EA0029"/>
<path d="M206.799 186.578H199.691V193.717H206.799V186.578Z" fill="#EA0029"/>
<path d="M7.77545 193.717H0.66748V200.855H7.77545V193.717Z" fill="#EA0029"/>
<path d="M50.4234 193.717H43.3154V200.855H50.4234V193.717Z" fill="#EA0029"/>
<path d="M64.6392 193.717H57.5312V200.855H64.6392V193.717Z" fill="#EA0029"/>
<path d="M71.7471 193.717H64.6392V200.855H71.7471V193.717Z" fill="#EA0029"/>
<path d="M78.855 193.717H71.7471V200.855H78.855V193.717Z" fill="#EA0029"/>
<path d="M85.963 193.717H78.855V200.855H85.963V193.717Z" fill="#EA0029"/>
<path d="M107.287 193.717H100.179V200.855H107.287V193.717Z" fill="#EA0029"/>
<path d="M149.935 193.717H142.827V200.855H149.935V193.717Z" fill="#EA0029"/>
<path d="M171.259 193.717H164.151V200.855H171.259V193.717Z" fill="#EA0029"/>
<path d="M185.475 193.717H178.367V200.855H185.475V193.717Z" fill="#EA0029"/>
<path d="M199.69 193.717H192.583V200.855H199.69V193.717Z" fill="#EA0029"/>
<path d="M7.77545 200.855H0.66748V207.994H7.77545V200.855Z" fill="#EA0029"/>
<path d="M14.8834 200.855H7.77539V207.994H14.8834V200.855Z" fill="#EA0029"/>
<path d="M21.9913 200.855H14.8833V207.994H21.9913V200.855Z" fill="#EA0029"/>
<path d="M29.0992 200.855H21.9912V207.994H29.0992V200.855Z" fill="#EA0029"/>
<path d="M36.2076 200.855H29.0996V207.994H36.2076V200.855Z" fill="#EA0029"/>
<path d="M43.3155 200.855H36.2075V207.994H43.3155V200.855Z" fill="#EA0029"/>
<path d="M50.4234 200.855H43.3154V207.994H50.4234V200.855Z" fill="#EA0029"/>
<path d="M64.6392 200.855H57.5312V207.994H64.6392V200.855Z" fill="#EA0029"/>
<path d="M93.0709 200.855H85.9629V207.994H93.0709V200.855Z" fill="#EA0029"/>
<path d="M107.287 200.855H100.179V207.994H107.287V200.855Z" fill="#EA0029"/>
<path d="M121.503 200.855H114.395V207.994H121.503V200.855Z" fill="#EA0029"/>
<path d="M135.719 200.855H128.611V207.994H135.719V200.855Z" fill="#EA0029"/>
<path d="M142.827 200.855H135.719V207.994H142.827V200.855Z" fill="#EA0029"/>
<path d="M149.935 200.855H142.827V207.994H149.935V200.855Z" fill="#EA0029"/>
<path d="M185.475 200.855H178.367V207.994H185.475V200.855Z" fill="#EA0029"/>
<path d="M199.69 200.855H192.583V207.994H199.69V200.855Z" fill="#EA0029"/>
</g>
<defs>
<clipPath id="clip0_32_3">
<rect width="206.131" height="207.017" fill="white" transform="translate(0.66748 0.976807)"/>
</clipPath>
</defs>
</svg>
