<svg width="802" height="223" viewBox="0 0 802 223" fill="none" xmlns="http://www.w3.org/2000/svg">
<g clip-path="url(#clip0_7_44)">
<path d="M705.9 221.41L704.42 212.53C714.35 209.32 721.57 205.73 726.02 201.76C730.47 197.79 732.84 194.23 733.11 191.09C733.295 190.088 733.118 189.053 732.61 188.17C732.28 187.75 731.1 187.17 729.09 186.5C725.09 185.027 722.44 183.423 721.14 181.69C718.907 178.55 717.993 174.646 718.4 169.98C718.75 165.221 720.869 160.765 724.34 157.49C726.034 155.837 728.04 154.538 730.241 153.667C732.442 152.797 734.794 152.373 737.16 152.42C739.559 152.364 741.934 152.905 744.072 153.995C746.21 155.084 748.044 156.687 749.41 158.66C752.49 162.84 753.737 168.31 753.15 175.07C752.15 186.403 746.817 196.613 737.15 205.7C729.87 212.553 719.453 217.79 705.9 221.41ZM752.76 221.41L751.27 212.53C761.23 209.323 768.43 205.733 772.87 201.76C777.31 197.787 779.677 194.23 779.97 191.09C780.142 190.089 779.969 189.06 779.48 188.17C779.14 187.75 777.95 187.17 775.94 186.5C771.94 185.027 769.297 183.387 768.01 181.58C765.763 178.52 764.847 174.653 765.26 169.98C765.6 165.218 767.721 160.759 771.2 157.49C772.892 155.837 774.896 154.538 777.095 153.668C779.295 152.797 781.645 152.373 784.01 152.42C786.411 152.37 788.787 152.917 790.925 154.011C793.063 155.106 794.896 156.713 796.26 158.69C799.33 162.87 800.59 168.31 800 175C799.007 186.293 793.757 196.467 784.25 205.52C777.023 212.42 766.527 217.717 752.76 221.41Z" stroke="#EA0029" stroke-width="2.83" stroke-linecap="round" stroke-linejoin="round"/>
</g>
<g clip-path="url(#clip1_7_44)">
<path d="M0 0H703.35V174.88C703.35 177.96 702.743 181.009 701.565 183.854C700.387 186.699 698.659 189.284 696.482 191.462C694.304 193.639 691.719 195.367 688.874 196.545C686.029 197.723 682.979 198.33 679.9 198.33H0V0Z" fill="#1A1A1A"/>
<path d="M216.191 68.5703L217.627 67.2168H218.543L217.066 74.6133H216.191C216.182 73.0911 216.05 71.8971 215.795 71.0312C215.449 69.819 214.888 68.8893 214.113 68.2422C213.348 67.5859 212.409 67.2578 211.297 67.2578C209.911 67.2578 208.594 67.8047 207.346 68.8984C206.097 69.9922 205.067 71.7376 204.256 74.1348C203.572 76.1947 203.23 78.2044 203.23 80.1641C203.23 82.1328 203.723 83.6458 204.707 84.7031C205.691 85.7604 207.013 86.2891 208.672 86.2891C210.112 86.2891 211.42 85.8424 212.596 84.9492C213.771 84.0469 214.724 82.6797 215.453 80.8477L216.328 81.1895C215.59 83.0944 214.651 84.5299 213.512 85.4961C212.017 86.763 210.217 87.3965 208.111 87.3965C205.769 87.3965 203.827 86.6217 202.287 85.0723C200.747 83.5137 199.977 81.5495 199.977 79.1797C199.977 76.9557 200.533 74.791 201.645 72.6855C202.757 70.5801 204.146 68.9896 205.814 67.9141C207.482 66.8294 209.26 66.2871 211.146 66.2871C212.058 66.2871 212.906 66.4603 213.689 66.8066C214.473 67.1439 215.307 67.7318 216.191 68.5703ZM227.416 84.8535C226.869 85.6921 226.236 86.3255 225.516 86.7539C224.796 87.1823 224.085 87.3965 223.383 87.3965C222.025 87.3965 220.876 86.9043 219.938 85.9199C218.999 84.9264 218.529 83.6686 218.529 82.1465C218.529 80.7611 218.894 79.4076 219.623 78.0859C220.361 76.7552 221.305 75.7116 222.453 74.9551C223.602 74.1895 224.718 73.8066 225.803 73.8066C226.678 73.8066 227.448 74.0664 228.113 74.5859C228.788 75.0964 229.243 75.7754 229.48 76.623L230.273 74.2031L232.42 73.957L229.426 84.375C229.344 84.6576 229.303 84.9401 229.303 85.2227C229.303 85.4779 229.353 85.6738 229.453 85.8105C229.562 85.9473 229.69 86.0156 229.836 86.0156C230.109 86.0156 230.419 85.8288 230.766 85.4551C231.44 84.735 232.074 83.7689 232.666 82.5566L233.459 82.9121C232.028 85.9017 230.565 87.3965 229.07 87.3965C228.587 87.3965 228.186 87.2142 227.867 86.8496C227.548 86.4759 227.389 85.9974 227.389 85.4141L227.416 84.8535ZM225.98 74.8867C225.26 74.8867 224.531 75.1784 223.793 75.7617C223.064 76.3359 222.417 77.2975 221.852 78.6465C221.296 79.9954 221.018 81.3854 221.018 82.8164C221.018 83.9466 221.25 84.7852 221.715 85.332C222.18 85.8698 222.84 86.1387 223.697 86.1387C224.463 86.1387 225.174 85.8698 225.83 85.332C226.495 84.7943 227.152 83.7415 227.799 82.1738C228.446 80.597 228.77 79.1979 228.77 77.9766C228.77 77.1016 228.492 76.3678 227.936 75.7754C227.38 75.1829 226.728 74.8867 225.98 74.8867ZM250.768 66.5195L245.709 84.0195C245.563 84.5208 245.49 84.9492 245.49 85.3047C245.49 85.5143 245.545 85.6784 245.654 85.7969C245.773 85.9154 245.932 85.9746 246.133 85.9746C246.944 85.9746 248.015 84.7988 249.346 82.4473L250.125 82.8301C249.268 84.4889 248.434 85.6647 247.623 86.3574C246.812 87.0501 246.078 87.3965 245.422 87.3965C244.829 87.3965 244.374 87.1868 244.055 86.7676C243.736 86.3392 243.558 85.7012 243.521 84.8535C242.255 86.5488 240.846 87.3965 239.297 87.3965C238.522 87.3965 237.788 87.1914 237.096 86.7812C236.412 86.3711 235.879 85.7923 235.496 85.0449C235.113 84.2884 234.922 83.4453 234.922 82.5156C234.922 81.1029 235.3 79.6719 236.057 78.2227C236.813 76.7734 237.734 75.6751 238.818 74.9277C239.912 74.1803 241.015 73.8066 242.127 73.8066C242.893 73.8066 243.581 73.998 244.191 74.3809C244.802 74.7637 245.335 75.3424 245.791 76.1172L247.842 68.8574C247.869 68.7572 247.883 68.666 247.883 68.584C247.883 68.347 247.787 68.1602 247.596 68.0234C247.404 67.8776 247.108 67.8047 246.707 67.8047H245.285L245.559 66.7793L250.768 66.5195ZM242.469 74.9688C241.63 74.9688 240.814 75.3424 240.021 76.0898C239.229 76.8372 238.563 78.0768 238.025 79.8086C237.615 81.1211 237.41 82.2376 237.41 83.1582C237.41 84.0879 237.638 84.8216 238.094 85.3594C238.559 85.8971 239.137 86.166 239.83 86.166C240.641 86.166 241.448 85.7786 242.25 85.0039C243.061 84.2292 243.722 83.0671 244.232 81.5176C244.752 79.959 245.012 78.7194 245.012 77.7988C245.012 76.9329 244.775 76.2448 244.301 75.7344C243.827 75.224 243.216 74.9688 242.469 74.9688ZM260.611 84.8535C260.064 85.6921 259.431 86.3255 258.711 86.7539C257.991 87.1823 257.28 87.3965 256.578 87.3965C255.22 87.3965 254.072 86.9043 253.133 85.9199C252.194 84.9264 251.725 83.6686 251.725 82.1465C251.725 80.7611 252.089 79.4076 252.818 78.0859C253.557 76.7552 254.5 75.7116 255.648 74.9551C256.797 74.1895 257.913 73.8066 258.998 73.8066C259.873 73.8066 260.643 74.0664 261.309 74.5859C261.983 75.0964 262.439 75.7754 262.676 76.623L263.469 74.2031L265.615 73.957L262.621 84.375C262.539 84.6576 262.498 84.9401 262.498 85.2227C262.498 85.4779 262.548 85.6738 262.648 85.8105C262.758 85.9473 262.885 86.0156 263.031 86.0156C263.305 86.0156 263.615 85.8288 263.961 85.4551C264.635 84.735 265.269 83.7689 265.861 82.5566L266.654 82.9121C265.223 85.9017 263.76 87.3965 262.266 87.3965C261.783 87.3965 261.382 87.2142 261.062 86.8496C260.743 86.4759 260.584 85.9974 260.584 85.4141L260.611 84.8535ZM259.176 74.8867C258.456 74.8867 257.727 75.1784 256.988 75.7617C256.259 76.3359 255.612 77.2975 255.047 78.6465C254.491 79.9954 254.213 81.3854 254.213 82.8164C254.213 83.9466 254.445 84.7852 254.91 85.332C255.375 85.8698 256.036 86.1387 256.893 86.1387C257.658 86.1387 258.369 85.8698 259.025 85.332C259.691 84.7943 260.347 83.7415 260.994 82.1738C261.641 80.597 261.965 79.1979 261.965 77.9766C261.965 77.1016 261.687 76.3678 261.131 75.7754C260.575 75.1829 259.923 74.8867 259.176 74.8867ZM278.152 82.0234C278.107 82.4518 278.084 82.8118 278.084 83.1035C278.084 84.1061 278.326 84.8763 278.809 85.4141C279.301 85.9427 279.966 86.207 280.805 86.207C281.461 86.207 282.108 86.0384 282.746 85.7012C283.384 85.3548 284.182 84.6667 285.139 83.6367L285.768 84.2109C284.045 86.3346 282.222 87.3965 280.299 87.3965C278.986 87.3965 277.879 86.9043 276.977 85.9199C276.074 84.9355 275.623 83.6777 275.623 82.1465C275.623 80.7975 276.001 79.4759 276.758 78.1816C277.514 76.8783 278.521 75.8255 279.779 75.0234C281.046 74.2122 282.227 73.8066 283.32 73.8066C284.259 73.8066 285.025 74.0801 285.617 74.627C286.219 75.1647 286.52 75.8255 286.52 76.6094C286.52 77.2747 286.283 77.9401 285.809 78.6055C285.344 79.2617 284.587 79.8496 283.539 80.3691C282.5 80.8887 280.704 81.4401 278.152 82.0234ZM278.344 81.1348C280.085 80.752 281.324 80.3555 282.062 79.9453C282.801 79.5352 283.357 79.0247 283.73 78.4141C284.113 77.8034 284.305 77.1608 284.305 76.4863C284.305 75.9486 284.163 75.5293 283.881 75.2285C283.607 74.9277 283.229 74.7773 282.746 74.7773C281.871 74.7773 281.023 75.2786 280.203 76.2812C279.392 77.2747 278.772 78.8926 278.344 81.1348ZM291.387 66.7793L296.5 66.5195L291.469 84.0879C291.296 84.6712 291.209 85.0951 291.209 85.3594C291.209 85.6146 291.255 85.8014 291.346 85.9199C291.437 86.0384 291.555 86.0977 291.701 86.0977C292.458 86.0977 293.469 84.9173 294.736 82.5566L295.502 82.9668C294.016 85.9199 292.503 87.3965 290.963 87.3965C290.416 87.3965 289.974 87.2096 289.637 86.8359C289.299 86.4622 289.131 85.9427 289.131 85.2773C289.131 84.7669 289.263 84.0423 289.527 83.1035L293.574 68.9668C293.62 68.7845 293.643 68.6432 293.643 68.543C293.643 68.3242 293.542 68.1556 293.342 68.0371C293.077 67.8822 292.658 67.8047 292.084 67.8047H291.1L291.387 66.7793ZM299.918 82.0234C299.872 82.4518 299.85 82.8118 299.85 83.1035C299.85 84.1061 300.091 84.8763 300.574 85.4141C301.066 85.9427 301.732 86.207 302.57 86.207C303.227 86.207 303.874 86.0384 304.512 85.7012C305.15 85.3548 305.947 84.6667 306.904 83.6367L307.533 84.2109C305.811 86.3346 303.988 87.3965 302.064 87.3965C300.752 87.3965 299.645 86.9043 298.742 85.9199C297.84 84.9355 297.389 83.6777 297.389 82.1465C297.389 80.7975 297.767 79.4759 298.523 78.1816C299.28 76.8783 300.287 75.8255 301.545 75.0234C302.812 74.2122 303.992 73.8066 305.086 73.8066C306.025 73.8066 306.79 74.0801 307.383 74.627C307.984 75.1647 308.285 75.8255 308.285 76.6094C308.285 77.2747 308.048 77.9401 307.574 78.6055C307.109 79.2617 306.353 79.8496 305.305 80.3691C304.266 80.8887 302.47 81.4401 299.918 82.0234ZM300.109 81.1348C301.85 80.752 303.09 80.3555 303.828 79.9453C304.566 79.5352 305.122 79.0247 305.496 78.4141C305.879 77.8034 306.07 77.1608 306.07 76.4863C306.07 75.9486 305.929 75.5293 305.646 75.2285C305.373 74.9277 304.995 74.7773 304.512 74.7773C303.637 74.7773 302.789 75.2786 301.969 76.2812C301.158 77.2747 300.538 78.8926 300.109 81.1348ZM322.941 77.8125C323.853 76.5273 324.746 75.5658 325.621 74.9277C326.496 74.2806 327.353 73.957 328.191 73.957C328.93 73.957 329.522 74.1895 329.969 74.6543C330.424 75.11 330.652 75.7207 330.652 76.4863C330.652 77.2702 330.511 78.0996 330.229 78.9746L328.383 84.7441C328.337 84.89 328.314 85.0404 328.314 85.1953C328.314 85.3776 328.365 85.528 328.465 85.6465C328.574 85.7559 328.711 85.8105 328.875 85.8105C329.158 85.8105 329.477 85.6419 329.832 85.3047C330.324 84.8398 330.985 83.9102 331.814 82.5156L332.566 82.9805C331.646 84.612 330.771 85.7786 329.941 86.4805C329.322 86.9909 328.674 87.2461 328 87.2461C327.453 87.2461 327.016 87.0592 326.688 86.6855C326.368 86.3027 326.209 85.7376 326.209 84.9902C326.209 84.6986 326.259 84.3887 326.359 84.0605L328.287 77.9492C328.424 77.5482 328.492 77.1562 328.492 76.7734C328.492 76.3633 328.369 76.0306 328.123 75.7754C327.886 75.5202 327.585 75.3926 327.221 75.3926C326.774 75.3926 326.282 75.5749 325.744 75.9395C324.942 76.4954 324.258 77.2383 323.693 78.168C322.827 79.5898 322.235 80.8659 321.916 81.9961L320.467 87L318.184 87.1367L320.631 78.5781C320.831 77.8763 320.932 77.3249 320.932 76.9238C320.932 76.3952 320.818 76.0078 320.59 75.7617C320.371 75.5065 320.052 75.3789 319.633 75.3789C319.141 75.3789 318.658 75.543 318.184 75.8711C317.527 76.3268 316.835 77.1426 316.105 78.3184C315.385 79.485 314.839 80.7109 314.465 81.9961L312.988 87L310.76 87.1367L313.781 76.418C313.818 76.2812 313.836 76.1491 313.836 76.0215C313.836 75.7572 313.736 75.5521 313.535 75.4062C313.335 75.2604 312.993 75.1875 312.51 75.1875H311.799L312.072 74.2031L316.475 73.957L315.463 77.9492C317.104 75.2878 318.826 73.957 320.631 73.957C321.396 73.957 321.984 74.1849 322.395 74.6406C322.814 75.0964 323.023 75.7799 323.023 76.6914C323.023 77.0013 322.996 77.375 322.941 77.8125ZM337.27 82.0234C337.224 82.4518 337.201 82.8118 337.201 83.1035C337.201 84.1061 337.443 84.8763 337.926 85.4141C338.418 85.9427 339.083 86.207 339.922 86.207C340.578 86.207 341.225 86.0384 341.863 85.7012C342.501 85.3548 343.299 84.6667 344.256 83.6367L344.885 84.2109C343.162 86.3346 341.339 87.3965 339.416 87.3965C338.104 87.3965 336.996 86.9043 336.094 85.9199C335.191 84.9355 334.74 83.6777 334.74 82.1465C334.74 80.7975 335.118 79.4759 335.875 78.1816C336.632 76.8783 337.639 75.8255 338.896 75.0234C340.163 74.2122 341.344 73.8066 342.438 73.8066C343.376 73.8066 344.142 74.0801 344.734 74.627C345.336 75.1647 345.637 75.8255 345.637 76.6094C345.637 77.2747 345.4 77.9401 344.926 78.6055C344.461 79.2617 343.704 79.8496 342.656 80.3691C341.617 80.8887 339.822 81.4401 337.27 82.0234ZM337.461 81.1348C339.202 80.752 340.441 80.3555 341.18 79.9453C341.918 79.5352 342.474 79.0247 342.848 78.4141C343.23 77.8034 343.422 77.1608 343.422 76.4863C343.422 75.9486 343.281 75.5293 342.998 75.2285C342.725 74.9277 342.346 74.7773 341.863 74.7773C340.988 74.7773 340.141 75.2786 339.32 76.2812C338.509 77.2747 337.889 78.8926 337.461 81.1348ZM353.457 73.957L352.281 78.4004C354.378 75.429 356.337 73.9434 358.16 73.9434C358.862 73.9434 359.432 74.1803 359.869 74.6543C360.316 75.1191 360.539 75.7572 360.539 76.5684C360.539 77.252 360.384 78.0632 360.074 79.002L358.611 83.5547L358.256 84.6895C358.201 84.9447 358.174 85.1543 358.174 85.3184C358.174 85.5098 358.229 85.6738 358.338 85.8105C358.447 85.9382 358.575 86.002 358.721 86.002C359.113 86.002 359.614 85.7012 360.225 85.0996C360.835 84.498 361.382 83.5911 361.865 82.3789L362.713 82.666C362.12 84.1608 361.378 85.3001 360.484 86.084C359.591 86.8587 358.757 87.2461 357.982 87.2461C357.445 87.2461 356.993 87.0456 356.629 86.6445C356.273 86.2435 356.096 85.7285 356.096 85.0996C356.096 84.571 356.201 83.9922 356.41 83.3633L358.023 78.4004C358.206 77.8535 358.297 77.3203 358.297 76.8008C358.297 76.3633 358.183 76.0169 357.955 75.7617C357.727 75.5065 357.436 75.3789 357.08 75.3789C356.269 75.3789 355.243 76.0488 354.004 77.3887C352.773 78.7285 351.821 80.5697 351.146 82.9121L349.957 87L347.701 87.1094L350.723 76.4727C350.768 76.3086 350.791 76.1491 350.791 75.9941C350.791 75.7207 350.704 75.5156 350.531 75.3789C350.294 75.2057 349.962 75.1191 349.533 75.1191H348.316L348.576 74.2031L353.457 73.957ZM369.303 69.7871H371.545L370.246 74.2031H372.598L372.311 75.3516H369.932L367.539 83.7461C367.402 84.2201 367.334 84.6393 367.334 85.0039C367.334 85.3503 367.407 85.6146 367.553 85.7969C367.699 85.9701 367.881 86.0566 368.1 86.0566C369.038 86.0566 370.187 84.8763 371.545 82.5156L372.311 82.9395C370.734 85.9108 369.052 87.3965 367.266 87.3965C366.6 87.3965 366.076 87.196 365.693 86.7949C365.311 86.3848 365.119 85.8561 365.119 85.209C365.119 84.653 365.21 84.0605 365.393 83.4316L367.703 75.3516H365.201L365.543 74.2031H368.031L369.303 69.7871ZM381.293 73.8066C382.697 73.8066 383.886 74.3307 384.861 75.3789C385.846 76.418 386.338 77.7396 386.338 79.3438C386.338 80.7292 385.987 82.0736 385.285 83.377C384.592 84.6712 383.699 85.6647 382.605 86.3574C381.512 87.0501 380.377 87.3965 379.201 87.3965C377.798 87.3965 376.594 86.8678 375.592 85.8105C374.598 84.7441 374.102 83.4134 374.102 81.8184C374.102 80.4876 374.457 79.1751 375.168 77.8809C375.879 76.5775 376.786 75.5749 377.889 74.873C379.001 74.1621 380.135 73.8066 381.293 73.8066ZM381.348 74.7363C380.664 74.7363 379.971 75.028 379.27 75.6113C378.577 76.1855 377.948 77.1973 377.383 78.6465C376.827 80.0957 376.549 81.5449 376.549 82.9941C376.549 84.1152 376.79 84.9766 377.273 85.5781C377.757 86.1797 378.372 86.4805 379.119 86.4805C379.83 86.4805 380.523 86.1979 381.197 85.6328C381.872 85.0677 382.496 84.0378 383.07 82.543C383.645 81.0391 383.932 79.5671 383.932 78.127C383.932 77.0605 383.686 76.2311 383.193 75.6387C382.71 75.0371 382.095 74.7363 381.348 74.7363ZM405.465 83.6367L406.148 84.1562C405.273 85.3229 404.394 86.1569 403.51 86.6582C402.626 87.1504 401.687 87.3965 400.693 87.3965C399.381 87.3965 398.287 86.9271 397.412 85.9883C396.546 85.0404 396.113 83.8053 396.113 82.2832C396.113 80.8522 396.482 79.4577 397.221 78.0996C397.968 76.7324 398.925 75.6751 400.092 74.9277C401.258 74.1803 402.448 73.8066 403.66 73.8066C404.681 73.8066 405.483 74.071 406.066 74.5996C406.65 75.1191 406.941 75.7982 406.941 76.6367C406.941 77.2839 406.791 77.7897 406.49 78.1543C406.189 78.5098 405.816 78.6875 405.369 78.6875C404.986 78.6875 404.658 78.5599 404.385 78.3047C404.12 78.0404 403.988 77.7259 403.988 77.3613C403.988 76.7415 404.316 76.3314 404.973 76.1309C405.319 76.0215 405.492 75.862 405.492 75.6523C405.492 75.4427 405.337 75.2331 405.027 75.0234C404.727 74.8047 404.339 74.6953 403.865 74.6953C403.081 74.6953 402.293 74.9961 401.5 75.5977C400.716 76.1992 400.046 77.1471 399.49 78.4414C398.943 79.7357 398.67 81.112 398.67 82.5703C398.67 83.8099 398.921 84.735 399.422 85.3457C399.923 85.9473 400.589 86.248 401.418 86.248C402.749 86.248 404.098 85.3776 405.465 83.6367ZM415.527 73.8066C416.931 73.8066 418.12 74.3307 419.096 75.3789C420.08 76.418 420.572 77.7396 420.572 79.3438C420.572 80.7292 420.221 82.0736 419.52 83.377C418.827 84.6712 417.934 85.6647 416.84 86.3574C415.746 87.0501 414.611 87.3965 413.436 87.3965C412.032 87.3965 410.829 86.8678 409.826 85.8105C408.833 84.7441 408.336 83.4134 408.336 81.8184C408.336 80.4876 408.691 79.1751 409.402 77.8809C410.113 76.5775 411.02 75.5749 412.123 74.873C413.235 74.1621 414.37 73.8066 415.527 73.8066ZM415.582 74.7363C414.898 74.7363 414.206 75.028 413.504 75.6113C412.811 76.1855 412.182 77.1973 411.617 78.6465C411.061 80.0957 410.783 81.5449 410.783 82.9941C410.783 84.1152 411.025 84.9766 411.508 85.5781C411.991 86.1797 412.606 86.4805 413.354 86.4805C414.064 86.4805 414.757 86.1979 415.432 85.6328C416.106 85.0677 416.73 84.0378 417.305 82.543C417.879 81.0391 418.166 79.5671 418.166 78.127C418.166 77.0605 417.92 76.2311 417.428 75.6387C416.945 75.0371 416.329 74.7363 415.582 74.7363ZM428.68 73.957L427.504 78.4004C429.6 75.429 431.56 73.9434 433.383 73.9434C434.085 73.9434 434.654 74.1803 435.092 74.6543C435.538 75.1191 435.762 75.7572 435.762 76.5684C435.762 77.252 435.607 78.0632 435.297 79.002L433.834 83.5547L433.479 84.6895C433.424 84.9447 433.396 85.1543 433.396 85.3184C433.396 85.5098 433.451 85.6738 433.561 85.8105C433.67 85.9382 433.798 86.002 433.943 86.002C434.335 86.002 434.837 85.7012 435.447 85.0996C436.058 84.498 436.605 83.5911 437.088 82.3789L437.936 82.666C437.343 84.1608 436.6 85.3001 435.707 86.084C434.814 86.8587 433.98 87.2461 433.205 87.2461C432.667 87.2461 432.216 87.0456 431.852 86.6445C431.496 86.2435 431.318 85.7285 431.318 85.0996C431.318 84.571 431.423 83.9922 431.633 83.3633L433.246 78.4004C433.428 77.8535 433.52 77.3203 433.52 76.8008C433.52 76.3633 433.406 76.0169 433.178 75.7617C432.95 75.5065 432.658 75.3789 432.303 75.3789C431.492 75.3789 430.466 76.0488 429.227 77.3887C427.996 78.7285 427.044 80.5697 426.369 82.9121L425.18 87L422.924 87.1094L425.945 76.4727C425.991 76.3086 426.014 76.1491 426.014 75.9941C426.014 75.7207 425.927 75.5156 425.754 75.3789C425.517 75.2057 425.184 75.1191 424.756 75.1191H423.539L423.799 74.2031L428.68 73.957ZM444.525 69.7871H446.768L445.469 74.2031H447.82L447.533 75.3516H445.154L442.762 83.7461C442.625 84.2201 442.557 84.6393 442.557 85.0039C442.557 85.3503 442.63 85.6146 442.775 85.7969C442.921 85.9701 443.104 86.0566 443.322 86.0566C444.261 86.0566 445.41 84.8763 446.768 82.5156L447.533 82.9395C445.956 85.9108 444.275 87.3965 442.488 87.3965C441.823 87.3965 441.299 87.196 440.916 86.7949C440.533 86.3848 440.342 85.8561 440.342 85.209C440.342 84.653 440.433 84.0605 440.615 83.4316L442.926 75.3516H440.424L440.766 74.2031H443.254L444.525 69.7871ZM452.236 87L449.953 87.1777L452.4 78.4004C452.665 77.4616 452.797 76.819 452.797 76.4727C452.797 76.0352 452.656 75.707 452.373 75.4883C452.1 75.2604 451.648 75.1465 451.02 75.1465H450.418L450.705 74.2031L455.271 73.957L453.986 79.4805C454.807 77.5938 455.436 76.3268 455.873 75.6797C456.311 75.0326 456.785 74.5586 457.295 74.2578C457.805 73.957 458.307 73.8066 458.799 73.8066C459.391 73.8066 459.883 73.998 460.275 74.3809C460.676 74.7637 460.877 75.2376 460.877 75.8027C460.877 76.3314 460.731 76.7598 460.439 77.0879C460.157 77.4069 459.806 77.5664 459.387 77.5664C459.049 77.5664 458.762 77.4479 458.525 77.2109C458.288 76.974 458.17 76.6868 458.17 76.3496C458.17 76.2129 458.215 76.026 458.307 75.7891C458.361 75.6432 458.389 75.5247 458.389 75.4336C458.389 75.306 458.357 75.2103 458.293 75.1465C458.229 75.0827 458.129 75.0508 457.992 75.0508C457.746 75.0508 457.464 75.1829 457.145 75.4473C456.543 75.9668 455.951 76.8828 455.367 78.1953C454.31 80.5742 453.562 82.502 453.125 83.9785L452.236 87ZM467.836 66.834C468.255 66.834 468.606 66.9844 468.889 67.2852C469.171 67.5768 469.312 67.9414 469.312 68.3789C469.312 68.8073 469.171 69.1673 468.889 69.459C468.606 69.7415 468.26 69.8828 467.85 69.8828C467.421 69.8828 467.057 69.737 466.756 69.4453C466.464 69.1536 466.318 68.7936 466.318 68.3652C466.318 67.9277 466.464 67.5632 466.756 67.2715C467.048 66.9798 467.408 66.834 467.836 66.834ZM468.123 73.957L465.088 84.6621C465.006 84.9355 464.965 85.1725 464.965 85.373C464.965 85.6009 465.015 85.7741 465.115 85.8926C465.225 86.002 465.366 86.0566 465.539 86.0566C465.867 86.0566 466.255 85.847 466.701 85.4277C467.439 84.7259 468.155 83.7415 468.848 82.4746L469.572 82.8984C468.907 84.3477 468.114 85.4596 467.193 86.2344C466.273 87.0091 465.443 87.3965 464.705 87.3965C464.213 87.3965 463.794 87.2051 463.447 86.8223C463.101 86.4303 462.928 85.9199 462.928 85.291C462.928 84.6712 463.028 84.015 463.229 83.3223L465.252 76.3359C465.288 76.2174 465.307 76.1035 465.307 75.9941C465.307 75.748 465.202 75.5566 464.992 75.4199C464.71 75.2376 464.286 75.1465 463.721 75.1465H462.859L463.133 74.2031L468.123 73.957ZM478.965 66.5195L476.176 76.0762C477.525 74.5632 478.942 73.8066 480.428 73.8066C481.558 73.8066 482.506 74.2305 483.271 75.0781C484.037 75.9258 484.42 77.0332 484.42 78.4004C484.42 79.9863 484.042 81.4948 483.285 82.9258C482.529 84.3477 481.54 85.4505 480.318 86.2344C479.106 87.0091 477.844 87.3965 476.531 87.3965C475.201 87.3965 474.148 87.0137 473.373 86.248C472.598 85.4824 472.211 84.4616 472.211 83.1855C472.211 82.4473 472.32 81.709 472.539 80.9707L476.039 68.8848C476.066 68.7936 476.08 68.7025 476.08 68.6113C476.08 68.3652 475.939 68.1693 475.656 68.0234C475.383 67.8776 474.836 67.8047 474.016 67.8047L474.262 66.7793L478.965 66.5195ZM479.566 75.1191C478.883 75.1191 478.217 75.3926 477.57 75.9395C476.75 76.623 476.016 77.7122 475.369 79.207C474.731 80.7018 474.412 82.1237 474.412 83.4727C474.412 84.5026 474.622 85.2682 475.041 85.7695C475.46 86.2617 476.048 86.5078 476.805 86.5078C477.552 86.5078 478.281 86.2161 478.992 85.6328C479.712 85.0495 480.373 84.0286 480.975 82.5703C481.576 81.1029 481.877 79.6719 481.877 78.2773C481.877 77.2109 481.667 76.418 481.248 75.8984C480.829 75.3789 480.268 75.1191 479.566 75.1191ZM493.375 73.957L490.654 82.3926C490.363 83.304 490.217 84.0469 490.217 84.6211C490.217 85.0404 490.331 85.373 490.559 85.6191C490.796 85.8561 491.11 85.9746 491.502 85.9746C492.295 85.9746 493.279 85.3822 494.455 84.1973C495.64 83.0033 496.611 81.2533 497.367 78.9473L498.912 74.2031H501.127L497.859 84.3203C497.714 84.7669 497.641 85.1497 497.641 85.4688C497.641 85.7057 497.691 85.8835 497.791 86.002C497.9 86.1204 498.055 86.1797 498.256 86.1797C499.076 86.1797 500.12 84.9948 501.387 82.625L502.166 82.8984C501.455 84.4753 500.68 85.6191 499.842 86.3301C499.003 87.041 498.206 87.3965 497.449 87.3965C496.902 87.3965 496.469 87.2324 496.15 86.9043C495.831 86.5671 495.672 86.1068 495.672 85.5234C495.672 85.0404 495.777 84.3613 495.986 83.4863C494.838 84.9811 493.831 86.0065 492.965 86.5625C492.099 87.1185 491.279 87.3965 490.504 87.3965C489.711 87.3965 489.082 87.1732 488.617 86.7266C488.152 86.2708 487.92 85.6784 487.92 84.9492C487.92 84.3477 488.116 83.4453 488.508 82.2422L490.354 76.4727C490.399 76.3268 490.422 76.1855 490.422 76.0488C490.422 75.8027 490.312 75.6068 490.094 75.4609C489.802 75.2786 489.383 75.1875 488.836 75.1875H488.084L488.357 74.2031L493.375 73.957ZM511.463 83.7461C512.411 82.306 513.154 80.9115 513.691 79.5625C514.038 78.7148 514.211 77.9902 514.211 77.3887C514.211 77.1335 514.147 76.7279 514.02 76.1719C513.919 75.7253 513.869 75.388 513.869 75.1602C513.869 74.7682 513.983 74.4447 514.211 74.1895C514.448 73.9342 514.73 73.8066 515.059 73.8066C515.405 73.8066 515.688 73.9342 515.906 74.1895C516.125 74.4355 516.234 74.7819 516.234 75.2285C516.234 75.666 516.07 76.3451 515.742 77.2656C515.296 78.5234 514.685 79.8314 513.91 81.1895L510.697 86.8223C509.977 88.0892 509.148 89.2467 508.209 90.2949C507.525 91.0514 506.824 91.6029 506.104 91.9492C505.393 92.2956 504.759 92.4688 504.203 92.4688C503.51 92.4688 502.936 92.2773 502.48 91.8945C502.016 91.5117 501.783 91.0514 501.783 90.5137C501.783 90.0762 501.924 89.7025 502.207 89.3926C502.49 89.0918 502.818 88.9414 503.191 88.9414C503.538 88.9414 503.834 89.0645 504.08 89.3105C504.335 89.5658 504.463 89.8574 504.463 90.1855L504.436 90.6641L504.422 90.8281C504.422 90.9831 504.477 91.1061 504.586 91.1973C504.695 91.2975 504.846 91.3477 505.037 91.3477C505.548 91.3477 506.126 91.0605 506.773 90.4863C507.776 89.6022 508.774 88.3034 509.768 86.5898L508.879 81.9414C508.378 79.3255 507.863 77.5208 507.334 76.5273C507.024 75.9622 506.737 75.6797 506.473 75.6797C505.99 75.6797 505.461 76.5137 504.887 78.1816L504.053 77.8398C504.572 76.3815 505.174 75.2969 505.857 74.5859C506.35 74.0664 506.86 73.8066 507.389 73.8066C507.936 73.8066 508.368 74.0482 508.688 74.5312C509.152 75.2148 509.704 76.819 510.342 79.3438L511.463 83.7461ZM520.391 82.0234C520.345 82.4518 520.322 82.8118 520.322 83.1035C520.322 84.1061 520.564 84.8763 521.047 85.4141C521.539 85.9427 522.204 86.207 523.043 86.207C523.699 86.207 524.346 86.0384 524.984 85.7012C525.622 85.3548 526.42 84.6667 527.377 83.6367L528.006 84.2109C526.283 86.3346 524.46 87.3965 522.537 87.3965C521.225 87.3965 520.117 86.9043 519.215 85.9199C518.312 84.9355 517.861 83.6777 517.861 82.1465C517.861 80.7975 518.24 79.4759 518.996 78.1816C519.753 76.8783 520.76 75.8255 522.018 75.0234C523.285 74.2122 524.465 73.8066 525.559 73.8066C526.497 73.8066 527.263 74.0801 527.855 74.627C528.457 75.1647 528.758 75.8255 528.758 76.6094C528.758 77.2747 528.521 77.9401 528.047 78.6055C527.582 79.2617 526.826 79.8496 525.777 80.3691C524.738 80.8887 522.943 81.4401 520.391 82.0234ZM520.582 81.1348C522.323 80.752 523.562 80.3555 524.301 79.9453C525.039 79.5352 525.595 79.0247 525.969 78.4141C526.352 77.8034 526.543 77.1608 526.543 76.4863C526.543 75.9486 526.402 75.5293 526.119 75.2285C525.846 74.9277 525.467 74.7773 524.984 74.7773C524.109 74.7773 523.262 75.2786 522.441 76.2812C521.63 77.2747 521.01 78.8926 520.582 81.1348ZM546.955 84.8535C546.408 85.6921 545.775 86.3255 545.055 86.7539C544.335 87.1823 543.624 87.3965 542.922 87.3965C541.564 87.3965 540.415 86.9043 539.477 85.9199C538.538 84.9264 538.068 83.6686 538.068 82.1465C538.068 80.7611 538.433 79.4076 539.162 78.0859C539.9 76.7552 540.844 75.7116 541.992 74.9551C543.141 74.1895 544.257 73.8066 545.342 73.8066C546.217 73.8066 546.987 74.0664 547.652 74.5859C548.327 75.0964 548.783 75.7754 549.02 76.623L549.812 74.2031L551.959 73.957L548.965 84.375C548.883 84.6576 548.842 84.9401 548.842 85.2227C548.842 85.4779 548.892 85.6738 548.992 85.8105C549.102 85.9473 549.229 86.0156 549.375 86.0156C549.648 86.0156 549.958 85.8288 550.305 85.4551C550.979 84.735 551.613 83.7689 552.205 82.5566L552.998 82.9121C551.567 85.9017 550.104 87.3965 548.609 87.3965C548.126 87.3965 547.725 87.2142 547.406 86.8496C547.087 86.4759 546.928 85.9974 546.928 85.4141L546.955 84.8535ZM545.52 74.8867C544.799 74.8867 544.07 75.1784 543.332 75.7617C542.603 76.3359 541.956 77.2975 541.391 78.6465C540.835 79.9954 540.557 81.3854 540.557 82.8164C540.557 83.9466 540.789 84.7852 541.254 85.332C541.719 85.8698 542.38 86.1387 543.236 86.1387C544.002 86.1387 544.713 85.8698 545.369 85.332C546.035 84.7943 546.691 83.7415 547.338 82.1738C547.985 80.597 548.309 79.1979 548.309 77.9766C548.309 77.1016 548.031 76.3678 547.475 75.7754C546.919 75.1829 546.267 74.8867 545.52 74.8867ZM571.469 83.6367L572.152 84.1562C571.277 85.3229 570.398 86.1569 569.514 86.6582C568.63 87.1504 567.691 87.3965 566.697 87.3965C565.385 87.3965 564.291 86.9271 563.416 85.9883C562.55 85.0404 562.117 83.8053 562.117 82.2832C562.117 80.8522 562.486 79.4577 563.225 78.0996C563.972 76.7324 564.929 75.6751 566.096 74.9277C567.262 74.1803 568.452 73.8066 569.664 73.8066C570.685 73.8066 571.487 74.071 572.07 74.5996C572.654 75.1191 572.945 75.7982 572.945 76.6367C572.945 77.2839 572.795 77.7897 572.494 78.1543C572.193 78.5098 571.82 78.6875 571.373 78.6875C570.99 78.6875 570.662 78.5599 570.389 78.3047C570.124 78.0404 569.992 77.7259 569.992 77.3613C569.992 76.7415 570.32 76.3314 570.977 76.1309C571.323 76.0215 571.496 75.862 571.496 75.6523C571.496 75.4427 571.341 75.2331 571.031 75.0234C570.73 74.8047 570.343 74.6953 569.869 74.6953C569.085 74.6953 568.297 74.9961 567.504 75.5977C566.72 76.1992 566.05 77.1471 565.494 78.4414C564.947 79.7357 564.674 81.112 564.674 82.5703C564.674 83.8099 564.924 84.735 565.426 85.3457C565.927 85.9473 566.592 86.248 567.422 86.248C568.753 86.248 570.102 85.3776 571.469 83.6367ZM577.252 87L574.969 87.1777L577.416 78.4004C577.68 77.4616 577.812 76.819 577.812 76.4727C577.812 76.0352 577.671 75.707 577.389 75.4883C577.115 75.2604 576.664 75.1465 576.035 75.1465H575.434L575.721 74.2031L580.287 73.957L579.002 79.4805C579.822 77.5938 580.451 76.3268 580.889 75.6797C581.326 75.0326 581.8 74.5586 582.311 74.2578C582.821 73.957 583.322 73.8066 583.814 73.8066C584.407 73.8066 584.899 73.998 585.291 74.3809C585.692 74.7637 585.893 75.2376 585.893 75.8027C585.893 76.3314 585.747 76.7598 585.455 77.0879C585.173 77.4069 584.822 77.5664 584.402 77.5664C584.065 77.5664 583.778 77.4479 583.541 77.2109C583.304 76.974 583.186 76.6868 583.186 76.3496C583.186 76.2129 583.231 76.026 583.322 75.7891C583.377 75.6432 583.404 75.5247 583.404 75.4336C583.404 75.306 583.372 75.2103 583.309 75.1465C583.245 75.0827 583.145 75.0508 583.008 75.0508C582.762 75.0508 582.479 75.1829 582.16 75.4473C581.559 75.9668 580.966 76.8828 580.383 78.1953C579.326 80.5742 578.578 82.502 578.141 83.9785L577.252 87ZM589.379 82.0234C589.333 82.4518 589.311 82.8118 589.311 83.1035C589.311 84.1061 589.552 84.8763 590.035 85.4141C590.527 85.9427 591.193 86.207 592.031 86.207C592.688 86.207 593.335 86.0384 593.973 85.7012C594.611 85.3548 595.408 84.6667 596.365 83.6367L596.994 84.2109C595.271 86.3346 593.449 87.3965 591.525 87.3965C590.213 87.3965 589.105 86.9043 588.203 85.9199C587.301 84.9355 586.85 83.6777 586.85 82.1465C586.85 80.7975 587.228 79.4759 587.984 78.1816C588.741 76.8783 589.748 75.8255 591.006 75.0234C592.273 74.2122 593.453 73.8066 594.547 73.8066C595.486 73.8066 596.251 74.0801 596.844 74.627C597.445 75.1647 597.746 75.8255 597.746 76.6094C597.746 77.2747 597.509 77.9401 597.035 78.6055C596.57 79.2617 595.814 79.8496 594.766 80.3691C593.727 80.8887 591.931 81.4401 589.379 82.0234ZM589.57 81.1348C591.311 80.752 592.551 80.3555 593.289 79.9453C594.027 79.5352 594.583 79.0247 594.957 78.4141C595.34 77.8034 595.531 77.1608 595.531 76.4863C595.531 75.9486 595.39 75.5293 595.107 75.2285C594.834 74.9277 594.456 74.7773 593.973 74.7773C593.098 74.7773 592.25 75.2786 591.43 76.2812C590.618 77.2747 589.999 78.8926 589.57 81.1348ZM608.15 84.8535C607.604 85.6921 606.97 86.3255 606.25 86.7539C605.53 87.1823 604.819 87.3965 604.117 87.3965C602.759 87.3965 601.611 86.9043 600.672 85.9199C599.733 84.9264 599.264 83.6686 599.264 82.1465C599.264 80.7611 599.628 79.4076 600.357 78.0859C601.096 76.7552 602.039 75.7116 603.188 74.9551C604.336 74.1895 605.452 73.8066 606.537 73.8066C607.412 73.8066 608.182 74.0664 608.848 74.5859C609.522 75.0964 609.978 75.7754 610.215 76.623L611.008 74.2031L613.154 73.957L610.16 84.375C610.078 84.6576 610.037 84.9401 610.037 85.2227C610.037 85.4779 610.087 85.6738 610.188 85.8105C610.297 85.9473 610.424 86.0156 610.57 86.0156C610.844 86.0156 611.154 85.8288 611.5 85.4551C612.174 84.735 612.808 83.7689 613.4 82.5566L614.193 82.9121C612.762 85.9017 611.299 87.3965 609.805 87.3965C609.322 87.3965 608.921 87.2142 608.602 86.8496C608.283 86.4759 608.123 85.9974 608.123 85.4141L608.15 84.8535ZM606.715 74.8867C605.995 74.8867 605.266 75.1784 604.527 75.7617C603.798 76.3359 603.151 77.2975 602.586 78.6465C602.03 79.9954 601.752 81.3854 601.752 82.8164C601.752 83.9466 601.984 84.7852 602.449 85.332C602.914 85.8698 603.575 86.1387 604.432 86.1387C605.197 86.1387 605.908 85.8698 606.564 85.332C607.23 84.7943 607.886 83.7415 608.533 82.1738C609.18 80.597 609.504 79.1979 609.504 77.9766C609.504 77.1016 609.226 76.3678 608.67 75.7754C608.114 75.1829 607.462 74.8867 606.715 74.8867ZM618.213 87L615.93 87.1777L618.377 78.4004C618.641 77.4616 618.773 76.819 618.773 76.4727C618.773 76.0352 618.632 75.707 618.35 75.4883C618.076 75.2604 617.625 75.1465 616.996 75.1465H616.395L616.682 74.2031L621.248 73.957L619.963 79.4805C620.783 77.5938 621.412 76.3268 621.85 75.6797C622.287 75.0326 622.761 74.5586 623.271 74.2578C623.782 73.957 624.283 73.8066 624.775 73.8066C625.368 73.8066 625.86 73.998 626.252 74.3809C626.653 74.7637 626.854 75.2376 626.854 75.8027C626.854 76.3314 626.708 76.7598 626.416 77.0879C626.133 77.4069 625.783 77.5664 625.363 77.5664C625.026 77.5664 624.739 77.4479 624.502 77.2109C624.265 76.974 624.146 76.6868 624.146 76.3496C624.146 76.2129 624.192 76.026 624.283 75.7891C624.338 75.6432 624.365 75.5247 624.365 75.4336C624.365 75.306 624.333 75.2103 624.27 75.1465C624.206 75.0827 624.105 75.0508 623.969 75.0508C623.723 75.0508 623.44 75.1829 623.121 75.4473C622.52 75.9668 621.927 76.8828 621.344 78.1953C620.286 80.5742 619.539 82.502 619.102 83.9785L618.213 87ZM642.234 73.957L639.514 82.3926C639.222 83.304 639.076 84.0469 639.076 84.6211C639.076 85.0404 639.19 85.373 639.418 85.6191C639.655 85.8561 639.969 85.9746 640.361 85.9746C641.154 85.9746 642.139 85.3822 643.314 84.1973C644.499 83.0033 645.47 81.2533 646.227 78.9473L647.771 74.2031H649.986L646.719 84.3203C646.573 84.7669 646.5 85.1497 646.5 85.4688C646.5 85.7057 646.55 85.8835 646.65 86.002C646.76 86.1204 646.915 86.1797 647.115 86.1797C647.936 86.1797 648.979 84.9948 650.246 82.625L651.025 82.8984C650.314 84.4753 649.54 85.6191 648.701 86.3301C647.863 87.041 647.065 87.3965 646.309 87.3965C645.762 87.3965 645.329 87.2324 645.01 86.9043C644.691 86.5671 644.531 86.1068 644.531 85.5234C644.531 85.0404 644.636 84.3613 644.846 83.4863C643.697 84.9811 642.69 86.0065 641.824 86.5625C640.958 87.1185 640.138 87.3965 639.363 87.3965C638.57 87.3965 637.941 87.1732 637.477 86.7266C637.012 86.2708 636.779 85.6784 636.779 84.9492C636.779 84.3477 636.975 83.4453 637.367 82.2422L639.213 76.4727C639.258 76.3268 639.281 76.1855 639.281 76.0488C639.281 75.8027 639.172 75.6068 638.953 75.4609C638.661 75.2786 638.242 75.1875 637.695 75.1875H636.943L637.217 74.2031L642.234 73.957ZM658.996 73.957L657.82 78.4004C659.917 75.429 661.876 73.9434 663.699 73.9434C664.401 73.9434 664.971 74.1803 665.408 74.6543C665.855 75.1191 666.078 75.7572 666.078 76.5684C666.078 77.252 665.923 78.0632 665.613 79.002L664.15 83.5547L663.795 84.6895C663.74 84.9447 663.713 85.1543 663.713 85.3184C663.713 85.5098 663.768 85.6738 663.877 85.8105C663.986 85.9382 664.114 86.002 664.26 86.002C664.652 86.002 665.153 85.7012 665.764 85.0996C666.374 84.498 666.921 83.5911 667.404 82.3789L668.252 82.666C667.66 84.1608 666.917 85.3001 666.023 86.084C665.13 86.8587 664.296 87.2461 663.521 87.2461C662.984 87.2461 662.533 87.0456 662.168 86.6445C661.812 86.2435 661.635 85.7285 661.635 85.0996C661.635 84.571 661.74 83.9922 661.949 83.3633L663.562 78.4004C663.745 77.8535 663.836 77.3203 663.836 76.8008C663.836 76.3633 663.722 76.0169 663.494 75.7617C663.266 75.5065 662.975 75.3789 662.619 75.3789C661.808 75.3789 660.783 76.0488 659.543 77.3887C658.312 78.7285 657.36 80.5697 656.686 82.9121L655.496 87L653.24 87.1094L656.262 76.4727C656.307 76.3086 656.33 76.1491 656.33 75.9941C656.33 75.7207 656.243 75.5156 656.07 75.3789C655.833 75.2057 655.501 75.1191 655.072 75.1191H653.855L654.115 74.2031L658.996 73.957ZM678.697 84.8535C678.15 85.6921 677.517 86.3255 676.797 86.7539C676.077 87.1823 675.366 87.3965 674.664 87.3965C673.306 87.3965 672.158 86.9043 671.219 85.9199C670.28 84.9264 669.811 83.6686 669.811 82.1465C669.811 80.7611 670.175 79.4076 670.904 78.0859C671.643 76.7552 672.586 75.7116 673.734 74.9551C674.883 74.1895 675.999 73.8066 677.084 73.8066C677.959 73.8066 678.729 74.0664 679.395 74.5859C680.069 75.0964 680.525 75.7754 680.762 76.623L681.555 74.2031L683.701 73.957L680.707 84.375C680.625 84.6576 680.584 84.9401 680.584 85.2227C680.584 85.4779 680.634 85.6738 680.734 85.8105C680.844 85.9473 680.971 86.0156 681.117 86.0156C681.391 86.0156 681.701 85.8288 682.047 85.4551C682.721 84.735 683.355 83.7689 683.947 82.5566L684.74 82.9121C683.309 85.9017 681.846 87.3965 680.352 87.3965C679.868 87.3965 679.467 87.2142 679.148 86.8496C678.829 86.4759 678.67 85.9974 678.67 85.4141L678.697 84.8535ZM677.262 74.8867C676.542 74.8867 675.812 75.1784 675.074 75.7617C674.345 76.3359 673.698 77.2975 673.133 78.6465C672.577 79.9954 672.299 81.3854 672.299 82.8164C672.299 83.9466 672.531 84.7852 672.996 85.332C673.461 85.8698 674.122 86.1387 674.979 86.1387C675.744 86.1387 676.455 85.8698 677.111 85.332C677.777 84.7943 678.433 83.7415 679.08 82.1738C679.727 80.597 680.051 79.1979 680.051 77.9766C680.051 77.1016 679.773 76.3678 679.217 75.7754C678.661 75.1829 678.009 74.8867 677.262 74.8867ZM199.922 116.023C199.876 116.452 199.854 116.812 199.854 117.104C199.854 118.106 200.095 118.876 200.578 119.414C201.07 119.943 201.736 120.207 202.574 120.207C203.23 120.207 203.878 120.038 204.516 119.701C205.154 119.355 205.951 118.667 206.908 117.637L207.537 118.211C205.814 120.335 203.992 121.396 202.068 121.396C200.756 121.396 199.648 120.904 198.746 119.92C197.844 118.936 197.393 117.678 197.393 116.146C197.393 114.798 197.771 113.476 198.527 112.182C199.284 110.878 200.291 109.826 201.549 109.023C202.816 108.212 203.996 107.807 205.09 107.807C206.029 107.807 206.794 108.08 207.387 108.627C207.988 109.165 208.289 109.826 208.289 110.609C208.289 111.275 208.052 111.94 207.578 112.605C207.113 113.262 206.357 113.85 205.309 114.369C204.27 114.889 202.474 115.44 199.922 116.023ZM200.113 115.135C201.854 114.752 203.094 114.355 203.832 113.945C204.57 113.535 205.126 113.025 205.5 112.414C205.883 111.803 206.074 111.161 206.074 110.486C206.074 109.949 205.933 109.529 205.65 109.229C205.377 108.928 204.999 108.777 204.516 108.777C203.641 108.777 202.793 109.279 201.973 110.281C201.161 111.275 200.542 112.893 200.113 115.135ZM216.82 112.605C217.969 110.773 218.702 109.666 219.021 109.283C219.486 108.709 219.915 108.322 220.307 108.121C220.708 107.911 221.104 107.807 221.496 107.807C221.997 107.807 222.398 107.952 222.699 108.244C223 108.527 223.15 108.91 223.15 109.393C223.15 109.857 223.027 110.227 222.781 110.5C222.544 110.773 222.239 110.91 221.865 110.91C221.41 110.91 221.059 110.646 220.812 110.117C220.648 109.78 220.466 109.611 220.266 109.611C220.056 109.611 219.842 109.73 219.623 109.967C219.404 110.204 218.566 111.484 217.107 113.809L218.078 118.143C218.215 118.771 218.365 119.182 218.529 119.373C218.702 119.564 218.912 119.66 219.158 119.66C219.878 119.66 220.803 118.758 221.934 116.953L222.604 117.336C221.792 118.794 220.99 119.838 220.197 120.467C219.413 121.087 218.73 121.396 218.146 121.396C217.518 121.396 217.048 121.178 216.738 120.74C216.438 120.294 216.032 118.831 215.521 116.352C214.291 118.566 213.316 120.011 212.596 120.686C212.085 121.16 211.484 121.396 210.791 121.396C210.244 121.396 209.802 121.232 209.465 120.904C209.128 120.567 208.959 120.148 208.959 119.646C208.959 119.245 209.087 118.913 209.342 118.648C209.597 118.375 209.907 118.238 210.271 118.238C210.545 118.238 210.773 118.302 210.955 118.43C211.146 118.557 211.306 118.79 211.434 119.127C211.543 119.41 211.63 119.587 211.693 119.66C211.766 119.724 211.857 119.756 211.967 119.756C212.167 119.756 212.363 119.642 212.555 119.414C212.965 118.931 213.854 117.523 215.221 115.189L214.236 110.678C214.163 110.331 214.049 110.076 213.895 109.912C213.74 109.739 213.539 109.652 213.293 109.652C212.6 109.652 211.889 110.523 211.16 112.264L210.463 111.854C211.101 110.295 211.725 109.233 212.336 108.668C212.956 108.094 213.58 107.807 214.209 107.807C214.801 107.807 215.262 108.039 215.59 108.504C215.918 108.96 216.328 110.327 216.82 112.605ZM226.992 118.771L225.516 123.926C225.452 124.135 225.42 124.304 225.42 124.432C225.42 124.678 225.52 124.874 225.721 125.02C225.93 125.174 226.29 125.252 226.801 125.252H227.648L227.389 126.264H220.703L220.99 125.252H221.469C222.417 125.252 223.018 124.81 223.273 123.926L227.184 110.35C227.22 110.24 227.238 110.126 227.238 110.008C227.238 109.743 227.133 109.538 226.924 109.393C226.723 109.238 226.386 109.16 225.912 109.16H224.914L225.215 108.203L229.836 107.957L229.139 110.732C229.913 109.63 230.656 108.868 231.367 108.449C232.078 108.021 232.835 107.807 233.637 107.807C234.767 107.807 235.729 108.258 236.521 109.16C237.324 110.062 237.725 111.238 237.725 112.688C237.725 114.146 237.351 115.581 236.604 116.994C235.865 118.407 234.936 119.496 233.814 120.262C232.702 121.018 231.595 121.396 230.492 121.396C228.806 121.396 227.639 120.521 226.992 118.771ZM232.885 109.051C232.11 109.051 231.303 109.447 230.465 110.24C229.626 111.024 228.952 112.159 228.441 113.645C227.931 115.121 227.676 116.347 227.676 117.322C227.676 118.206 227.904 118.904 228.359 119.414C228.824 119.915 229.439 120.166 230.205 120.166C230.962 120.166 231.691 119.874 232.393 119.291C233.104 118.708 233.76 117.691 234.361 116.242C234.963 114.784 235.264 113.353 235.264 111.949C235.264 111.056 235.036 110.35 234.58 109.83C234.133 109.311 233.568 109.051 232.885 109.051ZM242.441 116.023C242.396 116.452 242.373 116.812 242.373 117.104C242.373 118.106 242.615 118.876 243.098 119.414C243.59 119.943 244.255 120.207 245.094 120.207C245.75 120.207 246.397 120.038 247.035 119.701C247.673 119.355 248.471 118.667 249.428 117.637L250.057 118.211C248.334 120.335 246.511 121.396 244.588 121.396C243.275 121.396 242.168 120.904 241.266 119.92C240.363 118.936 239.912 117.678 239.912 116.146C239.912 114.798 240.29 113.476 241.047 112.182C241.803 110.878 242.811 109.826 244.068 109.023C245.335 108.212 246.516 107.807 247.609 107.807C248.548 107.807 249.314 108.08 249.906 108.627C250.508 109.165 250.809 109.826 250.809 110.609C250.809 111.275 250.572 111.94 250.098 112.605C249.633 113.262 248.876 113.85 247.828 114.369C246.789 114.889 244.993 115.44 242.441 116.023ZM242.633 115.135C244.374 114.752 245.613 114.355 246.352 113.945C247.09 113.535 247.646 113.025 248.02 112.414C248.402 111.803 248.594 111.161 248.594 110.486C248.594 109.949 248.452 109.529 248.17 109.229C247.896 108.928 247.518 108.777 247.035 108.777C246.16 108.777 245.312 109.279 244.492 110.281C243.681 111.275 243.061 112.893 242.633 115.135ZM255.197 121L252.914 121.178L255.361 112.4C255.626 111.462 255.758 110.819 255.758 110.473C255.758 110.035 255.617 109.707 255.334 109.488C255.061 109.26 254.609 109.146 253.98 109.146H253.379L253.666 108.203L258.232 107.957L256.947 113.48C257.768 111.594 258.396 110.327 258.834 109.68C259.271 109.033 259.745 108.559 260.256 108.258C260.766 107.957 261.268 107.807 261.76 107.807C262.352 107.807 262.844 107.998 263.236 108.381C263.637 108.764 263.838 109.238 263.838 109.803C263.838 110.331 263.692 110.76 263.4 111.088C263.118 111.407 262.767 111.566 262.348 111.566C262.01 111.566 261.723 111.448 261.486 111.211C261.249 110.974 261.131 110.687 261.131 110.35C261.131 110.213 261.176 110.026 261.268 109.789C261.322 109.643 261.35 109.525 261.35 109.434C261.35 109.306 261.318 109.21 261.254 109.146C261.19 109.083 261.09 109.051 260.953 109.051C260.707 109.051 260.424 109.183 260.105 109.447C259.504 109.967 258.911 110.883 258.328 112.195C257.271 114.574 256.523 116.502 256.086 117.979L255.197 121ZM270.797 100.834C271.216 100.834 271.567 100.984 271.85 101.285C272.132 101.577 272.273 101.941 272.273 102.379C272.273 102.807 272.132 103.167 271.85 103.459C271.567 103.742 271.221 103.883 270.811 103.883C270.382 103.883 270.018 103.737 269.717 103.445C269.425 103.154 269.279 102.794 269.279 102.365C269.279 101.928 269.425 101.563 269.717 101.271C270.008 100.98 270.368 100.834 270.797 100.834ZM271.084 107.957L268.049 118.662C267.967 118.936 267.926 119.173 267.926 119.373C267.926 119.601 267.976 119.774 268.076 119.893C268.186 120.002 268.327 120.057 268.5 120.057C268.828 120.057 269.215 119.847 269.662 119.428C270.4 118.726 271.116 117.742 271.809 116.475L272.533 116.898C271.868 118.348 271.075 119.46 270.154 120.234C269.234 121.009 268.404 121.396 267.666 121.396C267.174 121.396 266.755 121.205 266.408 120.822C266.062 120.43 265.889 119.92 265.889 119.291C265.889 118.671 265.989 118.015 266.189 117.322L268.213 110.336C268.249 110.217 268.268 110.104 268.268 109.994C268.268 109.748 268.163 109.557 267.953 109.42C267.671 109.238 267.247 109.146 266.682 109.146H265.82L266.094 108.203L271.084 107.957ZM276.648 116.023C276.603 116.452 276.58 116.812 276.58 117.104C276.58 118.106 276.822 118.876 277.305 119.414C277.797 119.943 278.462 120.207 279.301 120.207C279.957 120.207 280.604 120.038 281.242 119.701C281.88 119.355 282.678 118.667 283.635 117.637L284.264 118.211C282.541 120.335 280.718 121.396 278.795 121.396C277.482 121.396 276.375 120.904 275.473 119.92C274.57 118.936 274.119 117.678 274.119 116.146C274.119 114.798 274.497 113.476 275.254 112.182C276.01 110.878 277.018 109.826 278.275 109.023C279.542 108.212 280.723 107.807 281.816 107.807C282.755 107.807 283.521 108.08 284.113 108.627C284.715 109.165 285.016 109.826 285.016 110.609C285.016 111.275 284.779 111.94 284.305 112.605C283.84 113.262 283.083 113.85 282.035 114.369C280.996 114.889 279.201 115.44 276.648 116.023ZM276.84 115.135C278.581 114.752 279.82 114.355 280.559 113.945C281.297 113.535 281.853 113.025 282.227 112.414C282.609 111.803 282.801 111.161 282.801 110.486C282.801 109.949 282.66 109.529 282.377 109.229C282.104 108.928 281.725 108.777 281.242 108.777C280.367 108.777 279.52 109.279 278.699 110.281C277.888 111.275 277.268 112.893 276.84 115.135ZM292.836 107.957L291.66 112.4C293.757 109.429 295.716 107.943 297.539 107.943C298.241 107.943 298.811 108.18 299.248 108.654C299.695 109.119 299.918 109.757 299.918 110.568C299.918 111.252 299.763 112.063 299.453 113.002L297.99 117.555L297.635 118.689C297.58 118.945 297.553 119.154 297.553 119.318C297.553 119.51 297.607 119.674 297.717 119.811C297.826 119.938 297.954 120.002 298.1 120.002C298.492 120.002 298.993 119.701 299.604 119.1C300.214 118.498 300.761 117.591 301.244 116.379L302.092 116.666C301.499 118.161 300.757 119.3 299.863 120.084C298.97 120.859 298.136 121.246 297.361 121.246C296.824 121.246 296.372 121.046 296.008 120.645C295.652 120.243 295.475 119.729 295.475 119.1C295.475 118.571 295.579 117.992 295.789 117.363L297.402 112.4C297.585 111.854 297.676 111.32 297.676 110.801C297.676 110.363 297.562 110.017 297.334 109.762C297.106 109.507 296.814 109.379 296.459 109.379C295.648 109.379 294.622 110.049 293.383 111.389C292.152 112.729 291.2 114.57 290.525 116.912L289.336 121L287.08 121.109L290.102 110.473C290.147 110.309 290.17 110.149 290.17 109.994C290.17 109.721 290.083 109.516 289.91 109.379C289.673 109.206 289.34 109.119 288.912 109.119H287.695L287.955 108.203L292.836 107.957ZM313.18 117.637L313.863 118.156C312.988 119.323 312.109 120.157 311.225 120.658C310.34 121.15 309.402 121.396 308.408 121.396C307.096 121.396 306.002 120.927 305.127 119.988C304.261 119.04 303.828 117.805 303.828 116.283C303.828 114.852 304.197 113.458 304.936 112.1C305.683 110.732 306.64 109.675 307.807 108.928C308.973 108.18 310.163 107.807 311.375 107.807C312.396 107.807 313.198 108.071 313.781 108.6C314.365 109.119 314.656 109.798 314.656 110.637C314.656 111.284 314.506 111.79 314.205 112.154C313.904 112.51 313.531 112.688 313.084 112.688C312.701 112.688 312.373 112.56 312.1 112.305C311.835 112.04 311.703 111.726 311.703 111.361C311.703 110.742 312.031 110.331 312.688 110.131C313.034 110.021 313.207 109.862 313.207 109.652C313.207 109.443 313.052 109.233 312.742 109.023C312.441 108.805 312.054 108.695 311.58 108.695C310.796 108.695 310.008 108.996 309.215 109.598C308.431 110.199 307.761 111.147 307.205 112.441C306.658 113.736 306.385 115.112 306.385 116.57C306.385 117.81 306.635 118.735 307.137 119.346C307.638 119.947 308.303 120.248 309.133 120.248C310.464 120.248 311.812 119.378 313.18 117.637ZM322.121 100.834C322.54 100.834 322.891 100.984 323.174 101.285C323.456 101.577 323.598 101.941 323.598 102.379C323.598 102.807 323.456 103.167 323.174 103.459C322.891 103.742 322.545 103.883 322.135 103.883C321.706 103.883 321.342 103.737 321.041 103.445C320.749 103.154 320.604 102.794 320.604 102.365C320.604 101.928 320.749 101.563 321.041 101.271C321.333 100.98 321.693 100.834 322.121 100.834ZM322.408 107.957L319.373 118.662C319.291 118.936 319.25 119.173 319.25 119.373C319.25 119.601 319.3 119.774 319.4 119.893C319.51 120.002 319.651 120.057 319.824 120.057C320.152 120.057 320.54 119.847 320.986 119.428C321.725 118.726 322.44 117.742 323.133 116.475L323.857 116.898C323.192 118.348 322.399 119.46 321.479 120.234C320.558 121.009 319.729 121.396 318.99 121.396C318.498 121.396 318.079 121.205 317.732 120.822C317.386 120.43 317.213 119.92 317.213 119.291C317.213 118.671 317.313 118.015 317.514 117.322L319.537 110.336C319.574 110.217 319.592 110.104 319.592 109.994C319.592 109.748 319.487 109.557 319.277 109.42C318.995 109.238 318.571 109.146 318.006 109.146H317.145L317.418 108.203L322.408 107.957ZM334.303 118.854C333.756 119.692 333.122 120.326 332.402 120.754C331.682 121.182 330.971 121.396 330.27 121.396C328.911 121.396 327.763 120.904 326.824 119.92C325.885 118.926 325.416 117.669 325.416 116.146C325.416 114.761 325.781 113.408 326.51 112.086C327.248 110.755 328.191 109.712 329.34 108.955C330.488 108.189 331.605 107.807 332.689 107.807C333.564 107.807 334.335 108.066 335 108.586C335.674 109.096 336.13 109.775 336.367 110.623L337.16 108.203L339.307 107.957L336.312 118.375C336.23 118.658 336.189 118.94 336.189 119.223C336.189 119.478 336.24 119.674 336.34 119.811C336.449 119.947 336.577 120.016 336.723 120.016C336.996 120.016 337.306 119.829 337.652 119.455C338.327 118.735 338.96 117.769 339.553 116.557L340.346 116.912C338.915 119.902 337.452 121.396 335.957 121.396C335.474 121.396 335.073 121.214 334.754 120.85C334.435 120.476 334.275 119.997 334.275 119.414L334.303 118.854ZM332.867 108.887C332.147 108.887 331.418 109.178 330.68 109.762C329.951 110.336 329.303 111.298 328.738 112.646C328.182 113.995 327.904 115.385 327.904 116.816C327.904 117.947 328.137 118.785 328.602 119.332C329.066 119.87 329.727 120.139 330.584 120.139C331.35 120.139 332.061 119.87 332.717 119.332C333.382 118.794 334.038 117.742 334.686 116.174C335.333 114.597 335.656 113.198 335.656 111.977C335.656 111.102 335.378 110.368 334.822 109.775C334.266 109.183 333.615 108.887 332.867 108.887ZM355.945 107.957L353.225 116.393C352.933 117.304 352.787 118.047 352.787 118.621C352.787 119.04 352.901 119.373 353.129 119.619C353.366 119.856 353.68 119.975 354.072 119.975C354.865 119.975 355.85 119.382 357.025 118.197C358.21 117.003 359.181 115.253 359.938 112.947L361.482 108.203H363.697L360.43 118.32C360.284 118.767 360.211 119.15 360.211 119.469C360.211 119.706 360.261 119.883 360.361 120.002C360.471 120.12 360.626 120.18 360.826 120.18C361.646 120.18 362.69 118.995 363.957 116.625L364.736 116.898C364.025 118.475 363.251 119.619 362.412 120.33C361.574 121.041 360.776 121.396 360.02 121.396C359.473 121.396 359.04 121.232 358.721 120.904C358.402 120.567 358.242 120.107 358.242 119.523C358.242 119.04 358.347 118.361 358.557 117.486C357.408 118.981 356.401 120.007 355.535 120.562C354.669 121.118 353.849 121.396 353.074 121.396C352.281 121.396 351.652 121.173 351.188 120.727C350.723 120.271 350.49 119.678 350.49 118.949C350.49 118.348 350.686 117.445 351.078 116.242L352.924 110.473C352.969 110.327 352.992 110.186 352.992 110.049C352.992 109.803 352.883 109.607 352.664 109.461C352.372 109.279 351.953 109.188 351.406 109.188H350.654L350.928 108.203L355.945 107.957ZM357.613 106.125L357.312 105.811L360.484 102.051C361.214 101.185 361.774 100.752 362.166 100.752C362.449 100.752 362.704 100.866 362.932 101.094C363.16 101.322 363.273 101.572 363.273 101.846C363.273 102.447 362.799 103.031 361.852 103.596L357.613 106.125ZM372.707 107.957L371.531 112.4C373.628 109.429 375.587 107.943 377.41 107.943C378.112 107.943 378.682 108.18 379.119 108.654C379.566 109.119 379.789 109.757 379.789 110.568C379.789 111.252 379.634 112.063 379.324 113.002L377.861 117.555L377.506 118.689C377.451 118.945 377.424 119.154 377.424 119.318C377.424 119.51 377.479 119.674 377.588 119.811C377.697 119.938 377.825 120.002 377.971 120.002C378.363 120.002 378.864 119.701 379.475 119.1C380.085 118.498 380.632 117.591 381.115 116.379L381.963 116.666C381.37 118.161 380.628 119.3 379.734 120.084C378.841 120.859 378.007 121.246 377.232 121.246C376.695 121.246 376.243 121.046 375.879 120.645C375.523 120.243 375.346 119.729 375.346 119.1C375.346 118.571 375.451 117.992 375.66 117.363L377.273 112.4C377.456 111.854 377.547 111.32 377.547 110.801C377.547 110.363 377.433 110.017 377.205 109.762C376.977 109.507 376.686 109.379 376.33 109.379C375.519 109.379 374.493 110.049 373.254 111.389C372.023 112.729 371.071 114.57 370.396 116.912L369.207 121L366.951 121.109L369.973 110.473C370.018 110.309 370.041 110.149 370.041 109.994C370.041 109.721 369.954 109.516 369.781 109.379C369.544 109.206 369.212 109.119 368.783 109.119H367.566L367.826 108.203L372.707 107.957ZM389.551 100.834C389.97 100.834 390.321 100.984 390.604 101.285C390.886 101.577 391.027 101.941 391.027 102.379C391.027 102.807 390.886 103.167 390.604 103.459C390.321 103.742 389.975 103.883 389.564 103.883C389.136 103.883 388.771 103.737 388.471 103.445C388.179 103.154 388.033 102.794 388.033 102.365C388.033 101.928 388.179 101.563 388.471 101.271C388.762 100.98 389.122 100.834 389.551 100.834ZM389.838 107.957L386.803 118.662C386.721 118.936 386.68 119.173 386.68 119.373C386.68 119.601 386.73 119.774 386.83 119.893C386.939 120.002 387.081 120.057 387.254 120.057C387.582 120.057 387.969 119.847 388.416 119.428C389.154 118.726 389.87 117.742 390.562 116.475L391.287 116.898C390.622 118.348 389.829 119.46 388.908 120.234C387.988 121.009 387.158 121.396 386.42 121.396C385.928 121.396 385.508 121.205 385.162 120.822C384.816 120.43 384.643 119.92 384.643 119.291C384.643 118.671 384.743 118.015 384.943 117.322L386.967 110.336C387.003 110.217 387.021 110.104 387.021 109.994C387.021 109.748 386.917 109.557 386.707 109.42C386.424 109.238 386.001 109.146 385.436 109.146H384.574L384.848 108.203L389.838 107.957ZM402.375 117.637L403.059 118.156C402.184 119.323 401.304 120.157 400.42 120.658C399.536 121.15 398.597 121.396 397.604 121.396C396.291 121.396 395.197 120.927 394.322 119.988C393.456 119.04 393.023 117.805 393.023 116.283C393.023 114.852 393.393 113.458 394.131 112.1C394.878 110.732 395.835 109.675 397.002 108.928C398.169 108.18 399.358 107.807 400.57 107.807C401.591 107.807 402.393 108.071 402.977 108.6C403.56 109.119 403.852 109.798 403.852 110.637C403.852 111.284 403.701 111.79 403.4 112.154C403.1 112.51 402.726 112.688 402.279 112.688C401.896 112.688 401.568 112.56 401.295 112.305C401.031 112.04 400.898 111.726 400.898 111.361C400.898 110.742 401.227 110.331 401.883 110.131C402.229 110.021 402.402 109.862 402.402 109.652C402.402 109.443 402.247 109.233 401.938 109.023C401.637 108.805 401.249 108.695 400.775 108.695C399.992 108.695 399.203 108.996 398.41 109.598C397.626 110.199 396.956 111.147 396.4 112.441C395.854 113.736 395.58 115.112 395.58 116.57C395.58 117.81 395.831 118.735 396.332 119.346C396.833 119.947 397.499 120.248 398.328 120.248C399.659 120.248 401.008 119.378 402.375 117.637ZM414.174 118.854C413.627 119.692 412.993 120.326 412.273 120.754C411.553 121.182 410.842 121.396 410.141 121.396C408.783 121.396 407.634 120.904 406.695 119.92C405.757 118.926 405.287 117.669 405.287 116.146C405.287 114.761 405.652 113.408 406.381 112.086C407.119 110.755 408.062 109.712 409.211 108.955C410.359 108.189 411.476 107.807 412.561 107.807C413.436 107.807 414.206 108.066 414.871 108.586C415.546 109.096 416.001 109.775 416.238 110.623L417.031 108.203L419.178 107.957L416.184 118.375C416.102 118.658 416.061 118.94 416.061 119.223C416.061 119.478 416.111 119.674 416.211 119.811C416.32 119.947 416.448 120.016 416.594 120.016C416.867 120.016 417.177 119.829 417.523 119.455C418.198 118.735 418.831 117.769 419.424 116.557L420.217 116.912C418.786 119.902 417.323 121.396 415.828 121.396C415.345 121.396 414.944 121.214 414.625 120.85C414.306 120.476 414.146 119.997 414.146 119.414L414.174 118.854ZM412.738 108.887C412.018 108.887 411.289 109.178 410.551 109.762C409.822 110.336 409.174 111.298 408.609 112.646C408.053 113.995 407.775 115.385 407.775 116.816C407.775 117.947 408.008 118.785 408.473 119.332C408.938 119.87 409.598 120.139 410.455 120.139C411.221 120.139 411.932 119.87 412.588 119.332C413.253 118.794 413.91 117.742 414.557 116.174C415.204 114.597 415.527 113.198 415.527 111.977C415.527 111.102 415.249 110.368 414.693 109.775C414.137 109.183 413.486 108.887 412.738 108.887ZM432.344 118.771L430.867 123.926C430.803 124.135 430.771 124.304 430.771 124.432C430.771 124.678 430.872 124.874 431.072 125.02C431.282 125.174 431.642 125.252 432.152 125.252H433L432.74 126.264H426.055L426.342 125.252H426.82C427.768 125.252 428.37 124.81 428.625 123.926L432.535 110.35C432.572 110.24 432.59 110.126 432.59 110.008C432.59 109.743 432.485 109.538 432.275 109.393C432.075 109.238 431.738 109.16 431.264 109.16H430.266L430.566 108.203L435.188 107.957L434.49 110.732C435.265 109.63 436.008 108.868 436.719 108.449C437.43 108.021 438.186 107.807 438.988 107.807C440.118 107.807 441.08 108.258 441.873 109.16C442.675 110.062 443.076 111.238 443.076 112.688C443.076 114.146 442.702 115.581 441.955 116.994C441.217 118.407 440.287 119.496 439.166 120.262C438.054 121.018 436.947 121.396 435.844 121.396C434.158 121.396 432.991 120.521 432.344 118.771ZM438.236 109.051C437.462 109.051 436.655 109.447 435.816 110.24C434.978 111.024 434.303 112.159 433.793 113.645C433.283 115.121 433.027 116.347 433.027 117.322C433.027 118.206 433.255 118.904 433.711 119.414C434.176 119.915 434.791 120.166 435.557 120.166C436.313 120.166 437.042 119.874 437.744 119.291C438.455 118.708 439.111 117.691 439.713 116.242C440.314 114.784 440.615 113.353 440.615 111.949C440.615 111.056 440.387 110.35 439.932 109.83C439.485 109.311 438.92 109.051 438.236 109.051ZM454.123 118.854C453.576 119.692 452.943 120.326 452.223 120.754C451.503 121.182 450.792 121.396 450.09 121.396C448.732 121.396 447.583 120.904 446.645 119.92C445.706 118.926 445.236 117.669 445.236 116.146C445.236 114.761 445.601 113.408 446.33 112.086C447.068 110.755 448.012 109.712 449.16 108.955C450.309 108.189 451.425 107.807 452.51 107.807C453.385 107.807 454.155 108.066 454.82 108.586C455.495 109.096 455.951 109.775 456.188 110.623L456.98 108.203L459.127 107.957L456.133 118.375C456.051 118.658 456.01 118.94 456.01 119.223C456.01 119.478 456.06 119.674 456.16 119.811C456.27 119.947 456.397 120.016 456.543 120.016C456.816 120.016 457.126 119.829 457.473 119.455C458.147 118.735 458.781 117.769 459.373 116.557L460.166 116.912C458.735 119.902 457.272 121.396 455.777 121.396C455.294 121.396 454.893 121.214 454.574 120.85C454.255 120.476 454.096 119.997 454.096 119.414L454.123 118.854ZM452.688 108.887C451.967 108.887 451.238 109.178 450.5 109.762C449.771 110.336 449.124 111.298 448.559 112.646C448.003 113.995 447.725 115.385 447.725 116.816C447.725 117.947 447.957 118.785 448.422 119.332C448.887 119.87 449.548 120.139 450.404 120.139C451.17 120.139 451.881 119.87 452.537 119.332C453.202 118.794 453.859 117.742 454.506 116.174C455.153 114.597 455.477 113.198 455.477 111.977C455.477 111.102 455.199 110.368 454.643 109.775C454.087 109.183 453.435 108.887 452.688 108.887ZM464.186 121L461.902 121.178L464.35 112.4C464.614 111.462 464.746 110.819 464.746 110.473C464.746 110.035 464.605 109.707 464.322 109.488C464.049 109.26 463.598 109.146 462.969 109.146H462.367L462.654 108.203L467.221 107.957L465.936 113.48C466.756 111.594 467.385 110.327 467.822 109.68C468.26 109.033 468.734 108.559 469.244 108.258C469.755 107.957 470.256 107.807 470.748 107.807C471.34 107.807 471.833 107.998 472.225 108.381C472.626 108.764 472.826 109.238 472.826 109.803C472.826 110.331 472.68 110.76 472.389 111.088C472.106 111.407 471.755 111.566 471.336 111.566C470.999 111.566 470.712 111.448 470.475 111.211C470.238 110.974 470.119 110.687 470.119 110.35C470.119 110.213 470.165 110.026 470.256 109.789C470.311 109.643 470.338 109.525 470.338 109.434C470.338 109.306 470.306 109.21 470.242 109.146C470.178 109.083 470.078 109.051 469.941 109.051C469.695 109.051 469.413 109.183 469.094 109.447C468.492 109.967 467.9 110.883 467.316 112.195C466.259 114.574 465.512 116.502 465.074 117.979L464.186 121ZM482.643 118.854C482.096 119.692 481.462 120.326 480.742 120.754C480.022 121.182 479.311 121.396 478.609 121.396C477.251 121.396 476.103 120.904 475.164 119.92C474.225 118.926 473.756 117.669 473.756 116.146C473.756 114.761 474.12 113.408 474.85 112.086C475.588 110.755 476.531 109.712 477.68 108.955C478.828 108.189 479.945 107.807 481.029 107.807C481.904 107.807 482.674 108.066 483.34 108.586C484.014 109.096 484.47 109.775 484.707 110.623L485.5 108.203L487.646 107.957L484.652 118.375C484.57 118.658 484.529 118.94 484.529 119.223C484.529 119.478 484.579 119.674 484.68 119.811C484.789 119.947 484.917 120.016 485.062 120.016C485.336 120.016 485.646 119.829 485.992 119.455C486.667 118.735 487.3 117.769 487.893 116.557L488.686 116.912C487.255 119.902 485.792 121.396 484.297 121.396C483.814 121.396 483.413 121.214 483.094 120.85C482.775 120.476 482.615 119.997 482.615 119.414L482.643 118.854ZM481.207 108.887C480.487 108.887 479.758 109.178 479.02 109.762C478.29 110.336 477.643 111.298 477.078 112.646C476.522 113.995 476.244 115.385 476.244 116.816C476.244 117.947 476.477 118.785 476.941 119.332C477.406 119.87 478.067 120.139 478.924 120.139C479.689 120.139 480.4 119.87 481.057 119.332C481.722 118.794 482.378 117.742 483.025 116.174C483.673 114.597 483.996 113.198 483.996 111.977C483.996 111.102 483.718 110.368 483.162 109.775C482.606 109.183 481.954 108.887 481.207 108.887ZM500.184 116.023C500.138 116.452 500.115 116.812 500.115 117.104C500.115 118.106 500.357 118.876 500.84 119.414C501.332 119.943 501.997 120.207 502.836 120.207C503.492 120.207 504.139 120.038 504.777 119.701C505.415 119.355 506.213 118.667 507.17 117.637L507.799 118.211C506.076 120.335 504.253 121.396 502.33 121.396C501.018 121.396 499.91 120.904 499.008 119.92C498.105 118.936 497.654 117.678 497.654 116.146C497.654 114.798 498.033 113.476 498.789 112.182C499.546 110.878 500.553 109.826 501.811 109.023C503.077 108.212 504.258 107.807 505.352 107.807C506.29 107.807 507.056 108.08 507.648 108.627C508.25 109.165 508.551 109.826 508.551 110.609C508.551 111.275 508.314 111.94 507.84 112.605C507.375 113.262 506.618 113.85 505.57 114.369C504.531 114.889 502.736 115.44 500.184 116.023ZM500.375 115.135C502.116 114.752 503.355 114.355 504.094 113.945C504.832 113.535 505.388 113.025 505.762 112.414C506.145 111.803 506.336 111.161 506.336 110.486C506.336 109.949 506.195 109.529 505.912 109.229C505.639 108.928 505.26 108.777 504.777 108.777C503.902 108.777 503.055 109.279 502.234 110.281C501.423 111.275 500.803 112.893 500.375 115.135ZM513.418 100.779L518.531 100.52L513.5 118.088C513.327 118.671 513.24 119.095 513.24 119.359C513.24 119.615 513.286 119.801 513.377 119.92C513.468 120.038 513.587 120.098 513.732 120.098C514.489 120.098 515.501 118.917 516.768 116.557L517.533 116.967C516.048 119.92 514.535 121.396 512.994 121.396C512.447 121.396 512.005 121.21 511.668 120.836C511.331 120.462 511.162 119.943 511.162 119.277C511.162 118.767 511.294 118.042 511.559 117.104L515.605 102.967C515.651 102.785 515.674 102.643 515.674 102.543C515.674 102.324 515.574 102.156 515.373 102.037C515.109 101.882 514.689 101.805 514.115 101.805H513.131L513.418 100.779ZM536.715 117.637L537.398 118.156C536.523 119.323 535.644 120.157 534.76 120.658C533.876 121.15 532.937 121.396 531.943 121.396C530.631 121.396 529.537 120.927 528.662 119.988C527.796 119.04 527.363 117.805 527.363 116.283C527.363 114.852 527.732 113.458 528.471 112.1C529.218 110.732 530.175 109.675 531.342 108.928C532.508 108.18 533.698 107.807 534.91 107.807C535.931 107.807 536.733 108.071 537.316 108.6C537.9 109.119 538.191 109.798 538.191 110.637C538.191 111.284 538.041 111.79 537.74 112.154C537.439 112.51 537.066 112.688 536.619 112.688C536.236 112.688 535.908 112.56 535.635 112.305C535.37 112.04 535.238 111.726 535.238 111.361C535.238 110.742 535.566 110.331 536.223 110.131C536.569 110.021 536.742 109.862 536.742 109.652C536.742 109.443 536.587 109.233 536.277 109.023C535.977 108.805 535.589 108.695 535.115 108.695C534.331 108.695 533.543 108.996 532.75 109.598C531.966 110.199 531.296 111.147 530.74 112.441C530.193 113.736 529.92 115.112 529.92 116.57C529.92 117.81 530.171 118.735 530.672 119.346C531.173 119.947 531.839 120.248 532.668 120.248C533.999 120.248 535.348 119.378 536.715 117.637ZM546.777 107.807C548.181 107.807 549.37 108.331 550.346 109.379C551.33 110.418 551.822 111.74 551.822 113.344C551.822 114.729 551.471 116.074 550.77 117.377C550.077 118.671 549.184 119.665 548.09 120.357C546.996 121.05 545.861 121.396 544.686 121.396C543.282 121.396 542.079 120.868 541.076 119.811C540.083 118.744 539.586 117.413 539.586 115.818C539.586 114.488 539.941 113.175 540.652 111.881C541.363 110.577 542.27 109.575 543.373 108.873C544.485 108.162 545.62 107.807 546.777 107.807ZM546.832 108.736C546.148 108.736 545.456 109.028 544.754 109.611C544.061 110.186 543.432 111.197 542.867 112.646C542.311 114.096 542.033 115.545 542.033 116.994C542.033 118.115 542.275 118.977 542.758 119.578C543.241 120.18 543.856 120.48 544.604 120.48C545.314 120.48 546.007 120.198 546.682 119.633C547.356 119.068 547.98 118.038 548.555 116.543C549.129 115.039 549.416 113.567 549.416 112.127C549.416 111.061 549.17 110.231 548.678 109.639C548.195 109.037 547.579 108.736 546.832 108.736ZM559.93 107.957L558.754 112.4C560.85 109.429 562.81 107.943 564.633 107.943C565.335 107.943 565.904 108.18 566.342 108.654C566.788 109.119 567.012 109.757 567.012 110.568C567.012 111.252 566.857 112.063 566.547 113.002L565.084 117.555L564.729 118.689C564.674 118.945 564.646 119.154 564.646 119.318C564.646 119.51 564.701 119.674 564.811 119.811C564.92 119.938 565.048 120.002 565.193 120.002C565.585 120.002 566.087 119.701 566.697 119.1C567.308 118.498 567.855 117.591 568.338 116.379L569.186 116.666C568.593 118.161 567.85 119.3 566.957 120.084C566.064 120.859 565.23 121.246 564.455 121.246C563.917 121.246 563.466 121.046 563.102 120.645C562.746 120.243 562.568 119.729 562.568 119.1C562.568 118.571 562.673 117.992 562.883 117.363L564.496 112.4C564.678 111.854 564.77 111.32 564.77 110.801C564.77 110.363 564.656 110.017 564.428 109.762C564.2 109.507 563.908 109.379 563.553 109.379C562.742 109.379 561.716 110.049 560.477 111.389C559.246 112.729 558.294 114.57 557.619 116.912L556.43 121L554.174 121.109L557.195 110.473C557.241 110.309 557.264 110.149 557.264 109.994C557.264 109.721 557.177 109.516 557.004 109.379C556.767 109.206 556.434 109.119 556.006 109.119H554.789L555.049 108.203L559.93 107.957ZM577.32 107.807C578.624 107.807 579.626 108.071 580.328 108.6C581.03 109.128 581.381 109.785 581.381 110.568C581.381 111.07 581.24 111.48 580.957 111.799C580.684 112.109 580.346 112.264 579.945 112.264C579.572 112.264 579.257 112.136 579.002 111.881C578.747 111.626 578.619 111.316 578.619 110.951C578.619 110.714 578.715 110.454 578.906 110.172C579.061 109.962 579.139 109.798 579.139 109.68C579.139 109.443 578.984 109.229 578.674 109.037C578.373 108.837 577.917 108.736 577.307 108.736C576.359 108.736 575.598 108.987 575.023 109.488C574.458 109.98 574.176 110.577 574.176 111.279C574.176 111.762 574.34 112.15 574.668 112.441C574.996 112.733 575.867 113.102 577.279 113.549C578.51 113.932 579.362 114.396 579.836 114.943C580.301 115.499 580.533 116.169 580.533 116.953C580.533 118.147 580.023 119.186 579.002 120.07C577.981 120.954 576.65 121.396 575.01 121.396C573.597 121.396 572.503 121.091 571.729 120.48C570.954 119.861 570.566 119.095 570.566 118.184C570.566 117.628 570.717 117.181 571.018 116.844C571.327 116.497 571.701 116.324 572.139 116.324C572.531 116.324 572.854 116.452 573.109 116.707C573.365 116.962 573.492 117.277 573.492 117.65C573.492 117.833 573.456 117.997 573.383 118.143C573.319 118.288 573.173 118.471 572.945 118.689C572.745 118.89 572.645 119.077 572.645 119.25C572.645 119.56 572.85 119.847 573.26 120.111C573.679 120.376 574.281 120.508 575.064 120.508C576.067 120.508 576.883 120.243 577.512 119.715C578.15 119.177 578.469 118.539 578.469 117.801C578.469 117.272 578.3 116.839 577.963 116.502C577.617 116.165 576.874 115.814 575.734 115.449C574.367 115.012 573.465 114.551 573.027 114.068C572.581 113.585 572.357 112.979 572.357 112.25C572.357 111.065 572.84 110.031 573.807 109.146C574.773 108.253 575.944 107.807 577.32 107.807ZM589.844 107.957L587.123 116.393C586.831 117.304 586.686 118.047 586.686 118.621C586.686 119.04 586.799 119.373 587.027 119.619C587.264 119.856 587.579 119.975 587.971 119.975C588.764 119.975 589.748 119.382 590.924 118.197C592.109 117.003 593.079 115.253 593.836 112.947L595.381 108.203H597.596L594.328 118.32C594.182 118.767 594.109 119.15 594.109 119.469C594.109 119.706 594.16 119.883 594.26 120.002C594.369 120.12 594.524 120.18 594.725 120.18C595.545 120.18 596.589 118.995 597.855 116.625L598.635 116.898C597.924 118.475 597.149 119.619 596.311 120.33C595.472 121.041 594.674 121.396 593.918 121.396C593.371 121.396 592.938 121.232 592.619 120.904C592.3 120.567 592.141 120.107 592.141 119.523C592.141 119.04 592.245 118.361 592.455 117.486C591.307 118.981 590.299 120.007 589.434 120.562C588.568 121.118 587.747 121.396 586.973 121.396C586.18 121.396 585.551 121.173 585.086 120.727C584.621 120.271 584.389 119.678 584.389 118.949C584.389 118.348 584.585 117.445 584.977 116.242L586.822 110.473C586.868 110.327 586.891 110.186 586.891 110.049C586.891 109.803 586.781 109.607 586.562 109.461C586.271 109.279 585.852 109.188 585.305 109.188H584.553L584.826 108.203L589.844 107.957ZM613.441 111.812C614.353 110.527 615.246 109.566 616.121 108.928C616.996 108.281 617.853 107.957 618.691 107.957C619.43 107.957 620.022 108.189 620.469 108.654C620.924 109.11 621.152 109.721 621.152 110.486C621.152 111.27 621.011 112.1 620.729 112.975L618.883 118.744C618.837 118.89 618.814 119.04 618.814 119.195C618.814 119.378 618.865 119.528 618.965 119.646C619.074 119.756 619.211 119.811 619.375 119.811C619.658 119.811 619.977 119.642 620.332 119.305C620.824 118.84 621.485 117.91 622.314 116.516L623.066 116.98C622.146 118.612 621.271 119.779 620.441 120.48C619.822 120.991 619.174 121.246 618.5 121.246C617.953 121.246 617.516 121.059 617.188 120.686C616.868 120.303 616.709 119.738 616.709 118.99C616.709 118.699 616.759 118.389 616.859 118.061L618.787 111.949C618.924 111.548 618.992 111.156 618.992 110.773C618.992 110.363 618.869 110.031 618.623 109.775C618.386 109.52 618.085 109.393 617.721 109.393C617.274 109.393 616.782 109.575 616.244 109.939C615.442 110.495 614.758 111.238 614.193 112.168C613.327 113.59 612.735 114.866 612.416 115.996L610.967 121L608.684 121.137L611.131 112.578C611.331 111.876 611.432 111.325 611.432 110.924C611.432 110.395 611.318 110.008 611.09 109.762C610.871 109.507 610.552 109.379 610.133 109.379C609.641 109.379 609.158 109.543 608.684 109.871C608.027 110.327 607.335 111.143 606.605 112.318C605.885 113.485 605.339 114.711 604.965 115.996L603.488 121L601.26 121.137L604.281 110.418C604.318 110.281 604.336 110.149 604.336 110.021C604.336 109.757 604.236 109.552 604.035 109.406C603.835 109.26 603.493 109.188 603.01 109.188H602.299L602.572 108.203L606.975 107.957L605.963 111.949C607.604 109.288 609.326 107.957 611.131 107.957C611.896 107.957 612.484 108.185 612.895 108.641C613.314 109.096 613.523 109.78 613.523 110.691C613.523 111.001 613.496 111.375 613.441 111.812ZM631.242 100.834C631.661 100.834 632.012 100.984 632.295 101.285C632.577 101.577 632.719 101.941 632.719 102.379C632.719 102.807 632.577 103.167 632.295 103.459C632.012 103.742 631.666 103.883 631.256 103.883C630.827 103.883 630.463 103.737 630.162 103.445C629.87 103.154 629.725 102.794 629.725 102.365C629.725 101.928 629.87 101.563 630.162 101.271C630.454 100.98 630.814 100.834 631.242 100.834ZM631.529 107.957L628.494 118.662C628.412 118.936 628.371 119.173 628.371 119.373C628.371 119.601 628.421 119.774 628.521 119.893C628.631 120.002 628.772 120.057 628.945 120.057C629.273 120.057 629.661 119.847 630.107 119.428C630.846 118.726 631.561 117.742 632.254 116.475L632.979 116.898C632.313 118.348 631.52 119.46 630.6 120.234C629.679 121.009 628.85 121.396 628.111 121.396C627.619 121.396 627.2 121.205 626.854 120.822C626.507 120.43 626.334 119.92 626.334 119.291C626.334 118.671 626.434 118.015 626.635 117.322L628.658 110.336C628.695 110.217 628.713 110.104 628.713 109.994C628.713 109.748 628.608 109.557 628.398 109.42C628.116 109.238 627.692 109.146 627.127 109.146H626.266L626.539 108.203L631.529 107.957ZM650.697 100.52L645.639 118.02C645.493 118.521 645.42 118.949 645.42 119.305C645.42 119.514 645.475 119.678 645.584 119.797C645.702 119.915 645.862 119.975 646.062 119.975C646.874 119.975 647.945 118.799 649.275 116.447L650.055 116.83C649.198 118.489 648.364 119.665 647.553 120.357C646.742 121.05 646.008 121.396 645.352 121.396C644.759 121.396 644.303 121.187 643.984 120.768C643.665 120.339 643.488 119.701 643.451 118.854C642.184 120.549 640.776 121.396 639.227 121.396C638.452 121.396 637.718 121.191 637.025 120.781C636.342 120.371 635.809 119.792 635.426 119.045C635.043 118.288 634.852 117.445 634.852 116.516C634.852 115.103 635.23 113.672 635.986 112.223C636.743 110.773 637.663 109.675 638.748 108.928C639.842 108.18 640.945 107.807 642.057 107.807C642.822 107.807 643.51 107.998 644.121 108.381C644.732 108.764 645.265 109.342 645.721 110.117L647.771 102.857C647.799 102.757 647.812 102.666 647.812 102.584C647.812 102.347 647.717 102.16 647.525 102.023C647.334 101.878 647.038 101.805 646.637 101.805H645.215L645.488 100.779L650.697 100.52ZM642.398 108.969C641.56 108.969 640.744 109.342 639.951 110.09C639.158 110.837 638.493 112.077 637.955 113.809C637.545 115.121 637.34 116.238 637.34 117.158C637.34 118.088 637.568 118.822 638.023 119.359C638.488 119.897 639.067 120.166 639.76 120.166C640.571 120.166 641.378 119.779 642.18 119.004C642.991 118.229 643.652 117.067 644.162 115.518C644.682 113.959 644.941 112.719 644.941 111.799C644.941 110.933 644.704 110.245 644.23 109.734C643.757 109.224 643.146 108.969 642.398 108.969ZM658.805 107.807C660.208 107.807 661.398 108.331 662.373 109.379C663.357 110.418 663.85 111.74 663.85 113.344C663.85 114.729 663.499 116.074 662.797 117.377C662.104 118.671 661.211 119.665 660.117 120.357C659.023 121.05 657.889 121.396 656.713 121.396C655.309 121.396 654.106 120.868 653.104 119.811C652.11 118.744 651.613 117.413 651.613 115.818C651.613 114.488 651.969 113.175 652.68 111.881C653.391 110.577 654.298 109.575 655.4 108.873C656.512 108.162 657.647 107.807 658.805 107.807ZM658.859 108.736C658.176 108.736 657.483 109.028 656.781 109.611C656.089 110.186 655.46 111.197 654.895 112.646C654.339 114.096 654.061 115.545 654.061 116.994C654.061 118.115 654.302 118.977 654.785 119.578C655.268 120.18 655.883 120.48 656.631 120.48C657.342 120.48 658.035 120.198 658.709 119.633C659.383 119.068 660.008 118.038 660.582 116.543C661.156 115.039 661.443 113.567 661.443 112.127C661.443 111.061 661.197 110.231 660.705 109.639C660.222 109.037 659.607 108.736 658.859 108.736ZM668.525 121L666.242 121.178L668.689 112.4C668.954 111.462 669.086 110.819 669.086 110.473C669.086 110.035 668.945 109.707 668.662 109.488C668.389 109.26 667.938 109.146 667.309 109.146H666.707L666.994 108.203L671.561 107.957L670.275 113.48C671.096 111.594 671.725 110.327 672.162 109.68C672.6 109.033 673.074 108.559 673.584 108.258C674.094 107.957 674.596 107.807 675.088 107.807C675.68 107.807 676.173 107.998 676.564 108.381C676.965 108.764 677.166 109.238 677.166 109.803C677.166 110.331 677.02 110.76 676.729 111.088C676.446 111.407 676.095 111.566 675.676 111.566C675.339 111.566 675.051 111.448 674.814 111.211C674.577 110.974 674.459 110.687 674.459 110.35C674.459 110.213 674.505 110.026 674.596 109.789C674.65 109.643 674.678 109.525 674.678 109.434C674.678 109.306 674.646 109.21 674.582 109.146C674.518 109.083 674.418 109.051 674.281 109.051C674.035 109.051 673.753 109.183 673.434 109.447C672.832 109.967 672.24 110.883 671.656 112.195C670.599 114.574 669.852 116.502 669.414 117.979L668.525 121ZM680.365 118.02C680.821 118.02 681.213 118.184 681.541 118.512C681.869 118.84 682.033 119.236 682.033 119.701C682.033 120.175 681.869 120.576 681.541 120.904C681.213 121.232 680.821 121.396 680.365 121.396C679.9 121.396 679.504 121.232 679.176 120.904C678.857 120.576 678.697 120.175 678.697 119.701C678.697 119.236 678.857 118.84 679.176 118.512C679.504 118.184 679.9 118.02 680.365 118.02Z" fill="white"/>
<g clip-path="url(#clip2_7_44)">
<path d="M153.99 16L155.37 23.6901C146.35 26.5967 139.817 29.87 135.77 33.51C131.77 37.15 129.56 40.39 129.31 43.24C129.143 44.1612 129.34 45.1114 129.86 45.89C130.812 46.6025 131.897 47.1191 133.05 47.41C136.65 48.74 139.05 50.23 140.19 51.87C142.19 54.6567 143.017 58.2 142.67 62.5C142.368 66.8163 140.459 70.8627 137.32 73.8401C135.795 75.3454 133.984 76.529 131.993 77.3209C130.002 78.1128 127.872 78.4968 125.73 78.4501C123.533 78.5022 121.358 78.0032 119.403 76.9988C117.449 75.9944 115.777 74.5166 114.54 72.7001C111.727 68.8801 110.587 63.9301 111.12 57.8501C112.02 47.6034 116.877 38.3367 125.69 30.05C132.257 23.91 141.69 19.2267 153.99 16ZM196.45 16L197.9 23.6901C188.827 26.5967 182.277 29.87 178.25 33.51C174.223 37.15 172.093 40.3933 171.86 43.24C171.697 44.1476 171.852 45.0838 172.3 45.89C173.256 46.6196 174.337 47.1686 175.49 47.51C179.14 48.77 181.55 50.23 182.72 51.87C184.818 54.9915 185.703 58.7716 185.21 62.5C184.898 66.8197 182.978 70.8657 179.83 73.8401C178.297 75.3421 176.479 76.5234 174.484 77.3149C172.489 78.1065 170.356 78.4924 168.21 78.4501C166.018 78.4999 163.848 77.9996 161.898 76.9952C159.949 75.9908 158.282 74.5142 157.05 72.7001C154.257 68.8801 153.127 63.9301 153.66 57.8501C154.54 47.7301 159.323 38.5567 168.01 30.3301C174.583 24.0701 184.063 19.2933 196.45 16Z" fill="white"/>
</g>
</g>
<defs>
<clipPath id="clip0_7_44">
<rect width="98.56" height="71.83" fill="white" transform="translate(703 151)"/>
</clipPath>
<clipPath id="clip1_7_44">
<rect width="703.35" height="198.33" fill="white"/>
</clipPath>
<clipPath id="clip2_7_44">
<rect width="86.91" height="62.45" fill="white" transform="translate(111 16)"/>
</clipPath>
</defs>
</svg>
