<svg width="40" height="40" viewBox="0 0 40 40" fill="none" xmlns="http://www.w3.org/2000/svg">
<g clip-path="url(#clip0_39_505)">
<path d="M19.96 7.61011C17.7972 7.60782 15.675 8.19795 13.8239 9.31653C11.9728 10.4351 10.4635 12.0394 9.45972 13.9552C8.45597 15.871 7.99615 18.0252 8.13018 20.1838C8.26421 22.3425 8.98695 24.4232 10.22 26.2001L9.21998 30.3901L13.29 29.2201C14.8201 30.2737 16.5766 30.9528 18.4176 31.2025C20.2585 31.4523 22.1324 31.2656 23.888 30.6577C25.6435 30.0498 27.2316 29.0376 28.5239 27.7029C29.8162 26.3682 30.7765 24.7484 31.3275 22.9741C31.8784 21.1999 32.0044 19.3208 31.6954 17.4889C31.3863 15.657 30.6509 13.9233 29.5484 12.428C28.4459 10.9326 27.0073 9.71754 25.3486 8.88062C23.69 8.04371 21.8578 7.60847 20 7.61011H19.96ZM26.64 24.6801C25.83 26.5101 22.82 26.0801 22.82 26.0801C20.4441 25.6729 18.2341 24.5953 16.45 22.9742C14.666 21.3532 13.3823 19.2562 12.75 16.9301C11.88 14.2301 14.68 12.9301 14.68 12.9301C14.9154 12.8152 15.1803 12.7747 15.4393 12.814C15.6983 12.8533 15.9392 12.9706 16.13 13.1502C16.4218 13.588 16.6476 14.0664 16.8 14.5701L17.11 15.3501C17.2909 15.7602 17.3895 16.202 17.4 16.6502C17.4 17.1102 16.96 17.4201 16.69 17.7401L16.19 18.3101C17.32 21.4901 21.58 23.0501 21.58 23.0501L22.58 22.0501C22.8054 21.7398 23.1091 21.4948 23.46 21.3401C23.9728 21.2923 24.4853 21.4347 24.9 21.7401C25.41 21.9901 25.8 22.2201 26.24 22.4801C26.4185 22.5588 26.5738 22.6818 26.6911 22.8377C26.8084 22.9935 26.8838 23.1769 26.91 23.3701C26.9115 23.8208 26.8196 24.2667 26.64 24.6801Z" fill="white"/>
<path d="M19.57 0C14.3877 0 9.41762 2.05868 5.75316 5.72314C2.0887 9.38761 0.0300293 14.3577 0.0300293 19.54C0.0300293 24.7224 2.0887 29.6924 5.75316 33.3568C9.41762 37.0213 14.3877 39.08 19.57 39.08C22.1356 39.08 24.676 38.5745 27.0461 37.5924C29.4163 36.6103 31.5697 35.1708 33.3834 33.3562C35.197 31.5416 36.6354 29.3875 37.6163 27.0168C38.5971 24.6462 39.1013 22.1056 39.1 19.54C39.1013 16.9745 38.5971 14.4338 37.6163 12.0631C36.6354 9.69247 35.197 7.53834 33.3834 5.72375C31.5697 3.90917 29.4163 2.46965 27.0461 1.48755C24.676 0.505449 22.1356 -3.36316e-07 19.57 0ZM19.83 33.6699C17.4099 33.6717 15.0289 33.0594 12.91 31.89L5.76003 33.89L7.56003 26.64C5.95604 23.9308 5.29303 20.7672 5.67429 17.642C6.05554 14.5167 7.45964 11.6053 9.66789 9.36121C11.8761 7.11708 14.7646 5.66618 17.8832 5.23462C21.0019 4.80306 24.1758 5.41509 26.9105 6.97522C29.6452 8.53535 31.7871 10.9561 33.0027 13.8604C34.2183 16.7646 34.4393 19.9893 33.6313 23.0322C32.8233 26.0752 31.0316 28.7656 28.5354 30.6842C26.0391 32.6028 22.9784 33.6421 19.83 33.64V33.6699Z" fill="white"/>
</g>
<defs>
<clipPath id="clip0_39_505">
<rect width="39.07" height="39.07" fill="white"/>
</clipPath>
</defs>
</svg>
